<svg width="14" height="14" viewBox="0 0 14 14" fill="none" xmlns="http://www.w3.org/2000/svg">
<path d="M3.11741 12.5278C2.9635 12.5278 2.83459 12.4757 2.73066 12.3714C2.62673 12.2671 2.57458 12.1382 2.57422 11.9846V9.81187C2.57422 9.51312 2.68068 9.25746 2.89361 9.04489C3.10654 8.83232 3.3622 8.72586 3.66059 8.7255H11.2652C11.564 8.7255 11.8198 8.83196 12.0327 9.04489C12.2457 9.25782 12.352 9.51348 12.3516 9.81187V11.9846C12.3516 12.1385 12.2994 12.2676 12.1952 12.3719C12.0909 12.4762 11.9619 12.5282 11.8084 12.5278H3.11741ZM3.66059 7.63912V6.00956C3.66059 5.71081 3.76706 5.45515 3.97999 5.24258C4.19292 5.03001 4.44858 4.92355 4.74697 4.92319H6.91972V4.13556C6.75676 4.02693 6.62549 3.89566 6.52591 3.74175C6.42632 3.58785 6.37653 3.40226 6.37653 3.18499C6.37653 3.04919 6.40369 2.91557 6.45801 2.78411C6.51233 2.65266 6.5938 2.5328 6.70244 2.42452L7.4629 1.66406L8.22337 2.42452C8.332 2.53316 8.41348 2.65303 8.4678 2.78411C8.52212 2.9152 8.54928 3.04883 8.54928 3.18499C8.54928 3.40226 8.49949 3.58785 8.3999 3.74175C8.30032 3.89566 8.16905 4.02693 8.00609 4.13556V4.92319H10.1788C10.4776 4.92319 10.7334 5.02947 10.9464 5.24204C11.1593 5.4546 11.2656 5.71044 11.2652 6.00956V7.63912H3.66059Z" fill="#023A4A"/>
<path d="M3.66016 7.63912V6.00956C3.66016 5.71081 3.76662 5.45515 3.97955 5.24258C4.19248 5.03001 4.44814 4.92355 4.74653 4.92319H6.91928V4.13556C6.75632 4.02693 6.62505 3.89566 6.52547 3.74175C6.42588 3.58785 6.37609 3.40226 6.37609 3.18499C6.37609 3.04919 6.40325 2.91557 6.45757 2.78411C6.51189 2.65266 6.59337 2.5328 6.702 2.42452L7.46247 1.66406L8.22293 2.42452C8.33157 2.53316 8.41304 2.65303 8.46736 2.78411C8.52168 2.9152 8.54884 3.04883 8.54884 3.18499C8.54884 3.40226 8.49905 3.58785 8.39946 3.74175C8.29988 3.89566 8.16861 4.02693 8.00565 4.13556V4.92319H10.1784C10.4772 4.92319 10.733 5.02947 10.9459 5.24204C11.1589 5.4546 11.2651 5.71044 11.2648 6.00956V7.63912H3.66016Z" fill="#6FB95D"/>
</svg>
