<svg width="399" height="490" viewBox="0 0 399 490" fill="none" xmlns="http://www.w3.org/2000/svg">
<path d="M277.301 310.522C275.435 312.861 271.769 316.858 271.769 316.858C268.183 320.758 264.11 324.282 260.092 327.551C249.381 336.246 237.578 342.615 225.006 346.462C222.955 347.093 220.823 347.582 218.792 348.057L218.143 348.208L199.456 380.576C194.058 389.926 187.525 397.833 180.021 404.057C172.534 410.291 164.391 414.904 155.835 417.798C147.262 420.681 138.376 421.713 129.447 420.833C120.489 419.96 111.634 417.045 103.133 412.137C94.6321 407.229 87.6519 401.025 82.4455 393.697C77.2287 386.386 73.5955 378.198 71.6946 369.362C69.7833 360.545 69.7066 351.186 71.4912 341.564C74.9796 322.705 86.2622 306.124 95.7041 289.77C104.205 275.046 112.541 260.203 121.041 245.479C125.519 237.723 129.997 229.967 134.475 222.211C135.644 220.187 136.256 217.626 137.259 215.483C141.17 207.208 146.896 199.886 153.663 193.762C155.352 195.096 157.035 196.521 158.701 198.056C153.882 202.51 143.825 216.36 142.671 222.739C137.299 226.731 133.458 232.084 130.914 236.491C131.228 234.284 131.633 232.082 132.136 229.912C121.697 248.318 112.516 265.801 105.122 281.164C108.276 290.102 112.672 298.468 118.443 306.361C126.271 317.018 136.371 325.931 148.788 333.1C165.808 342.926 184.908 347.648 204.67 346.233C218.217 345.241 231.527 341.414 243.641 335.034C249.823 331.749 255.675 327.819 261.131 323.398C267.101 318.534 272.58 312.98 277.584 306.745C280.595 302.991 283.457 299.007 286.118 294.763C286.998 293.361 287.871 291.93 288.719 290.461L344.998 192.983C351.348 181.984 355.794 170.795 358.372 159.434C358.882 157.173 359.356 154.891 359.729 152.623C361.928 138.917 361.535 125.603 358.57 112.689C355.604 99.7761 350.189 87.9805 342.365 77.2772C334.53 66.5918 324.405 57.6414 311.97 50.4619C299.534 43.2824 286.731 38.9713 273.549 37.5466C260.378 36.1039 247.466 37.2948 234.851 41.0935C222.237 44.8923 210.531 51.1739 199.771 59.9127C189.001 68.6694 179.764 79.7201 172.039 93.1006L122.885 178.238C124.491 176.227 126.149 174.247 127.854 172.389C131.472 168.435 135.323 164.808 139.379 161.513C150.149 152.756 161.845 146.493 174.459 142.694C176.751 142.011 179.068 141.486 181.375 140.978L199.762 109.13C205.305 99.5295 211.795 91.5738 219.26 85.2557C226.725 78.9377 234.782 74.3941 243.429 71.6249C252.077 68.8557 260.922 67.8957 269.952 68.7629C278.983 69.63 287.775 72.5328 296.346 77.4814C304.918 82.43 311.828 88.5928 317.094 95.9801C322.36 103.367 325.878 111.512 327.681 120.435C329.485 129.358 329.547 138.66 327.879 148.325C326.21 157.989 322.659 167.546 317.219 176.968L297.322 211.432L295.833 214.011L264.653 268.016C263.217 271.964 261.493 275.841 259.322 279.603C257.15 283.364 254.643 286.813 251.953 290.013C249.938 292.408 247.806 294.64 245.558 296.709C244.78 297.407 243.996 298.076 243.183 298.754C242.467 298.818 241.723 298.89 240.849 298.983C239.637 299.095 238.278 299.218 236.954 299.361C238.506 293.713 238.599 286.697 237.23 278.885C241.119 274.706 250.373 259.366 251.593 253.765C256.991 252.487 263.253 249.917 266.648 248.295C267.022 249.514 267.588 250.724 268.22 251.901C267.848 254.815 267.217 257.126 266.462 260.177L266.11 261.598L266.845 260.326C277.184 242.174 286.473 224.585 294.224 208.401C294.458 207.915 293.537 206.022 293.309 205.484C286.076 186.859 273.043 171.143 256.595 160.165C254.682 158.894 252.739 157.677 250.754 156.531C243.184 152.16 235.107 148.667 226.659 146.345C218.193 144.013 208.829 142.953 200.006 143.185C196.962 143.267 193.943 143.506 190.925 143.865C185.11 144.568 179.179 145.634 173.532 147.341C160.918 151.14 149.212 157.422 138.452 166.161C132.281 171.172 126.64 176.966 121.47 183.487C117.487 188.52 113.75 193.694 110.545 199.247C107.711 204.155 104.867 209.081 102.033 213.989C95.7456 224.88 89.4579 235.77 83.1701 246.661C76.7583 257.767 70.3465 268.872 63.9346 279.978C58.9913 288.54 54.0326 296.926 50.1214 306.012C46.502 314.431 42.9083 323.008 40.6456 331.876C36.8788 346.634 37.1564 362.581 40.605 377.254C43.5976 390.04 49.0966 401.932 56.9142 412.607C64.7317 423.283 74.9795 432.304 87.3796 439.463C99.7797 446.622 112.727 450.969 125.87 452.419C139.024 453.852 152.086 452.604 164.714 448.741C177.342 444.879 189.183 438.484 199.943 429.745C210.674 421.014 219.978 409.93 227.579 396.765L277.353 310.553L277.301 310.522ZM237.376 213.936C237.333 219.691 236.448 225.604 235.018 229.866C233.042 230.731 231.011 231.613 229.057 232.443C222.615 235.244 215.94 238.125 209.736 241.326C205.779 237.919 194.034 228.367 183.065 225.665C183.114 221.848 183.126 217.771 183.139 213.814C183.15 211.24 183.157 208.713 183.172 206.334C183.182 204.452 183.2 202.838 183.233 201.401C187.937 196.904 194.81 193.397 199.802 191.24C202.962 189.864 205.789 188.821 207.609 188.224C208.704 187.829 209.579 187.57 210.092 187.412C219.822 191.692 228.187 197.119 235.809 202.332C236.864 204.804 237.42 208.994 237.379 213.89L237.754 213.891L237.761 213.919L237.376 213.936ZM146.817 290.883C144.89 288.743 143.082 286.481 141.454 284.109C140.424 282.607 139.509 281.027 138.66 279.415C140.783 281.62 142.967 283.597 145.205 285.319C146.119 287.71 147.338 290.467 149.215 293.462C148.397 292.607 147.597 291.763 146.817 290.883ZM204.948 314.844C201.842 315.153 198.732 315.267 195.629 315.124C189.988 314.876 184.411 313.949 179.038 312.304C174.748 310.973 170.615 309.208 166.661 307.093C172.838 308.724 178.76 309.134 184.276 308.139C191.239 312.709 199.612 314.271 205.538 314.755C205.363 314.773 205.151 314.817 204.948 314.844ZM183.226 287.567C172.535 282.397 164.381 277.618 158.354 272.968C156.989 268.478 156.338 263.278 156.381 257.523C156.429 252.655 156.97 248.31 157.433 245.52C157.696 243.929 157.945 242.687 158.106 241.921C158.13 241.839 158.147 241.729 158.171 241.647C165.745 235.87 174.535 231.272 182.216 227.419C188.651 228.889 195.548 233.086 200.228 236.338C202.457 237.912 204.698 239.587 206.849 241.379C207.757 242.118 208.43 242.697 208.817 243.04C208.865 245.958 209.001 248.806 209.116 251.811C209.31 256.747 209.503 261.85 209.466 267.632C209.452 268.914 209.428 270.213 209.407 271.467C209.066 271.772 208.678 272.121 208.24 272.513C203.957 276.322 192.994 285.373 183.226 287.567ZM155.1 192.49C155.225 192.395 155.343 192.272 155.479 192.16C168.467 181.101 185.642 174.92 202.525 174.923C205.312 175.004 208.083 175.194 210.785 175.584C209.844 178.958 209.471 183.376 209.34 185.712C205.35 186.944 190.871 191.863 182.381 199.714C177.291 197.66 168.111 194.82 160.371 196.99C158.599 195.394 156.849 193.882 155.1 192.49ZM142.972 224.895C144.6 229.012 150.912 237.671 156.275 241.604C155.7 244.305 154.565 250.408 154.518 257.546C154.47 263.227 155.104 268.417 156.403 272.94C150.463 276.413 146.879 279.742 145.456 283.099C142.323 280.574 139.281 277.528 136.361 274.027C136.192 273.834 136.033 273.623 135.874 273.411C134.58 270.42 133.464 267.363 132.61 264.219C132.34 263.227 132.097 262.227 131.883 261.22C130.491 254.828 129.99 248.233 130.397 241.686C130.393 241.612 130.407 241.548 130.413 241.456C132.557 236.89 136.587 229.95 142.972 224.895ZM236.343 289.67C236.312 293.497 235.795 296.948 234.861 299.944C229.526 304.602 219.738 310.725 211.849 313.072C211.611 313.078 211.328 313.082 210.971 313.091C207.283 313.111 194.578 312.726 185.168 306.433C184.739 303.2 184.022 295.478 184.072 290.969C184.071 290.323 184.091 289.762 184.132 289.284C194.816 286.639 206.519 276.631 210.479 273.017C217.833 277.072 226.662 279.424 235.492 279.625C236.073 283.161 236.356 286.525 236.343 289.67ZM251.298 251.923C248.956 245.556 239.851 233.54 236.839 230.32C238.289 225.903 239.204 219.816 239.24 213.913C239.27 209.035 238.757 204.893 237.72 202.145C241.432 200.706 247.52 199.206 252.818 198.873C254.601 200.977 256.22 203.201 257.735 205.485C264.183 215.775 267.969 228.16 268.587 240.434C267.879 242.39 267.203 244.292 266.673 246.183C263.505 247.817 256.801 250.586 251.298 251.923Z" fill="white" fill-opacity="0.5"/>
<circle cx="199.682" cy="244.968" r="76.0071" fill="#BDE34F"/>
<path d="M183.214 283.91L149.964 250.385L162.026 238.423L183.313 259.886L237.526 206.118L249.489 218.179L183.214 283.91Z" fill="white"/>
</svg>
