<svg width="399" height="490" viewBox="0 0 399 490" fill="none" xmlns="http://www.w3.org/2000/svg">
<path d="M277.256 310.686C275.391 313.025 271.725 317.022 271.725 317.022C268.138 320.922 264.066 324.446 260.048 327.715C249.337 336.41 237.534 342.779 224.961 346.626C222.911 347.257 220.779 347.746 218.748 348.221L218.099 348.372L199.411 380.74C194.013 390.09 187.481 397.997 179.976 404.221C172.49 410.455 164.347 415.068 155.791 417.962C147.217 420.845 138.332 421.877 129.402 420.997C120.445 420.124 111.59 417.209 103.089 412.301C94.5877 407.393 87.6075 401.189 82.401 393.861C77.1843 386.55 73.5511 378.362 71.6501 369.526C69.7389 360.709 69.6622 351.35 71.4468 341.728C74.9352 322.869 86.2177 306.288 95.6597 289.934C104.161 275.21 112.496 260.367 120.997 245.643C125.475 237.887 129.953 230.131 134.431 222.375C135.599 220.351 136.211 217.79 137.214 215.647C141.125 207.372 146.851 200.05 153.619 193.927C155.308 195.26 156.991 196.685 158.657 198.221C153.837 202.674 143.78 216.524 142.627 222.903C137.254 226.895 133.414 232.248 130.87 236.655C131.184 234.448 131.589 232.246 132.092 230.076C121.653 248.482 112.472 265.965 105.078 281.328C108.231 290.266 112.628 298.632 118.398 306.525C126.226 317.182 136.326 326.095 148.744 333.264C165.763 343.09 184.863 347.812 204.626 346.397C218.172 345.405 231.482 341.578 243.597 335.198C249.779 331.913 255.631 327.983 261.087 323.562C267.057 318.698 272.535 313.144 277.54 306.91C280.551 303.155 283.413 299.171 286.074 294.927C286.954 293.525 287.826 292.094 288.674 290.625L344.954 193.147C351.304 182.148 355.75 170.959 358.328 159.598C358.837 157.337 359.311 155.055 359.684 152.787C361.883 139.081 361.491 125.767 358.525 112.854C355.559 99.9401 350.145 88.1446 342.32 77.4413C334.485 66.7559 324.36 57.8055 311.925 50.626C299.49 43.4465 286.687 39.1354 273.505 37.7106C260.333 36.268 247.421 37.4588 234.807 41.2576C222.192 45.0564 210.486 51.338 199.727 60.0768C188.957 68.8335 179.72 79.8842 171.995 93.2647L122.841 178.402C124.446 176.391 126.105 174.411 127.81 172.553C131.427 168.6 135.278 164.972 139.335 161.677C150.105 152.92 161.8 146.657 174.415 142.858C176.706 142.175 179.023 141.65 181.33 141.143L199.718 109.295C205.261 99.6935 211.751 91.7379 219.216 85.4198C226.681 79.1017 234.737 74.5581 243.385 71.7889C252.033 69.0197 260.877 68.0598 269.908 68.9269C278.939 69.7941 287.731 72.6969 296.302 77.6455C304.873 82.5941 311.783 88.7569 317.049 96.1441C322.316 103.531 325.833 111.676 327.637 120.599C329.441 129.522 329.503 138.824 327.834 148.489C326.165 158.153 322.615 167.71 317.175 177.132L297.278 211.596L295.788 214.175L264.608 268.181C263.172 272.128 261.449 276.005 259.277 279.767C257.105 283.528 254.599 286.977 251.909 290.177C249.894 292.572 247.762 294.804 245.513 296.873C244.736 297.571 243.951 298.241 243.139 298.918C242.422 298.982 241.678 299.054 240.805 299.147C239.593 299.259 238.234 299.382 236.91 299.525C238.461 293.877 238.554 286.861 237.186 279.05C241.074 274.87 250.329 259.53 251.549 253.929C256.947 252.652 263.208 250.081 266.604 248.459C266.977 249.678 267.543 250.888 268.175 252.065C267.804 254.979 267.173 257.29 266.418 260.341L266.066 261.762L266.8 260.49C277.14 242.338 286.428 224.749 294.18 208.565C294.413 208.079 293.492 206.186 293.264 205.648C286.032 187.023 272.999 171.307 256.55 160.329C254.638 159.058 252.694 157.841 250.71 156.695C243.14 152.324 235.063 148.831 226.615 146.509C218.149 144.177 208.784 143.117 199.962 143.349C196.917 143.431 193.899 143.67 190.881 144.03C185.066 144.732 179.134 145.798 173.488 147.506C160.874 151.304 149.167 157.586 138.408 166.325C132.236 171.336 126.596 177.131 121.426 183.651C117.443 188.684 113.706 193.858 110.5 199.411C107.666 204.319 104.823 209.245 101.989 214.153C95.7012 225.044 89.4134 235.934 83.1257 246.825C76.7139 257.931 70.302 269.036 63.8902 280.142C58.9469 288.704 53.9881 297.09 50.077 306.176C46.4575 314.595 42.8639 323.172 40.6011 332.04C36.8344 346.798 37.1119 362.745 40.5605 377.418C43.5532 390.204 49.0522 402.096 56.8697 412.771C64.6872 423.447 74.935 432.468 87.3352 439.627C99.7353 446.786 112.682 451.133 125.826 452.583C138.98 454.016 152.041 452.768 164.669 448.905C177.297 445.043 189.139 438.648 199.898 429.909C210.63 421.178 219.933 410.094 227.534 396.929L277.309 310.717L277.256 310.686ZM237.332 214.1C237.288 219.855 236.403 225.768 234.973 230.03C232.998 230.896 230.967 231.777 229.012 232.607C222.571 235.408 215.896 238.289 209.692 241.49C205.734 238.083 193.989 228.531 183.021 225.829C183.07 222.012 183.082 217.935 183.095 213.978C183.105 211.404 183.113 208.877 183.128 206.498C183.137 204.616 183.155 203.003 183.189 201.565C187.893 197.068 194.766 193.561 199.758 191.404C202.918 190.028 205.744 188.985 207.565 188.388C208.659 187.993 209.535 187.734 210.047 187.576C219.777 191.856 228.143 197.283 235.765 202.496C236.82 204.968 237.375 209.158 237.335 214.054L237.709 214.055L237.716 214.083L237.332 214.1ZM146.772 291.047C144.846 288.908 143.037 286.645 141.41 284.273C140.38 282.771 139.465 281.191 138.616 279.579C140.739 281.784 142.923 283.761 145.16 285.483C146.075 287.874 147.293 290.631 149.171 293.626C148.353 292.771 147.552 291.927 146.772 291.047ZM204.904 315.008C201.798 315.317 198.687 315.431 195.585 315.288C189.944 315.04 184.367 314.113 178.994 312.468C174.703 311.137 170.57 309.372 166.616 307.257C172.794 308.888 178.716 309.298 184.232 308.303C191.195 312.873 199.567 314.435 205.494 314.919C205.319 314.937 205.106 314.982 204.904 315.008ZM183.182 287.731C172.49 282.561 164.337 277.782 158.31 273.132C156.944 268.642 156.293 263.442 156.337 257.687C156.384 252.819 156.926 248.474 157.389 245.684C157.652 244.093 157.901 242.851 158.062 242.085C158.086 242.003 158.102 241.893 158.126 241.811C165.701 236.034 174.491 231.436 182.172 227.583C188.606 229.053 195.503 233.251 200.184 236.502C202.413 238.076 204.654 239.751 206.805 241.543C207.713 242.282 208.385 242.861 208.773 243.204C208.821 246.122 208.956 248.971 209.072 251.975C209.266 256.911 209.458 262.014 209.422 267.796C209.408 269.078 209.383 270.378 209.362 271.631C209.022 271.936 208.633 272.285 208.196 272.677C203.913 276.486 192.95 285.537 183.182 287.731ZM155.056 192.654C155.181 192.559 155.299 192.436 155.434 192.324C168.423 181.265 185.598 175.084 202.481 175.087C205.268 175.168 208.038 175.358 210.74 175.748C209.8 179.122 209.427 183.54 209.296 185.876C205.306 187.108 190.827 192.027 182.336 199.879C177.246 197.824 168.067 194.984 160.326 197.154C158.555 195.558 156.805 194.046 155.056 192.654ZM142.927 225.059C144.555 229.176 150.867 237.835 156.231 241.768C155.655 244.469 154.52 250.572 154.474 257.71C154.426 263.391 155.059 268.581 156.358 273.104C150.419 276.577 146.835 279.906 145.411 283.263C142.279 280.738 139.237 277.692 136.317 274.191C136.147 273.998 135.988 273.787 135.829 273.576C134.536 270.584 133.42 267.527 132.566 264.383C132.295 263.391 132.053 262.391 131.838 261.384C130.447 254.992 129.945 248.397 130.353 241.85C130.349 241.776 130.362 241.712 130.369 241.62C132.513 237.054 136.543 230.114 142.927 225.059ZM236.299 289.834C236.267 293.661 235.75 297.112 234.817 300.108C229.481 304.766 219.693 310.889 211.804 313.236C211.567 313.242 211.284 313.246 210.927 313.255C207.239 313.275 194.534 312.89 185.123 306.597C184.695 303.364 183.978 295.642 184.028 291.133C184.026 290.487 184.046 289.926 184.088 289.448C194.771 286.803 206.475 276.795 210.434 273.181C217.788 277.236 226.618 279.588 235.448 279.789C236.029 283.325 236.312 286.689 236.299 289.834ZM251.254 252.087C248.912 245.72 239.807 233.704 236.795 230.484C238.245 226.067 239.16 219.98 239.195 214.077C239.225 209.199 238.712 205.057 237.676 202.309C241.387 200.87 247.476 199.37 252.773 199.037C254.556 201.141 256.176 203.365 257.691 205.649C264.138 215.94 267.925 228.324 268.543 240.598C267.835 242.554 267.158 244.456 266.628 246.347C263.46 247.981 256.756 250.75 251.254 252.087Z" fill="white" fill-opacity="0.5"/>
<circle cx="199.638" cy="245.132" r="76.0071" fill="#E05263"/>
<path d="M183.169 284.074L149.92 250.549L161.981 238.587L183.268 260.05L237.482 206.282L249.444 218.343L183.169 284.074Z" fill="white"/>
</svg>
