<svg width="96" height="96" viewBox="0 0 96 96" fill="none" xmlns="http://www.w3.org/2000/svg">
<path d="M48 96C38.5065 96 29.2262 93.1849 21.3326 87.9106C13.4391 82.6363 7.28681 75.1397 3.6538 66.3688C0.0207977 57.598 -0.929762 47.9468 0.922328 38.6357C2.77442 29.3246 7.34598 20.7718 14.0589 14.0589C20.7718 7.34598 29.3246 2.77442 38.6357 0.922328C47.9468 -0.929762 57.598 0.0207977 66.3688 3.6538C75.1397 7.28681 82.6363 13.4391 87.9106 21.3326C93.1849 29.2262 96 38.5065 96 48C95.9868 60.7264 90.9254 72.9277 81.9265 81.9265C72.9277 90.9254 60.7264 95.9868 48 96ZM48 6.00002C39.6932 6.00002 31.5729 8.46328 24.6661 13.0783C17.7592 17.6933 12.376 24.2528 9.19708 31.9273C6.0182 39.6018 5.18646 48.0466 6.80704 56.1938C8.42762 64.341 12.4277 71.8247 18.3015 77.6985C24.1753 83.5723 31.659 87.5724 39.8062 89.193C47.9534 90.8136 56.3982 89.9818 64.0727 86.803C71.7472 83.6241 78.3067 78.2408 82.9217 71.334C87.5368 64.4271 90 56.3068 90 48C90 36.8609 85.575 26.1781 77.6985 18.3015C69.822 10.425 59.1391 6.00002 48 6.00002Z" fill="#6FB95D"/>
<path d="M42.06 61.8003C41.2647 61.7996 40.5021 61.483 39.94 60.9203L30.05 51.0003C29.5201 50.4316 29.2316 49.6794 29.2453 48.9022C29.2591 48.125 29.5739 47.3834 30.1236 46.8338C30.6732 46.2841 31.4147 45.9693 32.1919 45.9556C32.9692 45.9419 33.7213 46.2304 34.29 46.7603L42.06 54.5303L61.71 34.9203C62.2723 34.3514 63.0375 34.0292 63.8374 34.0245C64.6372 34.0198 65.4062 34.333 65.975 34.8953C66.5439 35.4575 66.8662 36.2228 66.8709 37.0226C66.8755 37.8224 66.5623 38.5914 66 39.1603L44.19 60.9203C43.9105 61.2001 43.5785 61.4219 43.2129 61.573C42.8474 61.724 42.4556 61.8012 42.06 61.8003Z" fill="#6FB95D"/>
</svg>
