<svg width="300" height="294" viewBox="0 0 300 294" fill="none" xmlns="http://www.w3.org/2000/svg">
<path fill-rule="evenodd" clip-rule="evenodd" d="M5.74528 35.5235L0.205078 41.0637L97.141 137.999L102.681 132.459L5.74528 35.5235ZM5.74518 240.476L0.205078 246.016L47.3548 293.167L149.831 190.691L252.307 293.167L299.457 246.016L293.916 240.476L252.307 282.087L149.831 179.611L47.3547 282.087L5.74518 240.476ZM202.521 137.999L299.457 41.0637L293.916 35.5234L196.981 132.459L202.521 137.999Z" fill="#E05263"/>
<path fill-rule="evenodd" clip-rule="evenodd" d="M179.746 133.134L282.222 235.61L252.307 265.526L149.831 163.051L47.3549 265.526L17.4392 235.61L119.916 133.134L17.4394 30.6576L47.3547 0.742188L149.831 103.218L252.307 0.742194L282.222 30.6576L179.746 133.134Z" fill="white"/>
</svg>
