<svg width="300" height="293" viewBox="0 0 300 293" fill="none" xmlns="http://www.w3.org/2000/svg">
<path fill-rule="evenodd" clip-rule="evenodd" d="M5.7902 35.3594L0.25 40.8996L97.1859 137.835L102.726 132.295L5.7902 35.3594ZM5.79011 240.312L0.25 245.852L47.3997 293.003L149.876 190.527L252.352 293.003L299.501 245.852L293.961 240.312L252.352 281.923L149.876 179.447L47.3996 281.923L5.79011 240.312ZM202.566 137.835L299.501 40.8996L293.961 35.3594L197.025 132.295L202.566 137.835Z" fill="#BDE34F"/>
<path fill-rule="evenodd" clip-rule="evenodd" d="M179.791 132.969L282.268 235.446L252.352 265.362L149.876 162.887L47.4 265.362L17.4844 235.446L119.961 132.969L17.4845 30.4935L47.3999 0.578125L149.876 103.054L252.352 0.578131L282.267 30.4935L179.791 132.969Z" fill="white"/>
</svg>
