<svg width="41" height="37" viewBox="0 0 41 37" fill="none" xmlns="http://www.w3.org/2000/svg">
<g clip-path="url(#clip0_577_15137)">
<path d="M8.10989 29.2628C8.37392 29.2628 8.63794 29.2628 8.90197 29.3937L12.9944 18.3974C11.9383 17.7428 11.1462 16.5647 11.1462 15.2556C11.1462 13.161 12.8624 11.5901 14.8426 11.5901C16.9548 11.5901 18.5389 13.2919 18.5389 15.2556C18.5389 15.7792 18.4069 16.1719 18.2749 16.5647L24.8756 21.6701C25.4036 21.1465 26.0637 20.8847 26.8558 20.7537V2.42648C26.8558 1.3792 26.0637 0.59375 25.0076 0.59375H2.30131C1.2452 0.59375 0.453125 1.3792 0.453125 2.42648V30.9647C0.453125 32.0119 1.2452 32.7974 2.30131 32.7974H4.41352C4.54553 30.8337 6.12969 29.2628 8.10989 29.2628Z" fill="#BDE34F"/>
<path d="M23.8184 24.2896C23.8184 23.6351 23.9504 23.1115 24.2145 22.5878L17.6138 17.6133C16.9537 18.3987 16.0296 18.7915 14.8415 18.7915C14.5775 18.7915 14.4455 18.7915 14.1815 18.7915L9.95703 29.9187C11.0131 30.5733 11.6732 31.6206 11.6732 32.9296H25.0065C26.0626 32.9296 26.8547 32.1442 26.8547 31.0969V27.9551C25.2706 27.6933 23.8184 26.1224 23.8184 24.2896Z" fill="#BDE34F"/>
<path d="M4.41406 32.9278C4.41406 35.0223 6.13023 36.5932 8.11043 36.5932C10.0906 36.5932 11.8068 34.8914 11.8068 32.9278C11.8068 32.9278 11.8068 32.9278 11.8068 32.7969L4.41406 32.9278Z" fill="#BDE34F"/>
<path d="M36.6244 7.40234C34.5122 7.40234 32.9281 9.10416 32.9281 11.0678C32.9281 12.1151 33.4561 13.0314 34.1162 13.8169L29.2317 21.1478C28.7037 20.886 28.0436 20.6242 27.3835 20.6242C27.2515 20.6242 26.9875 20.6242 26.8555 20.6242V27.8242C26.9875 27.8242 27.1195 27.8242 27.3835 27.8242C29.4957 27.8242 31.0799 26.1223 31.0799 24.1587C31.0799 23.2423 30.6839 22.4569 30.1558 21.8023L35.0403 14.3405C35.4363 14.4714 35.9644 14.6023 36.4924 14.6023C38.6046 14.6023 40.1888 12.9005 40.1888 10.9369C40.4528 9.10416 38.7367 7.40234 36.6244 7.40234Z" fill="#BDE34F"/>
<path d="M25.0081 21.5409L18.4075 16.4355C18.5395 16.0428 18.6715 15.5191 18.6715 15.1264C18.6715 13.0318 16.9553 11.4609 14.9751 11.4609C12.8629 11.4609 11.2787 13.1628 11.2787 15.1264C11.2787 16.4355 12.0708 17.6137 13.1269 18.2682L8.90251 29.3955C8.63848 29.3955 8.37446 29.2646 8.11043 29.2646C6.13023 29.2646 4.41406 30.8355 4.41406 32.93H11.8068C11.8068 31.6209 11.1467 30.5737 10.0906 29.9191L14.3151 18.7918C14.5791 18.7918 14.7111 18.7918 14.9751 18.7918C16.0312 18.7918 17.0873 18.2682 17.7474 17.6137L24.3481 22.5882C24.084 23.1118 23.952 23.6355 23.952 24.29C23.952 26.1228 25.4042 27.6937 27.1203 27.9555V20.7555C26.3283 20.7555 25.5362 21.1482 25.0081 21.5409Z" fill="#E48670"/>
</g>
<defs>
<clipPath id="clip0_577_15137">
<rect width="40" height="36" fill="white" transform="translate(0.453125 0.59375)"/>
</clipPath>
</defs>
</svg>
