<svg width="36" height="38" viewBox="0 0 36 38" fill="none" xmlns="http://www.w3.org/2000/svg">
<g clip-path="url(#clip0_6087_17520)">
<path d="M28.1503 16.9421L22.5007 15.1406L24.2921 24.1481C24.5677 25.3953 23.3275 26.5039 22.0874 26.0882L13.4062 23.3167L14.5086 29.1369C16.0244 37.1743 25.8078 40.5002 31.8708 35.0957C38.0716 29.6912 35.8669 19.5751 28.1503 16.9421Z" fill="#BDE34F"/>
<path d="M13.8207 12.3696L22.5018 15.1411L21.3994 9.32087C19.8836 1.28342 10.238 -2.04242 4.03719 3.36207C-2.1636 8.90514 0.0411259 19.0212 7.75766 21.5156L13.4073 23.3171L11.6159 14.3096C11.3403 13.0624 12.5805 11.9538 13.8207 12.3696Z" fill="#BDE34F"/>
<path d="M24.2941 24.1492L22.5028 15.1417L13.8217 12.3702C12.5815 11.9544 11.3413 13.0631 11.6169 14.3102L13.4083 23.3177L22.0894 26.0893C23.3295 26.505 24.5697 25.535 24.2941 24.1492Z" fill="#E05263"/>
</g>
<defs>
<clipPath id="clip0_6087_17520">
<rect width="35" height="37" fill="white" transform="translate(0.453125 0.734375)"/>
</clipPath>
</defs>
</svg>
