<svg width="64" height="52" viewBox="0 0 64 52" fill="none" xmlns="http://www.w3.org/2000/svg">
<g clip-path="url(#clip0_6087_15522)">
<path d="M38.3516 44.9313C38.2516 45.6313 37.9516 46.3313 37.6516 46.9313C37.2516 47.5313 36.8516 48.1313 36.2516 48.6313C35.6516 49.1313 35.0516 49.5313 34.3516 49.7313C33.6516 49.9313 32.9516 50.1313 32.1516 50.1313C31.3516 50.1313 30.6516 50.0313 29.9516 49.7313C29.2516 49.5313 28.6516 49.1313 28.0516 48.6313C27.4516 48.1313 27.0516 47.6313 26.6516 46.9313C26.2516 46.2313 26.0516 45.6313 25.9516 44.9313C25.8516 44.5313 26.1516 44.2313 26.4516 44.1313H26.5516H37.6516C38.0516 44.1313 38.3516 44.4312 38.3516 44.8312C38.3516 44.8312 38.3516 44.8313 38.3516 44.9313ZM35.6516 8.53125C36.1516 8.63125 36.7516 8.83125 37.2516 9.03125C38.0516 9.43125 38.7516 9.73125 39.4516 10.1312C39.4516 10.1312 39.5516 10.1312 39.5516 10.2312C40.2516 10.6312 40.8516 11.1312 41.4516 11.5312C42.0516 12.0312 42.6516 12.6312 43.1516 13.2312C43.6516 13.8312 44.1516 14.5312 44.5516 15.2312C44.9516 15.9312 45.2516 16.6313 45.5516 17.4313C45.8516 18.2313 46.0516 19.0313 46.2516 19.8313C46.3516 20.6313 46.4516 21.4312 46.4516 22.3312C46.4516 24.0312 46.4516 24.9312 46.4516 25.0312C46.4516 25.9312 46.4516 26.7312 46.4516 27.5312C46.4516 28.2312 46.5516 29.0313 46.5516 29.7313C46.6516 30.4313 46.7516 31.2312 46.9516 31.8312C47.1516 32.5312 47.3516 33.1312 47.6516 33.8312C47.9516 34.4312 48.3516 35.1313 48.7516 35.7313C49.1516 36.3313 49.7516 36.9312 50.3516 37.5312C51.0516 38.1313 51.7516 38.7312 52.6516 39.3312C53.1516 39.6312 53.2516 40.3312 52.9516 40.8312C52.7516 41.1312 52.3516 41.3312 52.0516 41.3312H42.1516H32.2516H22.3516H12.4516C11.8516 41.3312 11.3516 40.8313 11.3516 40.2313C11.3516 39.8313 11.5516 39.5312 11.8516 39.3312C12.7516 38.7312 13.5516 38.1313 14.1516 37.5312C14.7516 36.9312 15.3516 36.3313 15.7516 35.7313C15.7516 35.7313 15.7516 35.7313 15.7516 35.6313C16.1516 35.0313 16.5516 34.4312 16.8516 33.8312C17.1516 33.2312 17.3516 32.5312 17.5516 31.8312C17.7516 31.1312 17.8516 30.4313 17.9516 29.7313C18.0516 29.0313 18.0516 28.2313 18.0516 27.4313V22.2313C18.0516 21.4313 18.1516 20.5312 18.2516 19.7312C18.4516 18.9312 18.6516 18.1313 18.9516 17.3313C19.2516 16.5313 19.5516 15.8312 19.9516 15.1312C20.3516 14.4312 20.8516 13.8312 21.3516 13.1312C21.8516 12.5312 22.4516 11.9312 23.0516 11.4312C23.6516 10.9312 24.3516 10.4313 24.9516 10.0312C25.6516 9.63125 26.3516 9.23125 27.1516 8.93125C27.6516 8.73125 28.2516 8.53125 28.7516 8.43125C28.9516 7.73125 29.2516 7.23125 29.7516 6.83125C30.3516 6.23125 31.2516 6.03125 32.2516 6.03125C33.2516 6.03125 34.1516 6.33125 34.7516 6.93125C35.1516 7.43125 35.4516 7.93125 35.6516 8.53125Z" stroke="#BDE34F" stroke-width="2" stroke-miterlimit="10"/>
<path d="M1.45312 17.1344C1.45312 17.1344 1.45312 5.73438 14.7531 1.73438" stroke="#E05263" stroke-width="2" stroke-miterlimit="10"/>
<path d="M62.8547 17.1328C62.8547 17.1328 62.8547 5.73281 49.5547 1.63281" stroke="#E05263" stroke-width="2" stroke-miterlimit="10"/>
</g>
<defs>
<clipPath id="clip0_6087_15522">
<rect width="63.4" height="50.3" fill="white" transform="translate(0.453125 0.734375)"/>
</clipPath>
</defs>
</svg>
