<svg width="43" height="43" viewBox="0 0 43 43" fill="none" xmlns="http://www.w3.org/2000/svg">
<g clip-path="url(#clip0_577_15105)">
<path d="M34.8504 36.7282C39.1148 36.7282 42.5718 33.2616 42.5718 28.9852C42.5718 24.7089 39.1148 21.2422 34.8504 21.2422C30.5859 21.2422 27.1289 24.7089 27.1289 28.9852C27.1289 33.2616 30.5859 36.7282 34.8504 36.7282Z" fill="#BDE34F"/>
<path d="M24.4364 33.0928L19.9907 19.3666C18.5868 22.0649 15.0771 23.1208 12.3863 21.361C10.3974 20.1878 9.46148 17.8414 10.0464 15.6124L10.6314 12.9141H10.5144L4.43084 17.0202L0.453125 20.8917L20.5757 40.4839C20.5757 40.4839 25.0214 43.0649 27.0102 42.361C28.9991 41.6571 28.9991 39.1934 28.9991 39.1934C28.9991 39.1934 28.7651 37.0817 24.4364 33.0928Z" fill="#BDE34F"/>
<path d="M19.9921 19.3647C20.1091 19.2474 20.1091 19.1301 20.2261 18.8954L27.7136 2.23621L13.6746 0.59375L10.6328 12.9122L19.9921 19.3647Z" fill="#BDE34F"/>
<path d="M12.3869 21.361C15.0777 23.0034 18.4705 22.0649 19.9914 19.3666L10.749 12.9141L10.1641 15.6124C9.46211 17.8414 10.515 20.1878 12.3869 21.361Z" fill="#E48670"/>
</g>
<defs>
<clipPath id="clip0_577_15105">
<rect width="42" height="42" fill="white" transform="translate(0.453125 0.59375)"/>
</clipPath>
</defs>
</svg>
