<svg width="31" height="37" viewBox="0 0 31 37" fill="none" xmlns="http://www.w3.org/2000/svg">
<g clip-path="url(#clip0_6087_17489)">
<path d="M15.0781 22.7642V6.10938C6.95312 6.3656 0.453125 13.0275 0.453125 21.483C0.453125 29.9386 7.20312 36.8567 15.4531 36.8567C23.7031 36.8567 30.4531 29.9386 30.4531 21.483C30.4531 17.6396 29.0781 14.1805 26.8281 11.4902L15.0781 22.7642Z" fill="#BDE34F"/>
<path d="M26.8281 11.4959L30.5781 7.90875C26.7031 3.55288 21.2031 0.734375 15.0781 0.734375V6.11516C15.2031 6.11516 15.3281 6.11516 15.4531 6.11516C19.9531 6.11516 24.0781 8.16498 26.8281 11.4959Z" fill="#BDE34F"/>
<path d="M26.8281 11.4902C24.0781 8.1592 19.9531 6.10938 15.4531 6.10938C15.3281 6.10938 15.2031 6.10938 15.0781 6.10938V22.7642L26.8281 11.4902Z" fill="#E05263"/>
</g>
<defs>
<clipPath id="clip0_6087_17489">
<rect width="30" height="36" fill="white" transform="translate(0.453125 0.734375)"/>
</clipPath>
</defs>
</svg>
