<svg width="79" height="53" viewBox="0 0 79 53" fill="none" xmlns="http://www.w3.org/2000/svg">
<path d="M33.8531 22.8344C34.7531 22.1344 35.9531 21.7344 37.1531 21.7344C40.2531 21.7344 42.7531 24.2344 42.7531 27.3344C42.7531 30.4344 40.2531 32.9344 37.1531 32.9344C34.0531 32.9344 31.4531 30.5344 31.4531 27.4344C31.4531 25.6344 32.2531 24.0344 33.5531 23.0344L33.8531 22.8344Z" stroke="#BDE34F" stroke-width="2" stroke-miterlimit="10"/>
<path d="M35.8523 50.1406H43.9523V43.0406C43.9523 39.2406 40.8523 36.1406 37.0523 36.1406C33.2523 36.1406 30.1523 39.2406 30.1523 43.0406V50.1406H35.1523C35.2523 50.1406 35.8523 50.1406 35.8523 50.1406Z" stroke="#BDE34F" stroke-width="2" stroke-miterlimit="10"/>
<path d="M18.4516 24.9375C21.5516 24.9375 24.0516 27.4375 24.0516 30.5375C24.0516 33.6375 21.5516 36.1375 18.4516 36.1375C16.1516 36.1375 14.2516 34.7375 13.3516 32.8375" stroke="#BDE34F" stroke-width="2" stroke-miterlimit="10"/>
<path d="M18.1547 50.1344H25.3547V46.1344C25.3547 42.3344 22.2547 39.2344 18.4547 39.2344C14.6547 39.2344 11.5547 42.3344 11.5547 46.1344V50.1344H17.4547C17.5547 50.1344 18.1547 50.1344 18.1547 50.1344Z" stroke="#BDE34F" stroke-width="2" stroke-miterlimit="10"/>
<path d="M59.7523 33.9375C58.7523 35.2375 57.1523 36.1375 55.2523 36.1375C52.1523 36.1375 49.6523 33.6375 49.6523 30.5375C49.6523 27.4375 52.1523 24.9375 55.2523 24.9375" stroke="#BDE34F" stroke-width="2" stroke-miterlimit="10"/>
<path d="M54.9531 50.1344H62.2531V46.1344C62.2531 42.3344 59.1531 39.2344 55.3531 39.2344C51.5531 39.2344 48.4531 42.3344 48.4531 46.1344V50.1344H54.4531H54.9531Z" stroke="#BDE34F" stroke-width="2" stroke-miterlimit="10"/>
<path d="M69.1516 32.0375H56.8516V24.7375C56.8516 20.7375 60.1516 17.4375 64.1516 17.4375H69.0516C73.0516 17.4375 76.3516 20.7375 76.3516 24.7375C76.4516 28.7375 73.1516 32.0375 69.1516 32.0375Z" stroke="#E05263" stroke-width="2" stroke-miterlimit="10"/>
<path d="M7.85313 30.9406H16.1531V26.0406C16.1531 23.3406 13.9531 21.1406 11.2531 21.1406H7.85313C5.15313 21.1406 2.95312 23.3406 2.95312 26.0406C2.95312 28.7406 5.15313 30.9406 7.85313 30.9406Z" stroke="#E05263" stroke-width="2" stroke-miterlimit="10"/>
<path d="M40.9531 14.9359L37.0531 18.8359L33.1531 14.9359H29.2531C26.0531 14.9359 23.4531 12.3359 23.4531 9.13594C23.4531 5.93594 26.0531 3.33594 29.2531 3.33594H44.9531C48.1531 3.33594 50.7531 5.93594 50.7531 9.13594C50.7531 12.3359 48.1531 14.9359 44.9531 14.9359H40.9531Z" stroke="#E05263" stroke-width="2" stroke-miterlimit="10"/>
</svg>
