<svg width="43" height="43" viewBox="0 0 43 43" fill="none" xmlns="http://www.w3.org/2000/svg">
<g clip-path="url(#clip0_6087_17472)">
<path d="M34.8504 36.8688C39.1148 36.8688 42.5718 33.4022 42.5718 29.1258C42.5718 24.8495 39.1148 21.3828 34.8504 21.3828C30.5859 21.3828 27.1289 24.8495 27.1289 29.1258C27.1289 33.4022 30.5859 36.8688 34.8504 36.8688Z" fill="#E05263"/>
<path d="M24.4364 33.2335L19.9907 19.5072C18.5868 22.2055 15.0771 23.2614 12.3863 21.5016C10.3974 20.3284 9.46148 17.9821 10.0464 15.753L10.6314 13.0547H10.5144L4.43084 17.1608L0.453125 21.0323L20.5757 40.6245C20.5757 40.6245 25.0214 43.2055 27.0102 42.5016C28.9991 41.7977 28.9991 39.334 28.9991 39.334C28.9991 39.334 28.7651 37.2223 24.4364 33.2335Z" fill="#BDE34F"/>
<path d="M19.9921 19.5053C20.1091 19.388 20.1091 19.2707 20.2261 19.0361L27.7136 2.37683L13.6746 0.734375L10.6328 13.0528L19.9921 19.5053Z" fill="#BDE34F"/>
<path d="M12.3869 21.5016C15.0777 23.1441 18.4705 22.2055 19.9914 19.5072L10.749 13.0547L10.1641 15.753C9.46211 17.9821 10.515 20.3284 12.3869 21.5016Z" fill="#E48670"/>
</g>
<defs>
<clipPath id="clip0_6087_17472">
<rect width="42" height="42" fill="white" transform="translate(0.453125 0.734375)"/>
</clipPath>
</defs>
</svg>
