<svg width="76" height="46" viewBox="0 0 76 46" fill="none" xmlns="http://www.w3.org/2000/svg">
<g clip-path="url(#clip0_6087_15532)">
<path d="M16.0508 9.93594L23.0508 10.0359C23.0508 10.0359 29.3508 5.83594 32.6508 7.63594" stroke="#E05263" stroke-width="2" stroke-miterlimit="10"/>
<path d="M54.3523 32.7359L55.2523 34.3359C55.2523 34.3359 56.1523 37.2359 54.2523 38.8359C52.3523 40.4359 49.1523 39.5359 49.1523 39.5359C47.0523 42.9359 42.2523 41.3359 42.2523 41.3359C39.8523 45.3359 34.3523 43.2359 34.3523 43.2359C28.8523 45.7359 26.3523 41.8359 26.3523 41.8359L20.4523 31.8359H16.1523" stroke="#E05263" stroke-width="2" stroke-miterlimit="10"/>
<path d="M59.4531 33.3365H56.6531C54.5531 33.4365 54.1531 32.1365 54.1531 32.1365C54.1531 32.1365 48.3531 21.5365 45.6531 16.9365C42.9531 12.3365 41.4531 12.6365 41.4531 12.6365C41.4531 12.6365 40.3531 12.4365 38.0531 14.7365C35.6531 17.0365 32.5531 18.5365 32.5531 18.5365C27.0531 20.1365 26.9531 15.0365 26.9531 15.0365L33.1531 7.53653C33.1531 7.53653 36.4531 2.93653 38.9531 2.43653C41.4531 1.83653 43.5531 1.43653 47.0531 2.13653C50.4531 2.93653 59.6531 9.33653 59.6531 9.33653" stroke="#BDE34F" stroke-width="2" stroke-miterlimit="10"/>
<path d="M68.4523 35.9313H62.5523C60.9523 35.9313 59.6523 34.6313 59.6523 33.0312V10.4312C59.6523 8.83125 60.9523 7.53125 62.5523 7.53125H71.4523C73.2523 7.53125 74.5523 9.03125 74.3523 10.8313L71.4523 33.4313C71.1523 34.8313 69.9523 35.9313 68.4523 35.9313Z" stroke="#BDE34F" stroke-width="2" stroke-miterlimit="10"/>
<path d="M7.25267 35.9313H13.1527C14.7527 35.9313 16.0527 34.6313 16.0527 33.0312V10.4312C16.0527 8.83125 14.7527 7.53125 13.1527 7.53125H4.35267C2.65267 7.53125 1.25267 9.03125 1.45267 10.7312L4.45267 33.3312C4.65267 34.8312 5.85267 35.9313 7.25267 35.9313Z" stroke="#E05263" stroke-width="2" stroke-miterlimit="10"/>
<path d="M34.5516 42.9406L30.8516 35.6406" stroke="#E05263" stroke-width="2" stroke-miterlimit="10" stroke-linecap="round"/>
<path d="M42.1531 41.0406L37.4531 33.1406" stroke="#E05263" stroke-width="2" stroke-miterlimit="10" stroke-linecap="round"/>
<path d="M49.1508 39.1406L44.5508 30.6406" stroke="#E05263" stroke-width="2" stroke-miterlimit="10" stroke-linecap="round"/>
</g>
<defs>
<clipPath id="clip0_6087_15532">
<rect width="74.9" height="44.4" fill="white" transform="translate(0.453125 0.734375)"/>
</clipPath>
</defs>
</svg>
