<svg width="41" height="37" viewBox="0 0 41 37" fill="none" xmlns="http://www.w3.org/2000/svg">
<g clip-path="url(#clip0_6087_17504)">
<path d="M8.10989 29.4035C8.37392 29.4035 8.63794 29.4035 8.90197 29.5344L12.9944 18.538C11.9383 17.8835 11.1462 16.7053 11.1462 15.3962C11.1462 13.3016 12.8624 11.7307 14.8426 11.7307C16.9548 11.7307 18.5389 13.4326 18.5389 15.3962C18.5389 15.9198 18.4069 16.3126 18.2749 16.7053L24.8756 21.8107C25.4036 21.2871 26.0637 21.0253 26.8558 20.8944V2.5671C26.8558 1.51983 26.0637 0.734375 25.0076 0.734375H2.30131C1.2452 0.734375 0.453125 1.51983 0.453125 2.5671V31.1053C0.453125 32.1526 1.2452 32.938 2.30131 32.938H4.41352C4.54553 30.9744 6.12969 29.4035 8.10989 29.4035Z" fill="#BDE34F"/>
<path d="M23.8184 24.4264C23.8184 23.7718 23.9504 23.2482 24.2145 22.7245L17.6138 17.75C16.9537 18.5355 16.0296 18.9282 14.8415 18.9282C14.5775 18.9282 14.4455 18.9282 14.1815 18.9282L9.95703 30.0555C11.0131 30.71 11.6732 31.7573 11.6732 33.0664H25.0065C26.0626 33.0664 26.8547 32.2809 26.8547 31.2336V28.0918C25.2706 27.83 23.8184 26.2591 23.8184 24.4264Z" fill="#BDE34F"/>
<path d="M4.41406 33.0684C4.41406 35.163 6.13023 36.7339 8.11043 36.7339C10.0906 36.7339 11.8068 35.032 11.8068 33.0684C11.8068 33.0684 11.8068 33.0684 11.8068 32.9375L4.41406 33.0684Z" fill="#BDE34F"/>
<path d="M36.6244 7.54688C34.5122 7.54688 32.9281 9.24869 32.9281 11.2123C32.9281 12.2596 33.4561 13.176 34.1162 13.9614L29.2317 21.2923C28.7037 21.0305 28.0436 20.7687 27.3835 20.7687C27.2515 20.7687 26.9875 20.7687 26.8555 20.7687V27.9687C26.9875 27.9687 27.1195 27.9687 27.3835 27.9687C29.4957 27.9687 31.0799 26.2669 31.0799 24.3032C31.0799 23.3869 30.6839 22.6014 30.1558 21.9469L35.0403 14.4851C35.4363 14.616 35.9644 14.7469 36.4924 14.7469C38.6046 14.7469 40.1888 13.0451 40.1888 11.0814C40.4528 9.24869 38.7367 7.54688 36.6244 7.54688Z" fill="#BDE34F"/>
<path d="M25.0081 21.6816L18.4075 16.5761C18.5395 16.1834 18.6715 15.6597 18.6715 15.267C18.6715 13.1725 16.9553 11.6016 14.9751 11.6016C12.8629 11.6016 11.2787 13.3034 11.2787 15.267C11.2787 16.5761 12.0708 17.7543 13.1269 18.4088L8.90251 29.5361C8.63848 29.5361 8.37446 29.4052 8.11043 29.4052C6.13023 29.4052 4.41406 30.9761 4.41406 33.0707H11.8068C11.8068 31.7616 11.1467 30.7143 10.0906 30.0597L14.3151 18.9325C14.5791 18.9325 14.7111 18.9325 14.9751 18.9325C16.0312 18.9325 17.0873 18.4088 17.7474 17.7543L24.3481 22.7288C24.084 23.2525 23.952 23.7761 23.952 24.4307C23.952 26.2634 25.4042 27.8343 27.1203 28.0961V20.8961C26.3283 20.8961 25.5362 21.2888 25.0081 21.6816Z" fill="#E05263"/>
</g>
<defs>
<clipPath id="clip0_6087_17504">
<rect width="40" height="36" fill="white" transform="translate(0.453125 0.734375)"/>
</clipPath>
</defs>
</svg>
