<svg width="52" height="56" viewBox="0 0 52 56" fill="none" xmlns="http://www.w3.org/2000/svg">
<path d="M41.0663 27.691C41.9009 27.0425 43.0136 26.6719 44.1263 26.6719C47.0009 26.6719 49.319 28.9881 49.319 31.8601C49.319 34.7322 47.0009 37.0483 44.1263 37.0483C41.2518 37.0483 38.9336 34.7322 38.9336 31.8601C38.9336 30.1925 39.6754 28.7101 40.8809 27.7836L41.0663 27.691Z" stroke="#BDE34F" stroke-width="2" stroke-miterlimit="10"/>
<path d="M43.012 54.83H50.5229V48.252C50.5229 44.7314 47.6484 41.8594 44.1247 41.8594C40.6011 41.8594 37.7266 44.7314 37.7266 48.252V54.83H42.3629C42.3629 54.83 42.9193 54.83 43.012 54.83Z" stroke="#BDE34F" stroke-width="2" stroke-miterlimit="10"/>
<path d="M22.8905 27.691C23.7251 27.0425 24.8378 26.6719 25.9505 26.6719C28.8251 26.6719 31.1433 28.9881 31.1433 31.8601C31.1433 34.7322 28.8251 37.0483 25.9505 37.0483C23.076 37.0483 20.7578 34.7322 20.7578 31.8601C20.7578 30.1925 21.4996 28.7101 22.7051 27.7836L22.8905 27.691Z" stroke="#BDE34F" stroke-width="2" stroke-miterlimit="10"/>
<path d="M24.8401 54.83H32.3511V48.252C32.3511 44.7314 29.4765 41.8594 25.9529 41.8594C22.4292 41.8594 19.5547 44.7314 19.5547 48.252V54.83H24.1911H24.8401Z" stroke="#BDE34F" stroke-width="2" stroke-miterlimit="10"/>
<path d="M4.71866 27.691C5.55321 27.0425 6.66594 26.6719 7.77867 26.6719C10.6532 26.6719 12.9714 28.9881 12.9714 31.8601C12.9714 34.7322 10.6532 37.0483 7.77867 37.0483C4.90412 37.0483 2.58594 34.7322 2.58594 31.8601C2.58594 30.1925 3.32776 28.7101 4.53321 27.7836L4.71866 27.691Z" stroke="#BDE34F" stroke-width="2" stroke-miterlimit="10"/>
<path d="M6.66436 54.83H14.1753V48.252C14.1753 44.7314 11.3007 41.8594 7.77709 41.8594C4.25345 41.8594 1.37891 44.7314 1.37891 48.252V54.83H6.01527H6.66436Z" stroke="#BDE34F" stroke-width="2" stroke-miterlimit="10"/>
<path d="M29.4773 12.4971L25.8609 16.1103L22.2445 12.4971H18.6282C15.6609 12.4971 13.25 10.0882 13.25 7.12353C13.25 4.15882 15.6609 1.75 18.6282 1.75H33.1864C36.1536 1.75 38.5645 4.15882 38.5645 7.12353C38.5645 10.0882 36.1536 12.4971 33.1864 12.4971H29.4773Z" stroke="#E05263" stroke-width="2" stroke-miterlimit="10"/>
<path d="M0.636719 21.1094H51.1731" stroke="#E05263" stroke-width="2" stroke-miterlimit="10"/>
</svg>
