<svg width="31" height="37" viewBox="0 0 31 37" fill="none" xmlns="http://www.w3.org/2000/svg">
<g clip-path="url(#clip0_577_15122)">
<path d="M15.0781 22.6275V5.97266C6.95312 6.22888 0.453125 12.8908 0.453125 21.3463C0.453125 29.8018 7.20312 36.72 15.4531 36.72C23.7031 36.72 30.4531 29.8018 30.4531 21.3463C30.4531 17.5029 29.0781 14.0438 26.8281 11.3534L15.0781 22.6275Z" fill="#BDE34F"/>
<path d="M26.8281 11.3553L30.5781 7.76813C26.7031 3.41226 21.2031 0.59375 15.0781 0.59375V5.97453C15.2031 5.97453 15.3281 5.97453 15.4531 5.97453C19.9531 5.97453 24.0781 8.02435 26.8281 11.3553Z" fill="#BDE34F"/>
<path d="M26.8281 11.3534C24.0781 8.02248 19.9531 5.97266 15.4531 5.97266C15.3281 5.97266 15.2031 5.97266 15.0781 5.97266V22.6275L26.8281 11.3534Z" fill="#E48670"/>
</g>
<defs>
<clipPath id="clip0_577_15122">
<rect width="30" height="36" fill="white" transform="translate(0.453125 0.59375)"/>
</clipPath>
</defs>
</svg>
