<svg width="60" height="43" viewBox="0 0 60 43" fill="none" xmlns="http://www.w3.org/2000/svg">
<g clip-path="url(#clip0_6087_17923)">
<path d="M5.05391 12.3344C5.95391 11.6344 7.15391 11.2344 8.35391 11.2344C11.4539 11.2344 13.9539 13.7344 13.9539 16.8344C13.9539 19.9344 11.4539 22.4344 8.35391 22.4344C5.25391 22.4344 2.75391 19.9344 2.75391 16.8344C2.75391 15.0344 3.55391 13.4344 4.85391 12.4344L5.05391 12.3344Z" stroke="#BDE34F" stroke-width="2" stroke-miterlimit="10"/>
<path d="M7.15312 41.6328H15.2531V34.5328C15.2531 30.7328 12.1531 27.6328 8.35313 27.6328C4.55313 27.6328 1.45312 30.7328 1.45312 34.5328V41.6328H6.45312C6.45312 41.6328 7.15312 41.5328 7.15312 41.6328Z" stroke="#BDE34F" stroke-width="2" stroke-miterlimit="10"/>
<path d="M48.4523 12.3344C49.3523 11.6344 50.5523 11.2344 51.7523 11.2344C54.8523 11.2344 57.3523 13.7344 57.3523 16.8344C57.3523 19.9344 54.8523 22.4344 51.7523 22.4344C48.6523 22.4344 46.1523 19.9344 46.1523 16.8344C46.1523 15.0344 46.9523 13.4344 48.2523 12.4344L48.4523 12.3344Z" stroke="#BDE34F" stroke-width="2" stroke-miterlimit="10"/>
<path d="M50.5516 41.6328H58.6516V34.5328C58.6516 30.7328 55.5516 27.6328 51.7516 27.6328C47.9516 27.6328 44.8516 30.7328 44.8516 34.5328V41.6328H49.8516C49.8516 41.6328 50.5516 41.5328 50.5516 41.6328Z" stroke="#BDE34F" stroke-width="2" stroke-miterlimit="10"/>
<path d="M25.4562 3.23438C26.6562 2.23438 28.2562 1.73438 29.9562 1.73438C34.2562 1.73438 37.7562 5.23438 37.7562 9.53438C37.7562 13.8344 34.2562 17.3344 29.9562 17.3344C25.6562 17.3344 22.1562 13.8344 22.1562 9.53438C22.1562 7.03438 23.2562 4.83438 25.0562 3.43438L25.4562 3.23438Z" stroke="#BDE34F" stroke-width="2" stroke-miterlimit="10"/>
<path d="M28.3555 41.8375H39.5555V32.0375C39.5555 26.7375 35.2555 22.4375 29.9555 22.4375C24.6555 22.4375 20.3555 26.7375 20.3555 32.0375V41.8375H27.3555H28.3555Z" stroke="#BDE34F" stroke-width="2" stroke-miterlimit="10"/>
<path d="M54.8547 10.2344L29.6547 37.6344L17.5547 29.0344" stroke="#E05263" stroke-width="2" stroke-miterlimit="10"/>
</g>
<defs>
<clipPath id="clip0_6087_17923">
<rect width="59.2" height="42.1" fill="white" transform="translate(0.453125 0.734375)"/>
</clipPath>
</defs>
</svg>
