<svg width="33" height="33" viewBox="0 0 33 33" fill="none" xmlns="http://www.w3.org/2000/svg">
<path d="M28.4531 6.59375H4.45312C3.92269 6.59375 3.41398 6.80446 3.03891 7.17954C2.66384 7.55461 2.45313 8.06332 2.45312 8.59375V24.5938C2.45313 25.1242 2.66384 25.6329 3.03891 26.008C3.41398 26.383 3.92269 26.5938 4.45312 26.5938H28.4531C28.9836 26.5938 29.4923 26.383 29.8673 26.008C30.2424 25.6329 30.4531 25.1242 30.4531 24.5938V8.59375C30.4531 8.06332 30.2424 7.55461 29.8673 7.17954C29.4923 6.80446 28.9836 6.59375 28.4531 6.59375ZM26.2531 8.59375L16.4531 15.3737L6.65312 8.59375H26.2531ZM4.45312 24.5938V9.50375L15.8831 17.4137C16.0505 17.5299 16.2494 17.5921 16.4531 17.5921C16.6569 17.5921 16.8557 17.5299 17.0231 17.4137L28.4531 9.50375V24.5938H4.45312Z" fill="white"/>
</svg>
