<svg width="26" height="26" viewBox="0 0 26 26" fill="none" xmlns="http://www.w3.org/2000/svg">
<path d="M15.748 0C17.5605 0 19.2376 0.458333 20.7793 1.375C22.3001 2.25 23.498 3.44792 24.373 4.96875C25.2897 6.51042 25.748 8.1875 25.748 10C25.748 11.8125 25.2897 13.4896 24.373 15.0312C23.498 16.5521 22.3001 17.75 20.7793 18.625C19.2376 19.5417 17.5605 20 15.748 20C14.5605 20 13.4251 19.8021 12.3418 19.4062C11.2793 19.0104 10.3105 18.4583 9.43555 17.75L1.4668 25.7188L0.0292969 24.2812L7.99805 16.3125C7.28971 15.4375 6.73763 14.4688 6.3418 13.4062C5.94596 12.3229 5.74805 11.1875 5.74805 10C5.74805 8.1875 6.20638 6.51042 7.12305 4.96875C7.99805 3.44792 9.19596 2.25 10.7168 1.375C12.2585 0.458333 13.9355 0 15.748 0ZM15.748 2C14.2897 2 12.946 2.36458 11.7168 3.09375C10.5085 3.80208 9.53971 4.77083 8.81055 6C8.10221 7.20833 7.74805 8.54167 7.74805 10C7.74805 11.4583 8.10221 12.8021 8.81055 14.0312C9.53971 15.2396 10.5085 16.2083 11.7168 16.9375C12.946 17.6458 14.2897 18 15.748 18C17.2064 18 18.5397 17.6458 19.748 16.9375C20.9772 16.2083 21.946 15.2396 22.6543 14.0312C23.3835 12.8021 23.748 11.4583 23.748 10C23.748 8.54167 23.3835 7.20833 22.6543 6C21.946 4.77083 20.9772 3.80208 19.748 3.09375C18.5397 2.36458 17.2064 2 15.748 2Z" fill="#4F7A9D"/>
</svg>
