<svg width="35" height="35" viewBox="0 0 35 35" fill="none" xmlns="http://www.w3.org/2000/svg">
<path d="M17.4531 4.84375C10.4236 4.84375 4.70312 10.5642 4.70312 17.5938C4.70312 24.6233 10.4236 30.3438 17.4531 30.3438C24.4826 30.3438 30.2031 24.6233 30.2031 17.5938C30.2031 10.5642 24.4826 4.84375 17.4531 4.84375ZM17.4531 6.96875C23.3341 6.96875 28.0781 11.7128 28.0781 17.5938C28.0807 20.1373 27.1686 22.5971 25.5083 24.524C23.848 26.451 21.5501 27.7167 19.0341 28.0902V20.692H22.0601L22.5351 17.6182H19.0341V15.9394C19.0341 14.6644 19.4538 13.5307 20.647 13.5307H22.5648V10.849C22.228 10.8033 21.5151 10.7045 20.1678 10.7045C17.3543 10.7045 15.7053 12.1899 15.7053 15.575V17.6182H12.8132V20.692H15.7053V28.0636C13.2241 27.6552 10.9689 26.378 9.34273 24.46C7.71653 22.542 6.82524 20.1083 6.82812 17.5938C6.82812 11.7128 11.5722 6.96875 17.4531 6.96875Z" fill="white"/>
</svg>
