<svg width="287" height="338" viewBox="0 0 287 338" fill="none" xmlns="http://www.w3.org/2000/svg">
<path opacity="0.05" d="M174.269 264.814C171.932 267.268 167.396 271.414 167.396 271.414C162.959 275.458 158.008 279.027 153.142 282.314C140.174 291.054 126.189 297.053 111.573 300.124C109.189 300.629 106.726 300.965 104.379 301.295L103.629 301.4L79.3655 336.089C72.3564 346.11 64.1993 354.384 55.1011 360.657C46.0218 366.942 36.3527 371.329 26.3795 373.73C16.3874 376.119 6.21764 376.381 -3.81955 374.478C-13.8891 372.581 -23.6484 368.385 -32.8165 361.973C-41.9845 355.56 -49.3055 347.838 -54.5088 339.024C-59.7256 330.229 -63.064 320.604 -64.3773 310.422C-65.704 300.26 -64.8998 289.673 -61.9609 278.978C-56.2112 258.013 -41.8442 240.417 -29.5851 222.89C-18.5478 207.11 -7.68657 191.178 3.35069 175.398C9.16471 167.086 14.9787 158.774 20.7928 150.461C22.31 148.292 23.2473 145.46 24.5886 143.139C29.8092 134.183 36.9966 126.488 45.2501 120.254C47.0377 121.933 48.8093 123.715 50.5518 125.62C44.6649 130.165 31.9473 144.798 30.032 151.892C23.5626 155.858 18.7 161.52 15.3969 166.242C15.963 163.779 16.6317 161.331 17.4086 158.93C3.824 178.674 -8.24689 197.505 -18.0908 214.119C-15.3676 224.544 -11.1807 234.448 -5.3918 243.957C2.46587 256.801 13.0651 267.902 26.4572 277.269C44.8122 290.108 66.0111 297.388 88.5458 297.797C103.994 298.054 119.445 295.081 133.784 289.1C141.104 286.015 148.11 282.168 154.716 277.725C161.946 272.833 168.684 267.112 174.95 260.573C178.72 256.635 182.343 252.422 185.763 247.896C186.894 246.4 188.02 244.871 189.121 243.297L262.192 138.827C270.437 127.04 276.542 114.843 280.546 102.263C281.338 99.7581 282.093 97.2271 282.732 94.7006C286.529 79.4313 287.352 64.3404 285.22 49.4411C283.088 34.5419 278.074 20.6574 270.225 7.76239C262.362 -5.11337 251.738 -16.2606 238.327 -25.6409C224.916 -35.0213 210.814 -41.1965 196.009 -44.1474C181.218 -47.1175 166.469 -47.0842 151.809 -44.0726C137.15 -41.0609 123.284 -35.1503 110.256 -26.3657C97.2153 -17.5619 85.6933 -6.00913 75.6631 8.33107L11.8431 99.5746C13.8545 97.4651 15.9228 95.3954 18.0321 93.4686C22.5089 89.367 27.2193 85.6574 32.1308 82.3458C45.1716 73.542 59.0246 67.6506 73.6841 64.639C76.3463 64.0996 79.0227 63.7416 81.6856 63.4029L105.559 29.2705C112.756 18.9809 120.87 10.6475 129.933 4.26442C138.996 -2.11867 148.56 -6.43574 158.625 -8.68682C168.691 -10.9379 178.807 -11.1238 188.96 -9.22529C199.113 -7.32679 208.802 -3.1514 218.046 3.31414C227.29 9.77968 234.535 17.4489 239.801 26.3352C245.066 35.2214 248.278 44.7863 249.473 55.0562C250.667 65.3262 249.852 75.8485 247.04 86.6038C244.229 97.359 239.294 107.802 232.231 117.899L206.397 154.834L204.464 157.599L163.98 215.478C161.977 219.794 159.654 224.002 156.835 228.033C154.015 232.065 150.846 235.709 147.492 239.052C144.979 241.555 142.351 243.861 139.605 245.972C138.657 246.681 137.704 247.358 136.719 248.041C135.901 248.041 135.051 248.047 134.052 248.063C132.667 248.066 131.115 248.067 129.601 248.094C131.897 241.867 132.671 233.946 131.864 224.976C136.669 220.647 148.619 204.248 150.535 198.04C156.775 197.144 164.117 194.875 168.12 193.387C168.427 194.803 168.953 196.228 169.558 197.623C168.859 200.88 167.924 203.427 166.778 206.8L166.244 208.37L167.197 207.007C180.645 187.539 192.848 168.6 203.174 151.094C203.486 150.568 202.622 148.334 202.415 147.703C195.99 125.914 182.715 106.822 165.116 92.7406C163.07 91.1091 160.983 89.5352 158.843 88.038C150.679 82.3277 141.856 77.558 132.502 74.074C123.128 70.5767 112.615 68.4265 102.593 67.792C99.1349 67.5743 95.6906 67.538 92.2359 67.6375C85.5776 67.8404 78.7534 68.442 72.191 69.7984C57.5315 72.81 43.6651 78.7207 30.6377 87.5052C23.1654 92.5421 16.2201 98.5194 9.73954 105.365C4.74602 110.649 0.0176717 116.118 -4.14479 122.07C-7.82388 127.329 -11.5164 132.609 -15.1955 137.869C-23.3593 149.54 -31.5231 161.212 -39.6869 172.884C-48.0118 184.786 -56.3367 196.688 -64.6617 208.591C-71.0799 217.767 -77.4989 226.742 -82.7972 236.616C-87.7013 245.765 -92.5912 255.095 -96.0003 264.89C-101.675 281.19 -102.879 299.245 -100.367 316.182C-98.1926 330.94 -93.0921 344.942 -85.2479 357.805C-77.4036 370.667 -66.6473 381.908 -53.2741 391.261C-39.901 400.615 -25.6401 406.845 -10.8808 409.821C3.89191 412.778 18.8157 412.695 33.4966 409.613C48.1775 406.53 62.2081 400.506 75.2355 391.721C88.2305 382.943 99.8307 371.359 109.7 357.249L174.325 264.854L174.269 264.814ZM138.214 151.571C137.616 158.071 136.05 164.666 134.023 169.338C131.702 170.116 129.316 170.906 127.022 171.645C119.454 174.157 111.614 176.735 104.277 179.722C100.116 175.468 87.713 163.477 75.538 159.306C75.9571 154.997 76.359 150.389 76.7505 145.917C77.0073 143.009 77.2562 140.153 77.5003 137.465C77.6897 135.339 77.864 133.517 78.039 131.895C83.7989 127.29 91.9227 124.024 97.7866 122.093C101.499 120.859 104.802 119.968 106.922 119.478C108.2 119.143 109.217 118.939 109.813 118.813C120.434 124.64 129.399 131.626 137.542 138.293C138.503 141.195 138.733 145.988 138.221 151.519L138.645 151.558L138.651 151.591L138.214 151.571ZM28.2423 229.345C26.2624 226.731 24.4279 223.99 22.8089 221.142C21.7849 219.34 20.8982 217.461 20.0897 215.552C22.2858 218.26 24.5727 220.718 26.945 222.892C27.754 225.687 28.8724 228.928 30.7153 232.504C29.8693 231.455 29.0424 230.419 28.2423 229.345ZM91.8494 262.342C88.3 262.375 84.7633 262.189 81.2607 261.712C74.8901 260.858 68.6572 259.243 62.7237 256.837C57.9877 254.896 53.4713 252.481 49.1911 249.687C56.0372 252.16 62.7108 253.225 69.0574 252.661C76.5148 258.535 85.8555 261.152 92.5267 262.301C92.327 262.305 92.0815 262.333 91.8494 262.342ZM69.8265 229.299C58.2003 222.368 49.4135 216.136 43.025 210.267C41.905 205.052 41.6623 199.108 42.2598 192.607C42.7773 187.108 43.8044 182.252 44.5949 179.146C45.0448 177.373 45.4447 175.995 45.7008 175.145C45.7356 175.055 45.7648 174.932 45.7996 174.842C54.9347 169.082 65.3356 164.778 74.4085 161.204C81.5616 163.52 88.9798 168.966 93.9748 173.117C96.3519 175.123 98.7321 177.245 100.999 179.488C101.958 180.416 102.665 181.139 103.072 181.567C102.849 184.87 102.731 188.104 102.576 191.512C102.326 197.112 102.058 202.899 101.466 209.432C101.328 210.88 101.177 212.346 101.033 213.761C100.619 214.072 100.145 214.426 99.612 214.825C94.3947 218.695 81.1067 227.812 69.8265 229.299ZM47 118.962C47.1508 118.867 47.2961 118.74 47.4604 118.626C63.2351 107.446 83.2905 102.205 102.426 103.926C105.578 104.3 108.7 104.797 111.725 105.513C110.338 109.231 109.494 114.187 109.123 116.815C104.484 117.801 87.6043 121.89 77.2329 129.902C71.6596 127.062 61.5253 122.918 52.5455 124.585C50.6894 122.6 48.8499 120.713 47 118.962ZM30.1677 154.36C31.621 159.179 37.9503 169.609 43.6555 174.601C42.7458 177.595 40.878 184.379 40.1457 192.444C39.5506 198.86 39.7744 204.792 40.8162 210.037C33.7534 213.359 29.374 216.757 27.4409 220.408C24.131 217.235 20.973 213.483 17.9966 209.228C17.8231 208.992 17.6629 208.737 17.5027 208.482C16.3213 204.969 15.3476 201.4 14.6786 197.759C14.4667 196.61 14.2871 195.455 14.1398 194.295C13.1714 186.927 13.2308 179.422 14.3165 172.062C14.3189 171.978 14.3402 171.907 14.3561 171.804C17.2211 166.86 22.4499 159.425 30.1677 154.36ZM129.831 237.077C129.431 241.4 128.517 245.249 127.173 248.54C120.682 253.263 109.005 259.19 99.8398 261.041C99.5698 261.024 99.2486 260.999 98.8436 260.973C94.6612 260.621 80.2977 258.894 70.2303 250.823C70.0524 247.125 69.9749 238.323 70.4614 233.231C70.5209 232.501 70.5969 231.868 70.6895 231.332C83.0505 229.429 97.2689 219.305 102.101 215.623C110.05 220.954 119.834 224.51 129.823 225.636C130.145 229.692 130.145 233.523 129.831 237.077ZM150.376 195.928C148.328 188.492 139.152 173.983 136.045 170.037C138.109 165.191 139.725 158.403 140.328 151.734C140.826 146.222 140.639 141.489 139.726 138.277C144.07 137.027 151.114 135.95 157.15 136.112C158.97 138.672 160.594 141.352 162.094 144.087C168.422 156.375 171.534 170.76 171.066 184.698C170.078 186.837 169.13 188.919 168.349 191.003C164.602 192.528 156.74 194.976 150.376 195.928Z" fill="white"/>
</svg>
