<svg width="31" height="31" viewBox="0 0 31 31" fill="none" xmlns="http://www.w3.org/2000/svg">
<path d="M3.57812 15.5938C3.57812 9.99625 3.57812 7.19625 5.31688 5.4575C7.05563 3.71875 9.85437 3.71875 15.4531 3.71875C21.0506 3.71875 23.8506 3.71875 25.5894 5.4575C27.3281 7.19625 27.3281 9.995 27.3281 15.5938C27.3281 21.1913 27.3281 23.9912 25.5894 25.73C23.8506 27.4687 21.0519 27.4688 15.4531 27.4688C9.85562 27.4688 7.05563 27.4687 5.31688 25.73C3.57812 23.9912 3.57812 21.1925 3.57812 15.5938Z" stroke="white" stroke-width="1.5" stroke-linecap="round" stroke-linejoin="round"/>
<path d="M22.3381 8.71875H22.3256M21.0781 15.5938C21.0781 17.0856 20.4855 18.5163 19.4306 19.5712C18.3757 20.6261 16.945 21.2188 15.4531 21.2188C13.9613 21.2188 12.5305 20.6261 11.4756 19.5712C10.4208 18.5163 9.82813 17.0856 9.82813 15.5938C9.82813 14.1019 10.4208 12.6712 11.4756 11.6163C12.5305 10.5614 13.9613 9.96875 15.4531 9.96875C16.945 9.96875 18.3757 10.5614 19.4306 11.6163C20.4855 12.6712 21.0781 14.1019 21.0781 15.5938Z" stroke="white" stroke-width="1.5" stroke-linecap="round" stroke-linejoin="round"/>
</svg>
