<svg width="62" height="72" viewBox="0 0 62 72" fill="none" xmlns="http://www.w3.org/2000/svg">
<g clip-path="url(#clip0_577_17259)">
<path d="M1.45312 10.3938V5.89375C1.45312 3.49375 3.35313 1.59375 5.75313 1.59375H56.4531C58.8531 1.59375 60.7531 3.49375 60.7531 5.89375V66.7937C60.7531 69.1937 58.8531 71.0938 56.4531 71.0938H5.75313C3.35313 71.0938 1.45312 69.1937 1.45312 66.7937V26.6938V10.3938Z" stroke="white" stroke-width="2" stroke-miterlimit="10"/>
<path fill-rule="evenodd" clip-rule="evenodd" d="M51.6547 63.2937H10.5547C9.15469 63.2937 8.05469 62.1937 8.05469 60.7937V49.4937C8.05469 48.0937 9.15469 46.9937 10.5547 46.9937H51.6547C53.0547 46.9937 54.1547 48.0937 54.1547 49.4937V60.8937C54.1547 62.1937 52.9547 63.2937 51.6547 63.2937Z" stroke="white" stroke-width="2" stroke-miterlimit="10"/>
<path d="M20.3562 51.1938H23.0563V55.8938C23.0563 56.8938 22.9562 57.5938 22.7562 58.0938C22.5562 58.5938 22.2562 58.9938 21.7562 59.3938C21.2562 59.7938 20.5562 59.8938 19.7562 59.8938C18.8562 59.8938 18.2562 59.7939 17.7562 59.4939C17.2562 59.1939 16.9563 58.8939 16.6563 58.4939C16.3563 58.0939 16.2563 57.4938 16.1562 56.7938L18.6563 56.4939C18.6563 56.8939 18.6562 57.1939 18.7562 57.2938C18.8562 57.3938 18.9563 57.5938 19.0563 57.6938C19.1563 57.7938 19.2563 57.7938 19.4563 57.7938C19.7563 57.7938 19.9563 57.6939 20.1563 57.4939C20.2563 57.2939 20.3562 56.8938 20.3562 56.3938V51.1938Z" fill="#E05263"/>
<path d="M26.0531 51.1938H30.4531C31.4531 51.1938 32.1531 51.3938 32.6531 51.8938C33.1531 52.3938 33.3531 52.9938 33.3531 53.8938C33.3531 54.7938 33.0531 55.3938 32.5531 55.8938C32.0531 56.3938 31.1531 56.5938 30.1531 56.5938H28.6531V59.7938H25.9531V51.1938H26.0531ZM28.6531 54.7938H29.3531C29.8531 54.7938 30.2531 54.6939 30.4531 54.4939C30.6531 54.2939 30.7531 54.0938 30.7531 53.7938C30.7531 53.4938 30.6531 53.2938 30.4531 53.0938C30.2531 52.8938 29.9531 52.7938 29.4531 52.7938H28.6531V54.7938Z" fill="#E05263"/>
<path d="M40.2562 56.6937V54.8937H44.3563V58.5938C43.5563 59.0938 42.8562 59.4937 42.2562 59.6937C41.6562 59.8937 40.9563 59.9938 40.1562 59.9938C39.1562 59.9938 38.2562 59.7938 37.6562 59.4938C37.0562 59.1938 36.5562 58.5937 36.1562 57.8937C35.7562 57.1937 35.6562 56.3938 35.6562 55.4938C35.6562 54.5938 35.8562 53.6937 36.2562 53.0938C36.6562 52.4937 37.2562 51.8938 37.9562 51.4938C38.5562 51.1938 39.3562 51.0938 40.2562 51.0938C41.1562 51.0938 41.9563 51.1937 42.3563 51.3937C42.7563 51.5937 43.2562 51.7937 43.5562 52.1937C43.8562 52.5937 44.0562 52.9937 44.2562 53.5938L41.6562 54.0938C41.5563 53.7938 41.3562 53.4937 41.1562 53.3937C40.9563 53.2937 40.5563 53.0938 40.1562 53.0938C39.5563 53.0938 39.1562 53.2937 38.7562 53.6937C38.3562 54.0937 38.2562 54.6937 38.2562 55.5938C38.2562 56.4938 38.4562 57.1937 38.7562 57.5938C39.0562 57.9938 39.5562 58.1937 40.2562 58.1937C40.5562 58.1937 40.8562 58.1937 41.0562 58.0938C41.2562 57.9938 41.6562 57.8937 41.9562 57.6937V56.8937H40.2562V56.6937Z" fill="#E05263"/>
<path d="M10.8551 33.6937L22.7551 21.7937C23.1551 21.3937 23.9551 21.3937 24.3551 21.7937L36.2551 33.6937C36.9551 34.3937 36.4551 35.6937 35.4551 35.6937H11.6551C10.6551 35.6937 10.0551 34.3937 10.8551 33.6937Z" stroke="white" stroke-width="2" stroke-miterlimit="10"/>
<path d="M39.756 24.1937L45.156 18.7937C45.556 18.3937 46.356 18.3937 46.756 18.7937L52.156 24.1937C52.856 24.8937 52.356 26.1937 51.356 26.1937H40.556C39.556 26.1937 39.056 24.8937 39.756 24.1937Z" stroke="white" stroke-width="2" stroke-miterlimit="10"/>
<path d="M33.1578 17.0937C35.0356 17.0937 36.5578 15.5715 36.5578 13.6937C36.5578 11.8159 35.0356 10.2937 33.1578 10.2937C31.28 10.2937 29.7578 11.8159 29.7578 13.6937C29.7578 15.5715 31.28 17.0937 33.1578 17.0937Z" stroke="white" stroke-width="2" stroke-miterlimit="10"/>
</g>
<defs>
<clipPath id="clip0_577_17259">
<rect width="61.2" height="71.4" fill="white" transform="translate(0.453125 0.59375)"/>
</clipPath>
</defs>
</svg>
