<svg width="261" height="116" viewBox="0 0 261 116" fill="none" xmlns="http://www.w3.org/2000/svg">
<path d="M202.966 80.8409C203.043 80.5318 203.12 80.0681 203.198 79.8363H205.281C205.204 80.1454 205.05 80.6864 204.973 80.9955C204.818 81.6137 205.127 82.1547 205.821 82.1547C206.439 82.1547 206.902 81.7683 207.056 81.2273C207.056 81.1501 207.133 80.9955 207.133 80.9955C207.442 79.8363 207.056 79.6044 206.053 78.9862C204.509 78.2133 203.969 77.286 204.278 76.0495L204.355 75.8176C204.741 74.5038 205.667 73.4219 207.674 73.4219C209.526 73.4219 210.838 74.5038 210.529 76.204C210.452 76.5131 210.375 76.6677 210.375 76.9768H208.214C208.291 76.6677 208.368 76.4359 208.445 76.1267C208.677 75.3539 208.137 75.0448 207.596 75.0448C206.979 75.0448 206.593 75.3539 206.439 75.8949C206.439 75.8949 206.439 76.0495 206.362 76.1267C206.207 76.8996 206.362 77.1314 207.365 77.7497C208.908 78.5225 209.603 79.5271 209.217 80.9182C209.217 81.0728 209.14 81.1501 209.14 81.3046C208.754 82.8503 207.596 83.7776 205.667 83.7776C203.583 83.6231 202.58 82.232 202.966 80.8409Z" fill="white"/>
<path d="M217.476 73.4922H219.714L217.013 83.5388H214.775L215.083 82.3796C214.389 83.307 213.54 83.7707 212.691 83.7707C210.993 83.7707 210.607 82.4569 211.147 80.4476L213 73.4922H215.238L213.385 80.6021C213.154 81.4522 213.231 82.0705 214.003 82.0705C214.775 82.0705 215.392 81.4522 215.624 80.6021L217.476 73.4922Z" fill="white"/>
<path d="M219.713 80.0656L220.639 76.5879C221.18 74.6559 222.183 73.1875 224.575 73.1875C226.582 73.1875 227.816 74.424 227.508 76.1242L227.122 77.5153H224.884L225.27 76.1242C225.424 75.2741 225.115 74.8104 224.498 74.8104C223.726 74.8104 223.186 75.3514 222.877 76.3561L221.874 80.2201C221.565 81.2248 221.874 81.7658 222.646 81.7658C223.34 81.7658 223.881 81.3021 224.112 80.452C224.266 79.911 224.344 79.5246 224.498 79.0609H226.736C226.582 79.5246 226.504 79.9883 226.35 80.452C225.887 82.2295 224.729 83.3887 222.569 83.3887C220.099 83.6205 219.173 82.0749 219.713 80.0656Z" fill="white"/>
<path d="M227.971 80.0656L228.897 76.5879C229.437 74.6559 230.44 73.1875 232.833 73.1875C234.839 73.1875 236.074 74.424 235.765 76.1242L235.379 77.5153H233.141L233.527 76.1242C233.682 75.2741 233.373 74.8104 232.756 74.8104C231.984 74.8104 231.444 75.3514 231.135 76.3561L230.132 80.2201C229.823 81.2248 230.132 81.7658 230.903 81.7658C231.598 81.7658 232.138 81.3021 232.37 80.452C232.524 79.911 232.601 79.5246 232.756 79.0609H234.994C234.839 79.5246 234.762 79.9883 234.608 80.452C234.145 82.2295 232.987 83.3887 230.826 83.3887C228.434 83.6205 227.431 82.0749 227.971 80.0656Z" fill="white"/>
<path d="M236.305 80.1437L237.231 76.666C237.694 74.734 238.774 73.2656 241.244 73.2656C243.559 73.2656 244.562 74.8885 244.022 76.7433C243.79 77.6707 243.713 78.0571 243.482 78.8299H238.928L238.465 80.6074C238.311 81.4575 238.543 81.9985 239.314 81.9985C239.932 81.9985 240.472 81.6121 240.703 80.8392L241.012 79.6027H243.25C243.096 79.9119 243.019 80.5301 242.864 80.9165C242.401 82.3849 241.321 83.5441 239.237 83.5441C236.69 83.6214 235.764 82.0757 236.305 80.1437ZM241.63 77.4388C241.707 77.0524 241.784 76.7433 241.938 76.3569C242.093 75.5068 241.861 74.9658 241.089 74.9658C240.395 74.9658 239.777 75.5068 239.546 76.3569C239.469 76.7433 239.391 77.0524 239.237 77.4388H241.63Z" fill="white"/>
<path d="M252.82 74.655L251.277 76.0461C251.277 75.4278 250.891 74.9641 250.274 74.9641C249.039 74.9641 248.267 76.2007 247.881 77.128L247.341 79.2146L247.264 79.4465L246.183 83.3879H243.945L246.646 73.3412H248.807L248.499 74.5777C249.116 73.7276 249.965 73.1094 251.045 73.1094C252.048 73.2639 252.82 73.8049 252.82 74.655Z" fill="white"/>
<path d="M209.295 88.1797H211.687L206.979 98.2263C206.13 99.9265 204.896 101.704 202.966 101.704C202.349 101.704 201.809 101.549 201.346 101.163L202.195 99.3856C202.426 99.6947 202.735 99.9265 203.198 99.9265C203.97 99.9265 204.664 99.0764 205.127 98.149H203.97L204.587 88.1797H206.748L205.822 96.0624H205.976L209.295 88.1797Z" fill="white"/>
<path d="M211.069 94.8234L211.995 91.3457C212.535 89.4137 213.538 87.9453 215.931 87.9453C218.246 87.9453 219.249 89.5682 218.786 91.5003L217.86 94.978C217.397 96.91 216.317 98.3784 213.924 98.3784C211.455 98.3011 210.528 96.7554 211.069 94.8234ZM215.622 95.0552L216.625 91.1911C216.857 90.1865 216.625 89.6455 215.853 89.6455C215.082 89.6455 214.464 90.1865 214.233 91.1911L213.23 95.0552C212.921 96.0599 213.307 96.6009 214.001 96.6009C214.773 96.6009 215.313 96.0599 215.622 95.0552Z" fill="white"/>
<path d="M225.809 88.1797H228.047L225.346 98.2263H223.108L223.417 97.0671C222.799 97.9945 221.95 98.4582 221.024 98.4582C219.404 98.4582 218.941 97.1444 219.481 95.1351L221.333 88.1797H223.571L221.719 95.2896C221.487 96.1397 221.565 96.758 222.336 96.758C223.108 96.758 223.725 96.1397 223.957 95.2896L225.809 88.1797Z" fill="white"/>
<path d="M236.228 89.3347L234.685 90.7258C234.608 90.1075 234.299 89.6438 233.682 89.6438C232.447 89.6438 231.675 90.8803 231.289 91.8077L230.749 93.8943L230.672 94.1262L229.592 98.0675H227.354L230.055 88.0209H232.215L231.907 89.2574C232.524 88.4073 233.373 87.7891 234.453 87.7891C235.534 87.9436 236.228 88.4846 236.228 89.3347Z" fill="white"/>
<path d="M202.966 110.208C203.043 109.899 203.12 109.435 203.198 109.203H205.281C205.204 109.513 205.05 110.054 204.973 110.363C204.818 110.981 205.127 111.522 205.821 111.522C206.439 111.522 206.902 111.136 207.056 110.595C207.056 110.517 207.133 110.363 207.133 110.363C207.442 109.203 207.056 108.972 206.053 108.353C204.509 107.581 203.969 106.653 204.278 105.417L204.355 105.185C204.741 103.871 205.667 102.789 207.674 102.789C209.526 102.789 210.838 103.871 210.529 105.571C210.452 105.88 210.375 106.035 210.375 106.344H208.214C208.291 106.035 208.368 105.803 208.445 105.494C208.677 104.721 208.137 104.412 207.596 104.412C206.979 104.412 206.593 104.721 206.439 105.262C206.439 105.262 206.439 105.417 206.362 105.494C206.207 106.267 206.362 106.499 207.365 107.117C208.908 107.89 209.603 108.894 209.217 110.285C209.217 110.44 209.14 110.517 209.14 110.672C208.754 112.217 207.596 113.145 205.667 113.145C203.583 112.99 202.58 111.599 202.966 110.208Z" fill="white"/>
<path d="M211.069 109.511L211.995 106.033C212.458 104.101 213.538 102.633 215.931 102.633C218.246 102.633 219.249 104.256 218.786 106.188L217.86 109.665C217.32 111.597 216.317 113.066 213.924 113.066C211.455 112.989 210.528 111.443 211.069 109.511ZM215.622 109.743L216.625 105.879C216.857 104.874 216.548 104.333 215.853 104.333C215.082 104.333 214.464 104.874 214.233 105.879L213.23 109.743C212.921 110.747 213.307 111.288 214.001 111.288C214.773 111.288 215.313 110.747 215.622 109.743Z" fill="white"/>
<path d="M219.404 109.433L220.33 105.955C220.793 104.023 221.874 102.555 224.266 102.555C226.273 102.555 227.43 103.791 227.199 105.491L226.813 106.882H224.575L224.961 105.491C225.115 104.641 224.806 104.178 224.189 104.178C223.417 104.178 222.8 104.719 222.568 105.723L221.565 109.587C221.257 110.592 221.565 111.133 222.337 111.133C223.032 111.133 223.572 110.669 223.803 109.819C223.958 109.278 224.035 108.892 224.189 108.428H226.427C226.273 108.892 226.196 109.355 226.041 109.819C225.501 111.597 224.421 112.756 222.26 112.756C219.867 112.988 218.864 111.442 219.404 109.433Z" fill="white"/>
<path d="M227.739 109.433L228.665 105.955C229.128 104.023 230.209 102.555 232.601 102.555C234.608 102.555 235.765 103.791 235.456 105.491L235.071 106.882H232.833L233.218 105.491C233.373 104.641 233.064 104.178 232.447 104.178C231.675 104.178 231.058 104.719 230.826 105.723L229.823 109.587C229.514 110.592 229.823 111.133 230.595 111.133C231.289 111.133 231.829 110.669 232.061 109.819C232.215 109.278 232.292 108.892 232.447 108.428H234.685C234.53 108.892 234.453 109.355 234.299 109.819C233.759 111.597 232.678 112.756 230.517 112.756C228.125 112.988 227.199 111.442 227.739 109.433Z" fill="white"/>
<path d="M235.996 109.511L236.922 106.033C237.385 104.101 238.466 102.633 240.935 102.633C243.251 102.633 244.254 104.256 243.714 106.11C243.482 107.038 243.405 107.424 243.173 108.197H238.62L238.08 109.975C237.926 110.825 238.234 111.366 238.929 111.366C239.546 111.366 240.164 110.979 240.318 110.206L240.627 108.97H242.865C242.71 109.279 242.556 109.897 242.479 110.284C242.016 111.752 240.935 112.911 238.852 112.911C236.459 112.989 235.533 111.443 235.996 109.511ZM241.321 106.806C241.398 106.42 241.476 106.11 241.63 105.724C241.784 104.874 241.553 104.333 240.781 104.333C240.009 104.333 239.469 104.874 239.238 105.724C239.16 106.11 239.083 106.42 238.929 106.806H241.321Z" fill="white"/>
<path d="M252.512 104.022L250.968 105.413C250.968 104.795 250.582 104.331 249.965 104.331C248.73 104.331 247.958 105.568 247.573 106.495L247.032 108.582L246.955 108.814L245.875 112.755H243.637L246.338 102.708H248.499L248.19 103.945H248.267C248.885 103.095 249.733 102.477 250.814 102.477C251.817 102.631 252.512 103.172 252.512 104.022Z" fill="white"/>
<path d="M74.8577 16.1556C75.012 16.3874 75.3207 16.542 75.6294 16.542C75.7838 16.542 75.9381 16.4647 76.0924 16.3874C76.4783 16.0783 76.6327 15.5373 76.324 15.1509C74.3175 12.2142 72.0023 9.50935 69.3012 7.11362C68.9153 6.80449 68.3751 6.80449 68.0664 7.1909C67.7577 7.57731 67.7577 8.11828 68.1436 8.42741C70.6903 10.6686 72.9283 13.2962 74.8577 16.1556Z" fill="white"/>
<path d="M61.275 3.48028C62.5869 4.2531 63.8217 5.02591 65.0565 5.9533C65.2108 6.03058 65.3651 6.10786 65.5967 6.10786C65.9054 6.10786 66.1369 5.9533 66.2912 5.72145C66.5999 5.33504 66.5227 4.79407 66.0597 4.48494C64.8249 3.55756 63.513 2.70746 62.1239 1.93464C61.738 1.7028 61.1978 1.85736 60.9663 2.32105C60.7347 2.70746 60.8119 3.24843 61.275 3.48028Z" fill="white"/>
<path d="M81.4183 20.5579H115.297C115.76 20.5579 116.223 20.1715 116.223 19.6305C116.223 19.1668 115.838 18.7031 115.297 18.7031H81.4183C80.9552 18.7031 80.4922 19.0895 80.4922 19.6305C80.5694 20.1715 80.9552 20.5579 81.4183 20.5579Z" fill="white"/>
<path d="M153.343 74.8125H127.799C127.336 74.8125 126.873 75.1989 126.873 75.7399C126.873 76.2036 127.259 76.6673 127.799 76.6673H153.343C153.807 76.6673 154.27 76.2809 154.27 75.7399C154.192 75.1989 153.807 74.8125 153.343 74.8125Z" fill="white"/>
<path d="M162.296 74.8125H157.897C157.434 74.8125 156.971 75.1989 156.971 75.7399C156.971 76.2036 157.357 76.6673 157.897 76.6673H162.296C162.759 76.6673 163.222 76.2809 163.222 75.7399C163.222 75.1989 162.836 74.8125 162.296 74.8125Z" fill="white"/>
<path d="M125.87 34.9297C124.018 34.9297 122.551 36.3208 121.857 38.8711L118.924 49.8451C118.23 52.3954 118.924 53.7864 120.777 53.7864C122.706 53.7864 124.172 52.3954 124.867 49.8451L127.799 38.8711C128.494 36.398 127.799 34.9297 125.87 34.9297Z" fill="white"/>
<path d="M224.266 34.9297C222.414 34.9297 220.948 36.3208 220.253 38.8711L217.321 49.8451C216.626 52.3954 217.321 53.7864 219.173 53.7864C221.102 53.7864 222.569 52.3954 223.263 49.8451L226.196 38.8711C226.967 36.398 226.196 34.9297 224.266 34.9297Z" fill="white"/>
<path d="M192.238 35.0078H189.228L187.299 42.1177H190.309C191.852 42.1177 192.855 41.3449 193.396 39.2583L193.781 37.8672C194.399 35.7806 193.781 35.0078 192.238 35.0078Z" fill="white"/>
<path d="M53.0955 44.4394L51.0118 29.1376C48.1564 27.5919 45.2238 26.1236 42.2913 24.8098C40.4391 23.9597 38.5098 23.1869 36.5804 22.4141L23.3066 32.6925C23.461 34.8564 23.6925 37.0203 24.0012 39.1842C24.3871 42.1982 24.9273 45.2122 25.5447 48.1489L40.6706 54.3315C45.9956 51.1629 50.0858 47.8398 53.0955 44.4394ZM44.1434 48.8444C44.5293 48.458 44.838 48.0716 45.2238 47.7625L46.3043 46.6806C46.6901 46.3714 47.076 45.985 47.4619 45.6759L48.0021 45.1349L48.6195 44.6712L49.2369 44.2075L49.5455 43.9757C49.6227 43.8984 49.6227 43.8984 49.6999 43.8211C49.7771 43.7438 49.8542 43.6666 49.9314 43.512C50.0086 43.3574 50.0086 43.4347 50.0086 43.1256C50.0086 42.1209 49.9314 41.1163 49.9314 40.1116C49.9314 39.1069 49.9314 38.1023 49.9314 37.0976C49.9314 35.0883 50.0086 33.079 50.1629 31.0696L50.9347 43.1256C50.9347 43.2801 50.9347 43.3574 50.9347 43.512C50.9347 43.6666 50.9347 43.7438 50.8575 43.8984C50.7803 44.1303 50.626 44.3621 50.4716 44.5167C50.3173 44.6712 50.0858 44.8258 49.8542 44.9804L49.2369 45.444C48.4651 46.0623 47.6934 46.6805 46.9217 47.3761C45.3782 48.6899 43.8347 50.0037 42.3684 51.3175C42.8315 50.3901 43.4489 49.6173 44.1434 48.8444Z" fill="white"/>
<path d="M11.3438 12.9866C10.0319 14.3776 8.79711 15.846 7.63951 17.3916C7.48516 17.6235 7.25364 17.9326 7.0993 18.2417C5.40148 21.1012 3.93519 24.1151 3.00911 27.361C2.54607 28.8293 2.23738 30.2977 2.00586 31.766L4.32106 33.389C5.01562 32.2297 5.86452 31.1478 6.63626 30.0658C7.33082 29.2157 8.02537 28.3656 8.71993 27.5155C9.41449 26.7427 10.1091 26.0472 10.8808 25.3517L16.5916 10.9772L15.434 8.89062C15.2797 9.04519 15.1253 9.12247 14.8938 9.27703C14.7394 9.4316 14.5851 9.58616 14.4308 9.66344C13.3503 10.7454 12.3471 11.8273 11.3438 12.9866Z" fill="white"/>
<path d="M41.596 69.7042C41.0557 69.4723 40.5155 69.3178 39.8981 69.0859L25.9298 71.0953L25.6211 72.5636C26.2385 72.7955 26.7787 72.95 27.3961 73.1819C35.0362 75.5776 43.3709 75.2685 50.7796 72.4863L50.8568 71.6362C49.9307 71.6362 49.0046 71.559 48.0785 71.4817C45.9177 71.018 43.6796 70.477 41.596 69.7042Z" fill="white"/>
<path d="M13.8133 57.8871C11.5753 56.3415 9.33723 54.7186 7.33072 52.9411C7.17638 52.7865 7.02203 52.7093 6.86768 52.5547L5.32422 54.4095C5.47857 54.7186 5.63291 55.105 5.86443 55.4141C8.17963 59.6646 11.2666 63.3741 14.9709 66.3881C17.6719 68.6293 20.7589 70.4841 24.0001 71.7979L24.5404 70.5614L15.9741 59.2782C15.2796 58.8145 14.5078 58.4281 13.8133 57.8871Z" fill="white"/>
<path d="M62.8184 18.9377C63.127 19.7878 63.3586 20.6379 63.6673 21.4107L72.6194 32.8484H72.6965L74.3172 33.2348C73.777 29.1389 72.5422 25.1202 70.69 21.488C68.6063 17.3147 65.6738 13.4506 62.1238 10.3594L59.8086 11.4413C59.9629 11.7504 60.1173 12.0596 60.2716 12.3687C61.2749 14.5326 62.0466 16.7738 62.8184 18.9377Z" fill="white"/>
<path d="M32.2593 8.58088C33.1082 7.96262 34.1115 7.42165 35.0376 6.95796C36.0408 6.49427 37.0441 6.03058 38.0473 5.64417C39.3593 5.1032 40.6712 4.71679 41.9832 4.33038L40.9027 1.39367C38.9734 1.23911 36.9669 1.23911 35.0376 1.31639C30.1756 1.7028 25.3909 3.01659 20.992 5.25776C19.9116 5.79873 18.8312 6.41699 17.8279 7.11252C16.979 7.6535 16.2073 8.27175 15.4355 8.89001L17.2105 10.5902L32.2593 8.58088Z" fill="white"/>
<path d="M35.3455 7.5748C34.4966 8.0385 33.7249 8.57947 32.9531 9.19772L36.5803 22.1038C38.5868 22.7993 40.5161 23.4949 42.5226 24.2677C44.5291 25.0405 46.4584 25.8906 48.465 26.7407C49.391 27.1271 50.3171 27.5908 51.2432 28.0545L62.8964 21.4082C62.6648 20.6354 62.5105 19.9399 62.279 19.1671C61.5844 16.9259 60.8899 14.762 60.0409 12.5981C59.8866 12.289 59.7322 11.9026 59.5779 11.5935L42.2139 4.40625C40.8248 4.94722 39.5129 5.4882 38.2009 6.10645C37.2748 6.49286 36.2716 7.03383 35.3455 7.5748ZM53.404 24.0358C53.7899 23.7267 54.0986 23.4176 54.4845 23.1084L55.5649 22.1811C55.9508 21.8719 56.3366 21.6401 56.7225 21.331L57.2627 20.9446L57.8801 20.5581C58.1116 20.4036 58.266 20.3263 58.4975 20.1717L58.8062 20.0172C58.8833 19.9399 58.9605 19.9399 59.0377 19.8626C59.192 19.7853 59.2692 19.708 59.2692 19.6308V19.5535L58.9605 17.8533C58.8833 17.235 58.8062 16.6941 58.729 16.0758C58.6518 15.4575 58.5747 14.9166 58.5747 14.2983C58.4975 13.6801 58.4975 13.1391 58.4975 12.5208L60.1953 19.3989C60.2725 19.6308 60.1953 19.8626 60.1181 20.0945C60.0409 20.3263 59.8094 20.4809 59.6551 20.5581C59.5007 20.7127 59.2692 20.79 59.0377 20.9446C58.8062 21.0218 58.6518 21.1764 58.4203 21.331C57.6486 21.7947 56.8768 22.3356 56.1051 22.8766C54.5616 23.9585 53.0954 25.0405 51.5519 26.1224C52.0149 25.3496 52.7095 24.7314 53.404 24.0358Z" fill="white"/>
<path d="M66.4457 48.4576L53.9436 45.2891C50.7795 48.844 46.535 52.1671 41.0557 55.5675L40.9785 68.2418C41.2872 68.319 41.6731 68.3963 41.9818 68.5509C44.0654 69.0919 46.2263 69.4783 48.3872 69.5556C49.8534 69.6328 51.2426 69.5555 52.6317 69.3237L65.4424 59.4316C65.5968 58.8134 65.7511 58.2724 65.9055 57.6542C66.4457 55.1039 66.6772 52.4763 66.6 49.8487C66.5229 49.385 66.4457 48.9213 66.4457 48.4576Z" fill="white"/>
<path d="M251.277 23.4935H75.4763C74.2415 20.7114 72.698 18.0065 70.8459 15.6108C69.4567 13.756 67.8361 11.9786 66.0611 10.3556C65.2122 9.58282 64.2861 8.81 63.3601 8.11447C63.1285 7.9599 62.897 7.72806 62.6655 7.5735L62.2796 7.34165L61.9709 7.1098C61.5079 6.7234 60.9677 6.41427 60.5047 6.10514C56.5688 3.55484 52.1699 1.77736 47.6167 0.772696C43.0635 -0.154686 38.3559 -0.30925 33.8799 0.463569C30.5614 1.00454 27.3973 1.93192 24.3876 3.24571C27.7832 1.85464 31.4103 0.927259 35.0375 0.54085C39.9766 -0.000122374 45.07 0.54085 49.8547 1.93192C54.6395 3.40028 59.1927 5.71873 63.0514 8.88729C66.9872 12.0558 70.2285 15.9972 72.6208 20.4796C75.0132 24.9619 76.5567 29.9079 77.0969 34.9313C77.5599 40.0319 77.0969 45.2097 75.5534 50.0785C74.0871 54.9472 71.6176 59.5841 68.2991 63.5255C65.0579 67.4669 60.9677 70.7127 56.4145 73.1085C51.8612 75.5042 46.845 76.9726 41.7515 77.359C36.6581 77.7454 31.4875 77.2044 26.6256 75.5815C21.7637 74.0359 17.2104 71.4855 13.3518 68.1624C9.49311 64.8393 6.32901 60.7434 4.09099 56.261C2.39317 52.9379 1.23558 49.3057 0.541016 45.6734C1.23558 51.3923 3.16491 56.9566 6.25184 61.8253C11.1909 69.5535 19.0626 75.5042 28.0919 78.1318C29.944 78.6728 31.7962 79.0592 33.6483 79.291C34.0342 79.4456 34.4201 79.6001 34.8059 79.7547C37.8929 81.0685 41.057 82.4596 44.1439 83.8506C50.3178 86.7101 56.4916 89.6468 62.5112 92.8153C68.5307 95.9839 74.473 99.3843 80.261 102.939C86.049 106.571 91.7598 110.436 97.0848 114.686C92.2229 109.895 86.9751 105.335 81.4958 101.084C76.0936 96.834 70.46 92.738 64.7492 88.874C59.347 85.2417 53.8677 81.764 48.3113 78.4409C49.0058 78.2863 49.7004 78.0545 50.395 77.8999C55.334 80.8366 60.2731 83.8506 65.135 87.0192C75.1676 93.4336 84.9686 100.234 94.3837 107.576C85.9718 99.1524 77.0197 91.1151 67.8361 83.3869C64.4405 80.5275 60.9677 77.7454 57.4949 75.0405C59.5014 73.9586 61.4307 72.7221 63.2057 71.331C69.1481 75.2724 75.1676 79.2137 81.1099 83.2324C88.1327 87.9466 95.1554 92.6608 102.101 97.5295C109.047 102.321 115.992 107.19 122.783 112.213C116.455 106.571 109.973 101.162 103.49 95.6748C97.0076 90.265 90.3707 84.8553 83.811 79.5229C78.5632 75.2724 73.3154 71.0991 68.0676 66.8486C68.4535 66.4622 68.7622 66.0758 69.1481 65.6894L91.9913 82.9233C106.577 93.9746 121.24 104.949 135.903 115.923C122.166 103.789 108.506 91.5788 94.8468 79.3683L73.2382 60.0478C74.01 58.734 74.7045 57.4203 75.3219 56.0292C75.6306 55.3337 75.9393 54.6381 76.1708 53.9426C82.1903 58.9659 88.287 63.9892 94.4609 68.9352C100.943 74.1131 107.426 79.2137 114.063 84.1598C120.7 89.1058 127.414 93.9746 134.359 98.3796C127.877 93.279 121.626 87.8693 115.529 82.3823C109.432 76.8953 103.413 71.1764 97.4706 65.5349C91.5283 59.816 85.6631 54.0199 79.8751 48.2237C79.3349 47.6828 78.7947 47.1418 78.2545 46.6008C78.486 45.3643 78.6404 44.1278 78.7175 42.8913C78.7947 42.9686 78.8719 43.1231 78.9491 43.2004C83.5023 48.5329 88.2098 53.7107 93.0718 58.6568C97.9337 63.6801 102.95 68.5488 108.198 73.1085C113.446 77.7454 118.848 82.0732 124.558 86.0145C119.311 81.4549 114.449 76.5862 109.741 71.4855C109.587 71.2537 109.355 71.0991 109.201 70.8673H167.39L168.161 66.4622H253.978L260.538 35.0858C262.004 29.1351 257.451 23.4935 251.277 23.4935ZM112.519 50.3103L112.056 52.0105C111.13 55.6428 108.275 57.5748 104.108 57.5748C98.8598 57.5748 97.1619 54.0971 97.9337 50.9286C98.088 50.1558 98.2424 49.5375 98.4739 48.842L103.104 48.7647C102.95 49.6148 102.718 50.2331 102.487 51.0059C102.024 52.9379 102.95 53.8653 104.493 53.8653C106.114 53.8653 107.272 52.9379 107.58 51.7014L108.043 50.0785C108.661 47.76 108.043 46.7554 105.034 45.3643C101.561 43.6641 100.866 41.1911 101.638 38.1771L102.024 36.7087C102.95 33.4629 105.419 31.0672 109.896 31.0672C113.909 31.0672 116.841 33.0765 116.069 37.2497C115.838 38.0225 115.684 38.5635 115.529 39.3363L110.899 39.4136C111.13 38.6408 111.285 38.0225 111.439 37.2497C111.825 35.6268 110.976 34.7767 109.51 34.7767C108.043 34.7767 106.809 35.7041 106.5 36.9406L106.114 38.4089C105.651 40.1864 105.805 41.1911 108.738 42.6594C112.211 44.5915 113.446 46.9099 112.519 50.3103ZM120.391 57.6521C115.684 57.6521 112.982 54.87 114.372 49.6148L117.15 39.1045C118.539 33.9266 121.626 31.2217 126.333 31.2217C131.041 31.2217 133.742 33.9266 132.43 39.1045L129.652 49.6148C128.263 54.87 125.176 57.6521 120.391 57.6521ZM146.167 50.774C145.164 54.7154 142.154 57.6521 137.446 57.6521C132.739 57.6521 129.961 54.9472 131.273 49.7694L134.128 39.0272C135.517 33.8493 138.681 31.2217 143.389 31.2217C148.096 31.2217 150.566 34.0812 149.485 38.1771L148.482 42.0412L143.852 42.1185C144.16 40.882 144.624 39.3363 144.932 38.0998C145.472 36.0132 144.392 35.0085 142.926 35.0085C140.996 35.0085 139.607 36.3223 138.913 38.8726L135.826 50.0012C135.208 52.4742 135.98 53.8653 137.832 53.8653C139.376 53.8653 140.919 52.9379 141.459 50.8513L142.54 46.6008L147.17 46.6781C146.939 47.9919 146.553 49.5375 146.167 50.774ZM154.347 57.6521C149.64 57.6521 146.862 54.9472 148.173 49.7694L151.029 39.0272C152.418 33.8493 155.582 31.2217 160.29 31.2217C164.997 31.2217 167.467 34.0812 166.386 38.1771L165.383 42.0412L160.753 42.1185C161.061 40.882 161.524 39.3363 161.833 38.0998C162.373 36.0132 161.293 35.0085 159.827 35.0085C157.897 35.0085 156.508 36.3223 155.814 38.8726L152.804 50.0012C152.186 52.4742 152.958 53.8653 154.81 53.8653C156.354 53.8653 157.897 52.9379 158.438 50.8513L159.518 46.6008L164.148 46.6781C163.84 47.9146 163.377 49.4602 163.068 50.6967C161.988 54.7154 159.055 57.6521 154.347 57.6521ZM177.654 53.7107L176.728 57.4203H163.531L170.477 31.4536H183.442L182.516 35.1631H174.104L172.329 41.9639H179.351L178.425 45.4416H171.325L169.165 53.7107H177.654ZM198.336 38.2544L198.027 39.3363C197.333 41.8866 195.944 43.4323 194.246 44.1278V44.2824C195.326 44.9779 195.944 46.1371 195.404 48.0692L193.397 55.6428C193.165 56.4156 193.397 56.802 193.937 56.8793L193.86 57.343H189.384C188.844 57.0338 188.612 56.3383 188.921 55.1791L190.773 48.301C191.159 46.6781 190.927 45.6734 189.384 45.6734H186.451L183.287 57.4203H178.657L185.603 31.4536H193.551C197.179 31.4536 199.571 33.5402 198.336 38.2544ZM204.433 57.4203H199.802L202.272 48.5329L201.037 31.4536H205.822L205.59 43.5095L211.841 31.4536H217.089L206.671 48.7647L204.433 57.4203ZM218.864 57.6521C214.157 57.6521 211.456 54.87 212.845 49.6148L215.623 39.1045C217.012 33.9266 220.099 31.2217 224.807 31.2217C229.514 31.2217 232.215 33.9266 230.903 39.1045L228.125 49.6148C226.659 54.87 223.572 57.6521 218.864 57.6521ZM244.409 50.0012C243.097 55.1018 240.396 57.6521 235.765 57.6521C231.135 57.6521 228.434 55.1018 229.823 50.0012L234.762 31.4536H239.392L234.299 50.5422C233.681 52.7834 234.376 53.8653 236.074 53.8653C237.772 53.8653 239.006 52.7834 239.701 50.5422L244.794 31.4536H249.425L244.409 50.0012Z" fill="white"/>
<path d="M6.94516 52.2446C7.0995 52.3991 7.33102 52.5537 7.48537 52.7083C9.56905 54.4085 11.8071 55.9541 14.1223 57.4224C14.5853 57.6543 14.9712 57.9634 15.4342 58.1953L15.5114 58.118L24.5407 48.7669C24.3863 47.8395 24.232 46.9121 24.0776 45.9847C23.7689 43.8208 23.5374 41.5797 23.3059 39.3385C23.1515 37.1746 22.9972 34.9334 22.92 32.6923L22.8428 32.615L11.4984 25.9688C10.6495 26.587 9.87774 27.2825 9.18318 27.9781C8.41145 28.7509 7.63971 29.5237 6.94516 30.2965C6.01908 31.3012 5.17017 32.3831 4.39844 33.4651L6.94516 52.2446ZM10.1093 51.9354C10.8038 52.2446 11.4212 52.5537 12.1158 52.8628C12.7332 53.2492 13.4277 53.5584 14.0451 53.9448L14.5081 54.2539C14.6625 54.3312 14.7397 54.4085 14.8168 54.4857C14.894 54.563 14.9712 54.563 15.0483 54.563L16.9005 53.0947C17.5951 52.5537 18.2125 52.0127 18.907 51.549C19.6016 51.0081 20.2961 50.5444 20.9907 50.0807C21.6852 49.617 22.3798 49.1533 23.1515 48.6896L15.4342 55.3358C15.2799 55.4904 15.1255 55.4904 14.894 55.4904C14.7397 55.4904 14.5081 55.4131 14.3538 55.3358C14.0451 55.1813 13.7364 54.9494 13.4277 54.7176C12.8103 54.3312 12.1929 53.9448 11.5756 53.4811C10.3408 52.7083 9.10601 51.9354 7.87123 51.1626C8.72014 51.3945 9.4147 51.6263 10.1093 51.9354Z" fill="white"/>
<path d="M67.4502 47.757C67.5274 48.3753 67.6046 49.0708 67.6817 49.6891C67.9904 52.3939 67.9904 55.1761 67.6046 57.8809C67.5274 58.2673 67.4502 58.6537 67.373 58.9629L67.9904 59.0402C70.0741 56.0262 71.7719 52.7803 72.8523 49.3026C74.3186 44.743 74.936 39.9515 74.5502 35.2374C74.5502 34.8509 74.473 34.4645 74.473 34.0781L72.9295 34.6191L67.4502 47.757Z" fill="white"/>
<path d="M0.849104 35.8621L0.926277 35.7075C1.46649 29.6023 3.55017 23.5743 7.17731 18.1645C7.94904 16.8508 8.87512 15.6142 9.8012 14.455C11.1903 12.7548 12.811 11.1319 14.5088 9.66355C17.3642 7.03596 20.7598 4.79479 24.387 3.17188C23.2294 3.63557 22.0718 4.17654 20.9142 4.79479C19.8337 5.41305 18.7533 5.95402 17.6729 6.64956C16.5925 7.34509 15.5892 8.04063 14.6631 8.81345C12.7338 10.3591 10.8816 12.0593 9.26099 13.914C6.01971 17.8554 3.47299 22.2605 1.92953 27.052C0.386064 31.8434 -0.308495 36.8667 0.077371 41.8901C0.154544 43.2039 0.308891 44.5176 0.540411 45.7542C0.231717 42.431 0.308891 39.1079 0.849104 35.8621Z" fill="white"/>
</svg>
