<svg width="62" height="72" viewBox="0 0 62 72" fill="none" xmlns="http://www.w3.org/2000/svg">
<g clip-path="url(#clip0_502_992)">
<path d="M1 9.8V5.3C1 2.9 2.9 1 5.3 1H56C58.4 1 60.3 2.9 60.3 5.3V66.2C60.3 68.6 58.4 70.5 56 70.5H5.3C2.9 70.5 1 68.6 1 66.2V26.1V9.8Z" stroke="white" stroke-width="2" stroke-miterlimit="10"/>
<path fill-rule="evenodd" clip-rule="evenodd" d="M51.1996 62.6999H10.0996C8.69961 62.6999 7.59961 61.5999 7.59961 60.1999V48.8999C7.59961 47.4999 8.69961 46.3999 10.0996 46.3999H51.1996C52.5996 46.3999 53.6996 47.4999 53.6996 48.8999V60.2999C53.6996 61.5999 52.4996 62.6999 51.1996 62.6999Z" stroke="white" stroke-width="2" stroke-miterlimit="10"/>
<path d="M15.3998 50.6001H19.7998C20.7998 50.6001 21.4998 50.8001 21.9998 51.3001C22.4998 51.8001 22.6998 52.4001 22.6998 53.3001C22.6998 54.2001 22.3998 54.8001 21.8998 55.3001C21.3998 55.8001 20.4998 56.0001 19.4998 56.0001H17.9998V59.2001H15.2998V50.6001H15.3998ZM17.9998 54.2001H18.6998C19.1998 54.2001 19.5998 54.1001 19.7998 53.9001C19.9998 53.7001 20.0998 53.5001 20.0998 53.2001C20.0998 52.9001 19.9998 52.7001 19.7998 52.5001C19.5998 52.3001 19.2998 52.2001 18.7998 52.2001H17.9998V54.2001Z" fill="#E05263"/>
<path d="M25.2998 50.6001H27.7998L30.9998 55.4001V50.6001H33.4998V59.2001H30.9998L27.7998 54.5001V59.2001H25.2998V50.6001Z" fill="#E05263"/>
<path d="M40.6996 56.1V54.3H44.7996V58C43.9996 58.5 43.2996 58.9 42.6996 59.1C42.0996 59.3 41.3996 59.4 40.5996 59.4C39.5996 59.4 38.6996 59.2 38.0996 58.9C37.4996 58.6 36.9996 58 36.5996 57.3C36.1996 56.6 36.0996 55.8 36.0996 54.9C36.0996 54 36.2996 53.1 36.6996 52.5C37.0996 51.9 37.6996 51.3 38.3996 50.9C38.9996 50.6 39.7996 50.5 40.6996 50.5C41.5996 50.5 42.3996 50.6 42.7996 50.8C43.1996 51 43.6996 51.2 43.9996 51.6C44.2996 52 44.4996 52.4 44.6996 53L42.0996 53.5C41.9996 53.2 41.7996 52.9 41.5996 52.8C41.3996 52.7 40.9996 52.5 40.5996 52.5C39.9996 52.5 39.5996 52.7 39.1996 53.1C38.7996 53.5 38.6996 54.1 38.6996 55C38.6996 55.9 38.8996 56.6 39.1996 57C39.4996 57.4 39.9996 57.6 40.6996 57.6C40.9996 57.6 41.2996 57.6 41.4996 57.5C41.6996 57.4 42.0996 57.3 42.3996 57.1V56.3H40.6996V56.1Z" fill="#E05263"/>
<path d="M10.4 33.1004L22.3 21.2004C22.7 20.8004 23.5 20.8004 23.9 21.2004L35.8 33.1004C36.5 33.8004 36 35.1004 35 35.1004H11.2C10.2 35.1004 9.60001 33.8004 10.4 33.1004Z" stroke="white" stroke-width="2" stroke-miterlimit="10"/>
<path d="M39.2999 23.6004L44.6999 18.2004C45.0999 17.8004 45.8999 17.8004 46.2999 18.2004L51.6999 23.6004C52.3999 24.3004 51.8999 25.6004 50.8999 25.6004H40.0999C39.0999 25.6004 38.5999 24.3004 39.2999 23.6004Z" stroke="white" stroke-width="2" stroke-miterlimit="10"/>
<path d="M32.6998 16.5002C34.5776 16.5002 36.0998 14.978 36.0998 13.1002C36.0998 11.2224 34.5776 9.7002 32.6998 9.7002C30.822 9.7002 29.2998 11.2224 29.2998 13.1002C29.2998 14.978 30.822 16.5002 32.6998 16.5002Z" stroke="white" stroke-width="2" stroke-miterlimit="10"/>
</g>
<defs>
<clipPath id="clip0_502_992">
<rect width="61.2" height="71.4" fill="white"/>
</clipPath>
</defs>
</svg>
