<svg width="62" height="72" viewBox="0 0 62 72" fill="none" xmlns="http://www.w3.org/2000/svg">
<g clip-path="url(#clip0_502_982)">
<path fill-rule="evenodd" clip-rule="evenodd" d="M44.5995 27.7002C44.5995 27.5002 44.3995 27.2002 44.1995 27.0002C43.5995 26.4002 42.3995 26.2002 40.4995 26.1002C39.1995 26.1002 37.6995 26.2002 36.0995 26.4002C35.3995 26.0002 34.5995 25.5002 33.9995 25.0002C32.3995 23.5002 31.0995 21.5002 30.2995 19.2002C30.3995 19.0002 30.3995 18.8002 30.3995 18.6002C30.3995 18.6002 31.2995 13.5002 31.0995 11.8002C31.0995 11.6002 30.9995 11.5002 30.9995 11.3002L30.8995 11.1002C30.6995 10.5002 30.1995 9.90024 29.3995 10.0002H28.9995C28.1995 10.0002 27.4995 10.4002 27.2995 11.1002C26.7995 13.1002 27.2995 16.1002 28.2995 19.9002L27.9995 20.6002C27.2995 22.4002 26.3995 24.1002 25.5995 25.7002L25.4995 25.9002C24.6995 27.5002 23.8995 28.9002 23.1995 30.1002L22.4995 30.5002C22.3995 30.5002 21.1995 31.2002 20.8995 31.4002C18.4995 32.9002 16.7995 34.5002 16.5995 35.8002C16.4995 36.2002 16.5995 36.8002 16.9995 37.0002L17.6995 37.3002C17.9995 37.5002 18.2995 37.5002 18.5995 37.5002C20.2995 37.5002 22.3995 35.3002 25.0995 30.5002C28.2995 29.5002 31.9995 28.6002 35.1995 28.1002C37.5995 29.5002 40.5995 30.4002 42.4995 30.4002C42.7995 30.4002 43.0995 30.4002 43.3995 30.3002C43.7995 30.2002 44.0995 30.0002 44.2995 29.7002C44.5995 29.3002 44.6995 28.5002 44.5995 27.7002ZM18.2995 36.3002C18.5995 35.4002 19.8995 33.7002 21.6995 32.2002C21.7995 32.1002 22.0995 31.8002 22.3995 31.6002C20.3995 34.6002 19.0995 35.9002 18.2995 36.3002ZM29.1995 11.0002C29.7995 11.0002 30.0995 12.4002 30.0995 13.7002C30.0995 15.0002 29.7995 15.9002 29.3995 16.6002C29.1995 15.6002 28.9995 14.0002 28.9995 13.0002C28.9995 13.0002 28.9995 11.0002 29.1995 11.0002ZM25.9995 29.0002C26.3995 28.3002 26.7995 27.6002 27.1995 26.8002C28.1995 24.9002 28.7995 23.4002 29.2995 22.2002C30.1995 23.9002 31.3995 25.4002 32.7995 26.5002C32.9995 26.6002 33.1995 26.8002 33.2995 26.9002C30.4995 27.5002 28.0995 28.2002 25.9995 29.0002ZM43.6995 28.8002C43.4995 28.9002 42.9995 29.0002 42.6995 29.0002C41.6995 29.0002 40.3995 28.5002 38.6995 27.8002C39.3995 27.8002 39.9995 27.7002 40.5995 27.7002C41.5995 27.7002 41.8995 27.7002 42.8995 28.0002C43.7995 28.2002 43.7995 28.7002 43.6995 28.8002Z" fill="white"/>
<path d="M1 9.8V5.3C1 2.9 2.9 1 5.3 1H56C58.4 1 60.3 2.9 60.3 5.3V66.2C60.3 68.6 58.4 70.5 56 70.5H5.3C2.9 70.5 1 68.6 1 66.2V26.1V9.8Z" stroke="white" stroke-width="2" stroke-miterlimit="10"/>
<path fill-rule="evenodd" clip-rule="evenodd" d="M51.1996 62.6999H10.0996C8.69961 62.6999 7.59961 61.5999 7.59961 60.1999V48.8999C7.59961 47.4999 8.69961 46.3999 10.0996 46.3999H51.1996C52.5996 46.3999 53.6996 47.4999 53.6996 48.8999V60.2999C53.6996 61.5999 52.4996 62.6999 51.1996 62.6999Z" stroke="white" stroke-width="2" stroke-miterlimit="10"/>
<path d="M16.6996 50.6001H21.0996C22.0996 50.6001 22.7996 50.8001 23.2996 51.3001C23.7996 51.8001 23.9996 52.4001 23.9996 53.3001C23.9996 54.2001 23.6996 54.8001 23.1996 55.3001C22.6996 55.8001 21.8996 56.0001 20.7996 56.0001H19.2996V59.2001H16.5996V50.6001H16.6996ZM19.2996 54.2001H19.9996C20.4996 54.2001 20.8996 54.1001 21.0996 53.9001C21.2996 53.7001 21.3996 53.5001 21.3996 53.2001C21.3996 52.9001 21.2996 52.7001 21.0996 52.5001C20.8996 52.3001 20.5996 52.2001 20.0996 52.2001H19.2996V54.2001Z" fill="#E05263"/>
<path d="M26.5996 50.6001H30.4996C31.2996 50.6001 31.8996 50.7001 32.3996 50.9001C32.8996 51.1001 33.2996 51.4001 33.5996 51.8001C33.8996 52.2001 34.0996 52.7001 34.2996 53.2001C34.4996 53.7001 34.4996 54.3001 34.4996 54.9001C34.4996 55.8001 34.3996 56.5001 34.1996 57.0001C33.9996 57.5001 33.6996 57.9001 33.2996 58.3001C32.8996 58.7001 32.4996 58.9001 32.0996 59.0001C31.4996 59.2001 30.9996 59.2001 30.4996 59.2001H26.5996V50.6001ZM29.1996 52.5001V57.2001H29.8996C30.4996 57.2001 30.7996 57.1001 31.0996 57.0001C31.3996 56.9001 31.4996 56.7001 31.6996 56.4001C31.8996 56.1001 31.8996 55.6001 31.8996 54.9001C31.8996 54.0001 31.7996 53.4001 31.4996 53.0001C31.1996 52.6001 30.6996 52.5001 29.9996 52.5001H29.1996Z" fill="#E05263"/>
<path d="M37.0996 50.6001H43.6996V52.4001H39.7996V53.9001H43.0996V55.6001H39.7996V59.1001H37.0996V50.6001Z" fill="#E05263"/>
</g>
<defs>
<clipPath id="clip0_502_982">
<rect width="61.2" height="71.4" fill="white"/>
</clipPath>
</defs>
</svg>
