<svg width="62" height="72" viewBox="0 0 62 72" fill="none" xmlns="http://www.w3.org/2000/svg">
<g clip-path="url(#clip0_502_940)">
<path d="M1 9.8V5.3C1 2.9 2.9 1 5.3 1H56C58.4 1 60.3 2.9 60.3 5.3V66.2C60.3 68.6 58.4 70.5 56 70.5H5.3C2.9 70.5 1 68.6 1 66.2V26.1V9.8Z" stroke="white" stroke-width="2" stroke-miterlimit="10"/>
<path fill-rule="evenodd" clip-rule="evenodd" d="M51.1996 62.6999H10.0996C8.69961 62.6999 7.59961 61.5999 7.59961 60.1999V48.8999C7.59961 47.4999 8.69961 46.3999 10.0996 46.3999H51.1996C52.5996 46.3999 53.6996 47.4999 53.6996 48.8999V60.2999C53.6996 61.5999 52.4996 62.6999 51.1996 62.6999Z" stroke="white" stroke-width="2" stroke-miterlimit="10"/>
<path d="M19.8992 50.6001H22.5992V55.3001C22.5992 56.3001 22.4992 57.0001 22.2992 57.5001C22.0992 58.0001 21.7992 58.4001 21.2992 58.8001C20.7992 59.2001 20.0992 59.3001 19.2992 59.3001C18.3992 59.3001 17.7992 59.2001 17.2992 58.9001C16.7992 58.6001 16.4992 58.3001 16.1992 57.9001C15.8992 57.5001 15.7992 56.9001 15.6992 56.2001L18.1992 55.9001C18.1992 56.3001 18.1992 56.6001 18.2992 56.7001C18.3992 56.8001 18.4992 57.0001 18.5992 57.1001C18.6992 57.2001 18.7992 57.2001 18.9992 57.2001C19.2992 57.2001 19.4992 57.1001 19.6992 56.9001C19.7992 56.7001 19.8992 56.3001 19.8992 55.8001V50.6001Z" fill="#E05263"/>
<path d="M25.599 50.6001H29.999C30.999 50.6001 31.699 50.8001 32.199 51.3001C32.699 51.8001 32.899 52.4001 32.899 53.3001C32.899 54.2001 32.599 54.8001 32.099 55.3001C31.599 55.8001 30.699 56.0001 29.699 56.0001H28.199V59.2001H25.499V50.6001H25.599ZM28.199 54.2001H28.899C29.399 54.2001 29.799 54.1001 29.999 53.9001C30.199 53.7001 30.299 53.5001 30.299 53.2001C30.299 52.9001 30.199 52.7001 29.999 52.5001C29.799 52.3001 29.499 52.2001 28.999 52.2001H28.199V54.2001Z" fill="#E05263"/>
<path d="M39.7992 56.1V54.3H43.8992V58C43.0992 58.5 42.3992 58.9 41.7992 59.1C41.1992 59.3 40.4992 59.4 39.6992 59.4C38.6992 59.4 37.7992 59.2 37.1992 58.9C36.5992 58.6 36.0992 58 35.6992 57.3C35.2992 56.6 35.1992 55.8 35.1992 54.9C35.1992 54 35.3992 53.1 35.7992 52.5C36.1992 51.9 36.7992 51.3 37.4992 50.9C38.0992 50.6 38.8992 50.5 39.7992 50.5C40.6992 50.5 41.4992 50.6 41.8992 50.8C42.2992 51 42.7992 51.2 43.0992 51.6C43.3992 52 43.5992 52.4 43.7992 53L41.1992 53.5C41.0992 53.2 40.8992 52.9 40.6992 52.8C40.4992 52.7 40.0992 52.5 39.6992 52.5C39.0992 52.5 38.6992 52.7 38.2992 53.1C37.8992 53.5 37.7992 54.1 37.7992 55C37.7992 55.9 37.9992 56.6 38.2992 57C38.5992 57.4 39.0992 57.6 39.7992 57.6C40.0992 57.6 40.3992 57.6 40.5992 57.5C40.7992 57.4 41.1992 57.3 41.4992 57.1V56.3H39.7992V56.1Z" fill="#E05263"/>
<path d="M10.4 33.1004L22.3 21.2004C22.7 20.8004 23.5 20.8004 23.9 21.2004L35.8 33.1004C36.5 33.8004 36 35.1004 35 35.1004H11.2C10.2 35.1004 9.60001 33.8004 10.4 33.1004Z" stroke="white" stroke-width="2" stroke-miterlimit="10"/>
<path d="M39.2999 23.6004L44.6999 18.2004C45.0999 17.8004 45.8999 17.8004 46.2999 18.2004L51.6999 23.6004C52.3999 24.3004 51.8999 25.6004 50.8999 25.6004H40.0999C39.0999 25.6004 38.5999 24.3004 39.2999 23.6004Z" stroke="white" stroke-width="2" stroke-miterlimit="10"/>
<path d="M32.6998 16.5002C34.5776 16.5002 36.0998 14.978 36.0998 13.1002C36.0998 11.2224 34.5776 9.7002 32.6998 9.7002C30.822 9.7002 29.2998 11.2224 29.2998 13.1002C29.2998 14.978 30.822 16.5002 32.6998 16.5002Z" stroke="white" stroke-width="2" stroke-miterlimit="10"/>
</g>
<defs>
<clipPath id="clip0_502_940">
<rect width="61.2" height="71.4" fill="white"/>
</clipPath>
</defs>
</svg>
