<svg width="31" height="31" viewBox="0 0 31 31" fill="none" xmlns="http://www.w3.org/2000/svg">
<path d="M6.68031 9.59012C8.19081 9.59012 9.41531 8.36562 9.41531 6.85512C9.41531 5.34462 8.19081 4.12012 6.68031 4.12012C5.16981 4.12012 3.94531 5.34462 3.94531 6.85512C3.94531 8.36562 5.16981 9.59012 6.68031 9.59012Z" fill="white"/>
<path d="M11.9978 11.6626V26.8363H16.7091V19.3326C16.7091 17.3526 17.0816 15.4351 19.5366 15.4351C21.9578 15.4351 21.9878 17.6988 21.9878 19.4576V26.8376H26.7016V18.5163C26.7016 14.4288 25.8216 11.2876 21.0441 11.2876C18.7503 11.2876 17.2128 12.5463 16.5841 13.7376H16.5203V11.6626H11.9978ZM4.32031 11.6626H9.03906V26.8363H4.32031V11.6626Z" fill="white"/>
</svg>
