<svg width="26" height="32" viewBox="0 0 26 32" fill="none" xmlns="http://www.w3.org/2000/svg">
<path d="M12.9542 0.566406C16.3713 0.566406 19.6483 1.92382 22.0646 4.34002C24.4808 6.75623 25.8382 10.0333 25.8382 13.4503C25.8382 18.8946 22.0126 24.8278 14.4607 31.3134C14.0407 31.6741 13.5054 31.8723 12.9518 31.8718C12.3982 31.8713 11.8631 31.6722 11.4438 31.3108L10.9443 30.8773C3.72671 24.5609 0.0703125 18.773 0.0703125 13.4503C0.0703125 10.0333 1.42772 6.75623 3.84393 4.34002C6.26013 1.92382 9.53721 0.566406 12.9542 0.566406ZM12.9542 2.54855C10.0629 2.54855 7.29 3.69713 5.24551 5.74161C3.20103 7.78609 2.05246 10.559 2.05246 13.4503C2.05246 18.078 5.41946 23.4099 12.246 29.3828L12.7388 29.8096C12.7988 29.8612 12.8752 29.8895 12.9542 29.8895C13.0333 29.8895 13.1097 29.8612 13.1696 29.8096C20.3265 23.6623 23.856 18.1877 23.856 13.4503C23.856 12.0187 23.574 10.6011 23.0262 9.2784C22.4783 7.95574 21.6753 6.75393 20.663 5.74161C19.6506 4.72928 18.4488 3.92626 17.1262 3.3784C15.8035 2.83053 14.3859 2.54855 12.9542 2.54855ZM12.9542 8.49498C14.2685 8.49498 15.5289 9.01706 16.4582 9.94637C17.3875 10.8757 17.9096 12.1361 17.9096 13.4503C17.9096 14.7646 17.3875 16.025 16.4582 16.9543C15.5289 17.8836 14.2685 18.4057 12.9542 18.4057C11.64 18.4057 10.3796 17.8836 9.45027 16.9543C8.52096 16.025 7.99888 14.7646 7.99888 13.4503C7.99888 12.1361 8.52096 10.8757 9.45027 9.94637C10.3796 9.01706 11.64 8.49498 12.9542 8.49498ZM12.9542 10.4771C12.1657 10.4771 11.4094 10.7904 10.8519 11.348C10.2943 11.9055 9.98103 12.6618 9.98103 13.4503C9.98103 14.2389 10.2943 14.9951 10.8519 15.5527C11.4094 16.1103 12.1657 16.4235 12.9542 16.4235C13.7428 16.4235 14.499 16.1103 15.0566 15.5527C15.6142 14.9951 15.9275 14.2389 15.9275 13.4503C15.9275 12.6618 15.6142 11.9055 15.0566 11.348C14.499 10.7904 13.7428 10.4771 12.9542 10.4771Z" fill="#BDE34F"/>
</svg>
