<svg width="27" height="33" viewBox="0 0 27 33" fill="none" xmlns="http://www.w3.org/2000/svg">
<path d="M13.4992 0.972656C16.9162 0.972656 20.1933 2.33007 22.6095 4.74627C25.0257 7.16248 26.3831 10.4396 26.3831 13.8566C26.3831 19.3009 22.5576 25.2341 15.0056 31.7197C14.5857 32.0804 14.0503 32.2785 13.4967 32.278C12.9431 32.2775 12.4081 32.0785 11.9888 31.717L11.4893 31.2836C4.27163 24.9672 0.615234 19.1793 0.615234 13.8566C0.615234 10.4396 1.97264 7.16248 4.38885 4.74627C6.80506 2.33007 10.0821 0.972656 13.4992 0.972656ZM13.4992 2.9548C10.6078 2.9548 7.83492 4.10338 5.79044 6.14786C3.74596 8.19234 2.59738 10.9653 2.59738 13.8566C2.59738 18.4842 5.96438 23.8162 12.7909 29.789L13.2838 30.2159C13.3437 30.2674 13.4201 30.2957 13.4992 30.2957C13.5782 30.2957 13.6546 30.2674 13.7146 30.2159C20.8714 24.0686 24.4009 18.5939 24.4009 13.8566C24.4009 12.4249 24.119 11.0073 23.5711 9.68465C23.0232 8.36199 22.2202 7.16018 21.2079 6.14786C20.1956 5.13553 18.9938 4.33251 17.6711 3.78465C16.3484 3.23678 14.9308 2.9548 13.4992 2.9548ZM13.4992 8.90123C14.8134 8.90123 16.0738 9.42331 17.0031 10.3526C17.9324 11.2819 18.4545 12.5423 18.4545 13.8566C18.4545 15.1708 17.9324 16.4312 17.0031 17.3605C16.0738 18.2899 14.8134 18.8119 13.4992 18.8119C12.1849 18.8119 10.9245 18.2899 9.9952 17.3605C9.06589 16.4312 8.54381 15.1708 8.54381 13.8566C8.54381 12.5423 9.06589 11.2819 9.9952 10.3526C10.9245 9.42331 12.1849 8.90123 13.4992 8.90123ZM13.4992 10.8834C12.7106 10.8834 11.9544 11.1966 11.3968 11.7542C10.8392 12.3118 10.5259 13.068 10.5259 13.8566C10.5259 14.6451 10.8392 15.4014 11.3968 15.959C11.9544 16.5165 12.7106 16.8298 13.4992 16.8298C14.2877 16.8298 15.044 16.5165 15.6015 15.959C16.1591 15.4014 16.4724 14.6451 16.4724 13.8566C16.4724 13.068 16.1591 12.3118 15.6015 11.7542C15.044 11.1966 14.2877 10.8834 13.4992 10.8834Z" fill="#4C914C"/>
</svg>
