<svg width="24" height="18" viewBox="0 0 24 18" fill="none" xmlns="http://www.w3.org/2000/svg">
<path d="M22.0781 0.65625H1.82812C1.38057 0.65625 0.95135 0.83404 0.634882 1.15051C0.318415 1.46697 0.140625 1.8962 0.140625 2.34375V15.8438C0.140625 16.2913 0.318415 16.7205 0.634882 17.037C0.95135 17.3535 1.38057 17.5312 1.82812 17.5312H22.0781C22.5257 17.5312 22.9549 17.3535 23.2714 17.037C23.5878 16.7205 23.7656 16.2913 23.7656 15.8438V2.34375C23.7656 1.8962 23.5878 1.46697 23.2714 1.15051C22.9549 0.83404 22.5257 0.65625 22.0781 0.65625ZM20.2219 2.34375L11.9531 8.06437L3.68437 2.34375H20.2219ZM1.82812 15.8438V3.11156L11.4722 9.78562C11.6134 9.88361 11.7812 9.93611 11.9531 9.93611C12.125 9.93611 12.2928 9.88361 12.4341 9.78562L22.0781 3.11156V15.8438H1.82812Z" fill="#BDE34F"/>
</svg>
