<svg width="25" height="17" viewBox="0 0 25 17" fill="none" xmlns="http://www.w3.org/2000/svg">
<path d="M22.625 0.0625H2.375C1.92745 0.0625 1.49822 0.24029 1.18176 0.556757C0.86529 0.873225 0.6875 1.30245 0.6875 1.75V15.25C0.6875 15.6976 0.86529 16.1268 1.18176 16.4432C1.49822 16.7597 1.92745 16.9375 2.375 16.9375H22.625C23.0726 16.9375 23.5018 16.7597 23.8182 16.4432C24.1347 16.1268 24.3125 15.6976 24.3125 15.25V1.75C24.3125 1.30245 24.1347 0.873225 23.8182 0.556757C23.5018 0.24029 23.0726 0.0625 22.625 0.0625ZM20.7687 1.75L12.5 7.47062L4.23125 1.75H20.7687ZM2.375 15.25V2.51781L12.0191 9.19187C12.1603 9.28986 12.3281 9.34236 12.5 9.34236C12.6719 9.34236 12.8397 9.28986 12.9809 9.19187L22.625 2.51781V15.25H2.375Z" fill="#4C914C"/>
</svg>
