<svg width="62" height="72" viewBox="0 0 62 72" fill="none" xmlns="http://www.w3.org/2000/svg">
<g clip-path="url(#clip0_577_17301)">
<path fill-rule="evenodd" clip-rule="evenodd" d="M45.0517 28.2937C45.0517 28.0937 44.8517 27.7937 44.6517 27.5937C44.0517 26.9937 42.8517 26.7937 40.9517 26.6937C39.6517 26.6937 38.1517 26.7937 36.5517 26.9937C35.8517 26.5937 35.0517 26.0937 34.4517 25.5937C32.8517 24.0937 31.5517 22.0937 30.7517 19.7937C30.8517 19.5937 30.8517 19.3937 30.8517 19.1937C30.8517 19.1937 31.7517 14.0937 31.5517 12.3937C31.5517 12.1937 31.4517 12.0937 31.4517 11.8937L31.3517 11.6937C31.1517 11.0937 30.6517 10.4937 29.8517 10.5937H29.4517C28.6517 10.5937 27.9517 10.9937 27.7517 11.6937C27.2517 13.6937 27.7517 16.6937 28.7517 20.4937L28.4517 21.1937C27.7517 22.9937 26.8517 24.6937 26.0517 26.2937L25.9517 26.4937C25.1517 28.0937 24.3517 29.4937 23.6517 30.6937L22.9517 31.0937C22.8517 31.0937 21.6517 31.7937 21.3517 31.9937C18.9517 33.4937 17.2517 35.0937 17.0517 36.3937C16.9517 36.7937 17.0517 37.3937 17.4517 37.5937L18.1517 37.8937C18.4517 38.0937 18.7517 38.0937 19.0517 38.0937C20.7517 38.0937 22.8517 35.8937 25.5517 31.0937C28.7517 30.0937 32.4517 29.1937 35.6517 28.6937C38.0517 30.0937 41.0517 30.9937 42.9517 30.9937C43.2517 30.9937 43.5517 30.9937 43.8517 30.8937C44.2517 30.7937 44.5517 30.5937 44.7517 30.2937C45.0517 29.8937 45.1517 29.0937 45.0517 28.2937ZM18.7517 36.8937C19.0517 35.9937 20.3517 34.2937 22.1517 32.7937C22.2517 32.6937 22.5517 32.3937 22.8517 32.1937C20.8517 35.1937 19.5517 36.4937 18.7517 36.8937ZM29.6517 11.5937C30.2517 11.5937 30.5517 12.9937 30.5517 14.2937C30.5517 15.5937 30.2517 16.4937 29.8517 17.1937C29.6517 16.1937 29.4517 14.5937 29.4517 13.5937C29.4517 13.5937 29.4517 11.5937 29.6517 11.5937ZM26.4517 29.5937C26.8517 28.8937 27.2517 28.1937 27.6517 27.3937C28.6517 25.4937 29.2517 23.9937 29.7517 22.7937C30.6517 24.4937 31.8517 25.9937 33.2517 27.0937C33.4517 27.1937 33.6517 27.3937 33.7517 27.4937C30.9517 28.0937 28.5517 28.7937 26.4517 29.5937ZM44.1517 29.3937C43.9517 29.4937 43.4517 29.5937 43.1517 29.5937C42.1517 29.5937 40.8517 29.0937 39.1517 28.3937C39.8517 28.3937 40.4517 28.2937 41.0517 28.2937C42.0517 28.2937 42.3517 28.2937 43.3517 28.5937C44.2517 28.7937 44.2517 29.2937 44.1517 29.3937Z" fill="white"/>
<path d="M1.45312 10.3938V5.89375C1.45312 3.49375 3.35313 1.59375 5.75313 1.59375H56.4531C58.8531 1.59375 60.7531 3.49375 60.7531 5.89375V66.7937C60.7531 69.1937 58.8531 71.0938 56.4531 71.0938H5.75313C3.35313 71.0938 1.45312 69.1937 1.45312 66.7937V26.6938V10.3938Z" stroke="white" stroke-width="2" stroke-miterlimit="10"/>
<path fill-rule="evenodd" clip-rule="evenodd" d="M51.6547 63.2937H10.5547C9.15469 63.2937 8.05469 62.1937 8.05469 60.7937V49.4937C8.05469 48.0937 9.15469 46.9937 10.5547 46.9937H51.6547C53.0547 46.9937 54.1547 48.0937 54.1547 49.4937V60.8937C54.1547 62.1937 52.9547 63.2937 51.6547 63.2937Z" stroke="white" stroke-width="2" stroke-miterlimit="10"/>
<path d="M17.1547 51.1936H21.5547C22.5547 51.1936 23.2547 51.3936 23.7547 51.8936C24.2547 52.3936 24.4547 52.9936 24.4547 53.8936C24.4547 54.7936 24.1547 55.3936 23.6547 55.8936C23.1547 56.3936 22.3547 56.5936 21.2547 56.5936H19.7547V59.7936H17.0547V51.1936H17.1547ZM19.7547 54.7936H20.4547C20.9547 54.7936 21.3547 54.6936 21.5547 54.4936C21.7547 54.2936 21.8547 54.0936 21.8547 53.7936C21.8547 53.4936 21.7547 53.2936 21.5547 53.0936C21.3547 52.8936 21.0547 52.7936 20.5547 52.7936H19.7547V54.7936Z" fill="#E05263"/>
<path d="M27.0547 51.1936H30.9547C31.7547 51.1936 32.3547 51.2936 32.8547 51.4936C33.3547 51.6936 33.7547 51.9936 34.0547 52.3936C34.3547 52.7936 34.5547 53.2936 34.7547 53.7936C34.9547 54.2936 34.9547 54.8936 34.9547 55.4936C34.9547 56.3936 34.8547 57.0936 34.6547 57.5936C34.4547 58.0936 34.1547 58.4936 33.7547 58.8936C33.3547 59.2936 32.9547 59.4936 32.5547 59.5936C31.9547 59.7936 31.4547 59.7936 30.9547 59.7936H27.0547V51.1936ZM29.6547 53.0936V57.7936H30.3547C30.9547 57.7936 31.2547 57.6936 31.5547 57.5936C31.8547 57.4936 31.9547 57.2936 32.1547 56.9936C32.3547 56.6936 32.3547 56.1936 32.3547 55.4936C32.3547 54.5936 32.2547 53.9936 31.9547 53.5936C31.6547 53.1936 31.1547 53.0936 30.4547 53.0936H29.6547Z" fill="#E05263"/>
<path d="M37.5547 51.1936H44.1547V52.9936H40.2547V54.4936H43.5547V56.1936H40.2547V59.6936H37.5547V51.1936Z" fill="#E05263"/>
</g>
<defs>
<clipPath id="clip0_577_17301">
<rect width="61.2" height="71.4" fill="white" transform="translate(0.453125 0.59375)"/>
</clipPath>
</defs>
</svg>
