<svg width="219" height="97" viewBox="0 0 219 97" fill="none" xmlns="http://www.w3.org/2000/svg">
<path d="M170.304 67.5945C170.369 67.336 170.434 66.9483 170.499 66.7544H172.247C172.182 67.0129 172.053 67.4652 171.988 67.7237C171.859 68.2407 172.118 68.6931 172.7 68.6931C173.218 68.6931 173.607 68.37 173.736 67.9176C173.736 67.853 173.801 67.7237 173.801 67.7237C174.06 66.7544 173.736 66.5605 172.895 66.0435C171.6 65.3973 171.146 64.6218 171.405 63.5878L171.47 63.394C171.794 62.2954 172.571 61.3906 174.255 61.3906C175.809 61.3906 176.909 62.2954 176.65 63.7171C176.586 63.9756 176.521 64.1048 176.521 64.3633H174.708C174.773 64.1048 174.837 63.9109 174.902 63.6525C175.096 63.0062 174.643 62.7477 174.19 62.7477C173.672 62.7477 173.348 63.0062 173.218 63.4586C173.218 63.4586 173.218 63.5878 173.154 63.6525C173.024 64.2987 173.154 64.4926 173.996 65.0095C175.291 65.6558 175.873 66.4959 175.55 67.6591C175.55 67.7884 175.485 67.853 175.485 67.9822C175.161 69.2747 174.19 70.0502 172.571 70.0502C170.823 69.9209 169.981 68.7577 170.304 67.5945Z" fill="#E05263"/>
<path d="M182.479 61.4531H184.357L182.091 69.8542H180.213L180.472 68.8848C179.889 69.6603 179.177 70.0481 178.465 70.0481C177.04 70.0481 176.716 68.9495 177.169 67.2692L178.724 61.4531H180.601L179.047 67.3985C178.853 68.1094 178.918 68.6263 179.565 68.6263C180.213 68.6263 180.731 68.1094 180.925 67.3985L182.479 61.4531Z" fill="#E05263"/>
<path d="M184.357 66.9468L185.134 64.0388C185.588 62.4232 186.429 61.1953 188.437 61.1953C190.12 61.1953 191.156 62.2293 190.897 63.651L190.574 64.8142H188.696L189.02 63.651C189.149 62.9402 188.89 62.5524 188.372 62.5524C187.724 62.5524 187.271 63.0048 187.012 63.8449L186.17 67.0761C185.911 67.9162 186.17 68.3685 186.818 68.3685C187.401 68.3685 187.854 67.9808 188.048 67.2699C188.178 66.8176 188.243 66.4945 188.372 66.1067H190.25C190.12 66.4945 190.056 66.8822 189.926 67.2699C189.538 68.7563 188.566 69.7256 186.753 69.7256C184.681 69.9195 183.904 68.627 184.357 66.9468Z" fill="#E05263"/>
<path d="M191.286 66.9468L192.063 64.0388C192.516 62.4232 193.358 61.1953 195.365 61.1953C197.049 61.1953 198.085 62.2293 197.826 63.651L197.502 64.8142H195.624L195.948 63.651C196.078 62.9402 195.819 62.5524 195.3 62.5524C194.653 62.5524 194.2 63.0048 193.941 63.8449L193.099 67.0761C192.84 67.9162 193.099 68.3685 193.746 68.3685C194.329 68.3685 194.782 67.9808 194.977 67.2699C195.106 66.8176 195.171 66.4945 195.3 66.1067H197.178C197.049 66.4945 196.984 66.8822 196.855 67.2699C196.466 68.7563 195.495 69.7256 193.682 69.7256C191.674 69.9195 190.832 68.627 191.286 66.9468Z" fill="#E05263"/>
<path d="M198.279 67.0171L199.056 64.1091C199.444 62.4935 200.351 61.2656 202.423 61.2656C204.366 61.2656 205.207 62.6227 204.754 64.1737C204.56 64.9492 204.495 65.2723 204.301 65.9185H200.48L200.092 67.4049C199.962 68.1157 200.157 68.5681 200.804 68.5681C201.322 68.5681 201.775 68.245 201.97 67.5987L202.229 66.5648H204.107C203.977 66.8233 203.912 67.3402 203.783 67.6634C203.394 68.8912 202.488 69.8606 200.739 69.8606C198.603 69.9252 197.825 68.6327 198.279 67.0171ZM202.747 64.7553C202.812 64.4322 202.876 64.1737 203.006 63.8506C203.135 63.1397 202.941 62.6873 202.294 62.6873C201.711 62.6873 201.193 63.1397 200.998 63.8506C200.934 64.1737 200.869 64.4322 200.739 64.7553H202.747Z" fill="#E05263"/>
<path d="M212.136 62.4253L210.841 63.5885C210.841 63.0715 210.517 62.6838 209.999 62.6838C208.963 62.6838 208.316 63.7178 207.992 64.4932L207.539 66.2381L207.474 66.4319L206.567 69.7278H204.689L206.956 61.3267H208.769L208.51 62.3607C209.028 61.6498 209.74 61.1328 210.647 61.1328C211.489 61.2621 212.136 61.7144 212.136 62.4253Z" fill="#E05263"/>
<path d="M175.615 73.7344H177.622L173.672 82.1354C172.96 83.5572 171.924 85.0435 170.305 85.0435C169.787 85.0435 169.334 84.9143 168.945 84.5911L169.658 83.1048C169.852 83.3633 170.111 83.5572 170.499 83.5572C171.147 83.5572 171.73 82.8463 172.118 82.0708H171.147L171.665 73.7344H173.478L172.701 80.326H172.831L175.615 73.7344Z" fill="#E05263"/>
<path d="M177.105 79.2906L177.882 76.3825C178.336 74.7669 179.177 73.5391 181.185 73.5391C183.127 73.5391 183.969 74.8962 183.581 76.5117L182.804 79.4198C182.415 81.0354 181.509 82.2632 179.501 82.2632C177.429 82.1986 176.652 80.9061 177.105 79.2906ZM180.926 79.4844L181.768 76.2533C181.962 75.4131 181.768 74.9608 181.12 74.9608C180.473 74.9608 179.955 75.4131 179.76 76.2533L178.918 79.4844C178.659 80.3245 178.983 80.7769 179.566 80.7769C180.214 80.7769 180.667 80.3245 180.926 79.4844Z" fill="#E05263"/>
<path d="M189.473 73.7344H191.351L189.084 82.1354H187.206L187.466 81.1661C186.947 81.9416 186.235 82.3293 185.458 82.3293C184.098 82.3293 183.71 81.2307 184.163 79.5505L185.717 73.7344H187.595L186.041 79.6797C185.847 80.3906 185.911 80.9076 186.559 80.9076C187.206 80.9076 187.725 80.3906 187.919 79.6797L189.473 73.7344Z" fill="#E05263"/>
<path d="M198.214 74.7065L196.919 75.8698C196.855 75.3528 196.595 74.965 196.077 74.965C195.041 74.965 194.394 75.999 194.07 76.7745L193.617 78.5193L193.552 78.7132L192.645 82.009H190.768L193.034 73.6079H194.847L194.588 74.6419C195.106 73.9311 195.818 73.4141 196.725 73.4141C197.632 73.5433 198.214 73.9957 198.214 74.7065Z" fill="#E05263"/>
<path d="M170.304 92.1492C170.369 91.8907 170.434 91.5029 170.499 91.3091H172.247C172.182 91.5676 172.053 92.0199 171.988 92.2784C171.859 92.7954 172.118 93.2478 172.7 93.2478C173.218 93.2478 173.607 92.9247 173.736 92.4723C173.736 92.4077 173.801 92.2784 173.801 92.2784C174.06 91.3091 173.736 91.1152 172.895 90.5982C171.6 89.952 171.146 89.1765 171.405 88.1425L171.47 87.9486C171.794 86.85 172.571 85.9453 174.255 85.9453C175.809 85.9453 176.909 86.85 176.65 88.2718C176.586 88.5303 176.521 88.6595 176.521 88.918H174.708C174.773 88.6595 174.837 88.4656 174.902 88.2071C175.096 87.5609 174.643 87.3024 174.19 87.3024C173.672 87.3024 173.348 87.5609 173.218 88.0133C173.218 88.0133 173.218 88.1425 173.154 88.2071C173.024 88.8534 173.154 89.0472 173.996 89.5642C175.291 90.2105 175.873 91.0506 175.55 92.2138C175.55 92.343 175.485 92.4077 175.485 92.5369C175.161 93.8294 174.19 94.6049 172.571 94.6049C170.823 94.4756 169.981 93.3124 170.304 92.1492Z" fill="#E05263"/>
<path d="M177.105 91.5718L177.882 88.6637C178.271 87.0482 179.177 85.8203 181.185 85.8203C183.127 85.8203 183.969 87.1774 183.581 88.793L182.804 91.7011C182.35 93.3166 181.509 94.5445 179.501 94.5445C177.429 94.4799 176.652 93.1874 177.105 91.5718ZM180.926 91.7657L181.768 88.5345C181.962 87.6944 181.703 87.242 181.12 87.242C180.473 87.242 179.955 87.6944 179.76 88.5345L178.918 91.7657C178.659 92.6058 178.983 93.0582 179.566 93.0582C180.214 93.0582 180.667 92.6058 180.926 91.7657Z" fill="#E05263"/>
<path d="M184.098 91.5093L184.875 88.6013C185.264 86.9857 186.17 85.7578 188.178 85.7578C189.861 85.7578 190.833 86.7918 190.638 88.2135L190.315 89.3767H188.437L188.761 88.2135C188.89 87.5027 188.631 87.1149 188.113 87.1149C187.465 87.1149 186.947 87.5673 186.753 88.4074L185.911 91.6386C185.652 92.4787 185.911 92.931 186.559 92.931C187.142 92.931 187.595 92.5433 187.789 91.8324C187.919 91.3801 187.983 91.057 188.113 90.6692H189.991C189.861 91.057 189.797 91.4447 189.667 91.8324C189.214 93.3188 188.307 94.2881 186.494 94.2881C184.487 94.482 183.645 93.1895 184.098 91.5093Z" fill="#E05263"/>
<path d="M191.092 91.5093L191.869 88.6013C192.258 86.9857 193.164 85.7578 195.172 85.7578C196.855 85.7578 197.827 86.7918 197.568 88.2135L197.244 89.3767H195.366L195.69 88.2135C195.819 87.5027 195.56 87.1149 195.042 87.1149C194.395 87.1149 193.876 87.5673 193.682 88.4074L192.84 91.6386C192.581 92.4787 192.84 92.931 193.488 92.931C194.071 92.931 194.524 92.5433 194.718 91.8324C194.848 91.3801 194.913 91.057 195.042 90.6692H196.92C196.79 91.057 196.726 91.4447 196.596 91.8324C196.143 93.3188 195.236 94.2881 193.423 94.2881C191.416 94.482 190.639 93.1895 191.092 91.5093Z" fill="#E05263"/>
<path d="M198.021 91.5718L198.798 88.6637C199.186 87.0482 200.093 85.8203 202.165 85.8203C204.108 85.8203 204.949 87.1774 204.496 88.7284C204.302 89.5039 204.237 89.827 204.043 90.4732H200.222L199.769 91.9596C199.64 92.6704 199.899 93.1228 200.481 93.1228C200.999 93.1228 201.517 92.7997 201.647 92.1534L201.906 91.1194H203.784C203.654 91.3779 203.525 91.8949 203.46 92.218C203.072 93.4459 202.165 94.4153 200.417 94.4153C198.409 94.4799 197.632 93.1874 198.021 91.5718ZM202.489 89.31C202.553 88.9869 202.618 88.7284 202.748 88.4053C202.877 87.6944 202.683 87.242 202.035 87.242C201.388 87.242 200.935 87.6944 200.74 88.4053C200.676 88.7284 200.611 88.9869 200.481 89.31H202.489Z" fill="#E05263"/>
<path d="M211.878 86.98L210.583 88.1432C210.583 87.6262 210.26 87.2385 209.742 87.2385C208.705 87.2385 208.058 88.2724 207.734 89.0479L207.281 90.7928L207.216 90.9866L206.31 94.2824H204.432L206.698 85.8814H208.511L208.252 86.9153H208.317C208.835 86.2045 209.547 85.6875 210.454 85.6875C211.296 85.8167 211.878 86.2691 211.878 86.98Z" fill="#E05263"/>
<path d="M62.811 13.5052C62.9405 13.6991 63.1996 13.8284 63.4586 13.8284C63.5881 13.8284 63.7176 13.7637 63.8471 13.6991C64.1709 13.4406 64.3004 12.9883 64.0414 12.6651C62.3577 10.2094 60.4151 7.94761 58.1487 5.94428C57.8249 5.68579 57.3716 5.68579 57.1126 6.0089C56.8536 6.33202 56.8536 6.78439 57.1774 7.04288C59.3143 8.91696 61.1922 11.1142 62.811 13.5052Z" fill="#E05263"/>
<path d="M51.4139 2.91279C52.5148 3.55903 53.5508 4.20526 54.5869 4.98075C54.7164 5.04537 54.8459 5.10999 55.0402 5.10999C55.2992 5.10999 55.4935 4.98075 55.623 4.78688C55.882 4.46376 55.8172 4.01139 55.4287 3.7529C54.3926 2.97742 53.2918 2.26656 52.1262 1.62032C51.8025 1.42645 51.3492 1.5557 51.1549 1.94344C50.9606 2.26656 51.0254 2.71892 51.4139 2.91279Z" fill="#E05263"/>
<path d="M68.3161 17.1916H96.7434C97.1319 17.1916 97.5204 16.8685 97.5204 16.4161C97.5204 16.0284 97.1967 15.6406 96.7434 15.6406H68.3161C67.9276 15.6406 67.5391 15.9637 67.5391 16.4161C67.6038 16.8685 67.9276 17.1916 68.3161 17.1916Z" fill="#E05263"/>
<path d="M128.668 62.5547H107.234C106.846 62.5547 106.457 62.8778 106.457 63.3302C106.457 63.7179 106.781 64.1056 107.234 64.1056H128.668C129.056 64.1056 129.445 63.7825 129.445 63.3302C129.38 62.8778 129.056 62.5547 128.668 62.5547Z" fill="#E05263"/>
<path d="M136.179 62.5547H132.488C132.099 62.5547 131.711 62.8778 131.711 63.3302C131.711 63.7179 132.035 64.1056 132.488 64.1056H136.179C136.568 64.1056 136.956 63.7825 136.956 63.3302C136.956 62.8778 136.632 62.5547 136.179 62.5547Z" fill="#E05263"/>
<path d="M105.614 29.2109C104.06 29.2109 102.83 30.3742 102.247 32.5067L99.7861 41.6833C99.2033 43.8159 99.7861 44.9791 101.34 44.9791C102.959 44.9791 104.189 43.8159 104.772 41.6833L107.233 32.5067C107.816 30.4388 107.233 29.2109 105.614 29.2109Z" fill="#E05263"/>
<path d="M188.177 29.2109C186.622 29.2109 185.392 30.3742 184.809 32.5067L182.349 41.6833C181.766 43.8159 182.349 44.9791 183.903 44.9791C185.522 44.9791 186.752 43.8159 187.335 41.6833L189.795 32.5067C190.443 30.4388 189.795 29.2109 188.177 29.2109Z" fill="#E05263"/>
<path d="M161.303 29.2734H158.777L157.158 35.2188H159.684C160.979 35.2188 161.821 34.5726 162.274 32.8277L162.598 31.6645C163.116 29.9197 162.598 29.2734 161.303 29.2734Z" fill="#E05263"/>
<path d="M44.55 37.1599L42.8016 24.3644C40.4057 23.072 37.945 21.8441 35.4843 20.7455C33.9302 20.0347 32.3113 19.3884 30.6925 18.7422L19.5547 27.3371C19.6842 29.1466 19.8785 30.956 20.1375 32.7655C20.4613 35.2858 20.9145 37.8061 21.4326 40.2618L34.1245 45.4317C38.5925 42.7822 42.0245 40.0033 44.55 37.1599ZM37.0384 40.8435C37.3622 40.5203 37.6212 40.1972 37.945 39.9387L38.8516 39.034C39.1753 38.7755 39.4991 38.4524 39.8229 38.1939L40.2762 37.7415L40.7942 37.3538L41.3122 36.966L41.5712 36.7722C41.636 36.7075 41.636 36.7075 41.7008 36.6429C41.7655 36.5783 41.8303 36.5137 41.895 36.3844C41.9598 36.2552 41.9598 36.3198 41.9598 36.0613C41.9598 35.2212 41.895 34.3811 41.895 33.541C41.895 32.7009 41.895 31.8608 41.895 31.0207C41.895 29.3405 41.9598 27.6602 42.0893 25.98L42.7368 36.0613C42.7368 36.1906 42.7368 36.2552 42.7368 36.3844C42.7368 36.5137 42.7368 36.5783 42.6721 36.7075C42.6073 36.9014 42.4778 37.0953 42.3483 37.2245C42.2188 37.3538 42.0245 37.483 41.8303 37.6123L41.3122 38C40.6647 38.517 40.0171 39.034 39.3696 39.6156C38.0745 40.7142 36.7794 41.8128 35.5491 42.9114C35.9376 42.1359 36.4556 41.4897 37.0384 40.8435Z" fill="#E05263"/>
<path d="M9.5189 10.8625C8.41807 12.0258 7.382 13.2536 6.41068 14.5461C6.28117 14.74 6.08691 14.9985 5.9574 15.257C4.5328 17.648 3.30246 20.1683 2.5254 22.8825C2.13688 24.1104 1.87786 25.3382 1.68359 26.5661L3.62623 27.9232C4.20902 26.9538 4.92132 26.0491 5.56887 25.1444C6.15166 24.4335 6.73445 23.7226 7.31724 23.0118C7.90003 22.3655 8.48282 21.7839 9.13037 21.2023L13.9222 9.18234L12.9509 7.4375C12.8214 7.56675 12.6919 7.63137 12.4976 7.76062C12.3681 7.88987 12.2386 8.01911 12.1091 8.08374C11.2025 8.98847 10.3607 9.8932 9.5189 10.8625Z" fill="#E05263"/>
<path d="M34.9022 58.2904C34.449 58.0966 33.9957 57.9673 33.4776 57.7734L21.7571 59.4536L21.498 60.6815C22.0161 60.8754 22.4694 61.0046 22.9874 61.1985C29.3981 63.2018 36.3916 62.9433 42.608 60.6169L42.6728 59.906C41.8957 59.906 41.1187 59.8414 40.3416 59.7768C38.5285 59.389 36.6506 58.9367 34.9022 58.2904Z" fill="#E05263"/>
<path d="M11.5898 48.4043C9.71192 47.1119 7.83403 45.7548 6.15042 44.2684C6.02091 44.1392 5.8914 44.0746 5.76189 43.9453L4.4668 45.4963C4.59631 45.7548 4.72582 46.0779 4.92008 46.3364C6.86272 49.8907 9.4529 52.9926 12.5611 55.5129C14.8275 57.387 17.4177 58.938 20.1374 60.0366L20.5907 59.0026L13.4029 49.5676C12.8201 49.1798 12.1726 48.8567 11.5898 48.4043Z" fill="#E05263"/>
<path d="M52.709 15.8373C52.968 16.5481 53.1623 17.259 53.4213 17.9052L60.9329 27.4695H60.9976L62.3575 27.7926C61.9042 24.3676 60.8681 21.0072 59.314 17.9699C57.5656 14.4802 55.1049 11.249 52.1262 8.66406L50.1836 9.56879C50.3131 9.82729 50.4426 10.0858 50.5721 10.3443C51.4139 12.1537 52.0615 14.0278 52.709 15.8373Z" fill="#E05263"/>
<path d="M27.0677 7.17957C27.78 6.66258 28.6218 6.21021 29.3988 5.82247C30.2406 5.43473 31.0825 5.04699 31.9243 4.72387C33.0251 4.2715 34.1259 3.94839 35.2267 3.62527L34.3202 1.16957C32.7013 1.04032 31.0177 1.04032 29.3988 1.10495C25.3193 1.42807 21.3045 2.52667 17.6135 4.40075C16.7069 4.85312 15.8004 5.3701 14.9586 5.95172C14.2463 6.40408 13.5987 6.92107 12.9512 7.43806L14.4405 8.85978L27.0677 7.17957Z" fill="#E05263"/>
<path d="M29.6578 6.33707C28.9455 6.72481 28.2979 7.17717 27.6504 7.69416L30.6939 18.4863C32.3775 19.0679 33.9963 19.6495 35.68 20.2958C37.3636 20.942 38.9824 21.6529 40.6661 22.3637C41.4431 22.6868 42.2202 23.0746 42.9972 23.4623L52.7752 17.9047C52.5809 17.2585 52.4514 16.6768 52.2571 16.0306C51.6743 14.1565 51.0916 12.3471 50.3793 10.5376C50.2497 10.2791 50.1202 9.95599 49.9907 9.69749L35.4209 3.6875C34.2554 4.13987 33.1545 4.59223 32.0537 5.10922C31.2766 5.43234 30.4348 5.8847 29.6578 6.33707ZM44.8104 20.1019C45.1341 19.8434 45.3931 19.5849 45.7169 19.3264L46.6235 18.5509C46.9473 18.2924 47.271 18.0986 47.5948 17.8401L48.0481 17.5169L48.5661 17.1938C48.7604 17.0646 48.8899 17 49.0842 16.8707L49.3432 16.7415C49.4079 16.6768 49.4727 16.6768 49.5374 16.6122C49.6669 16.5476 49.7317 16.483 49.7317 16.4183V16.3537L49.4727 14.932C49.4079 14.415 49.3432 13.9626 49.2784 13.4457C49.2137 12.9287 49.1489 12.4763 49.1489 11.9593C49.0842 11.4423 49.0842 10.99 49.0842 10.473L50.5088 16.2245C50.5735 16.4183 50.5088 16.6122 50.444 16.8061C50.3792 17 50.185 17.1292 50.0555 17.1938C49.926 17.3231 49.7317 17.3877 49.5374 17.5169C49.3432 17.5816 49.2137 17.7108 49.0194 17.8401C48.3719 18.2278 47.7243 18.6802 47.0768 19.1325C45.7817 20.0373 44.5513 20.942 43.2562 21.8467C43.6448 21.2005 44.2276 20.6835 44.8104 20.1019Z" fill="#E05263"/>
<path d="M55.7538 40.5246L45.2635 37.875C42.6086 40.8477 39.0471 43.6265 34.4495 46.4699L34.3848 57.0682C34.6438 57.1328 34.9676 57.1974 35.2266 57.3267C36.975 57.7791 38.7881 58.1022 40.6012 58.1668C41.8315 58.2314 42.9971 58.1668 44.1627 57.9729L54.912 49.7011C55.0415 49.1841 55.171 48.7318 55.3005 48.2148C55.7538 46.0822 55.948 43.885 55.8833 41.6878C55.8185 41.3001 55.7538 40.9123 55.7538 40.5246Z" fill="#E05263"/>
<path d="M210.841 19.6482H63.3298C62.2938 17.3217 60.9987 15.0599 59.4446 13.0566C58.279 11.5056 56.9191 10.0192 55.4298 8.66215C54.7175 8.01592 53.9404 7.36968 53.1634 6.78807C52.9691 6.65882 52.7748 6.46495 52.5806 6.3357L52.2568 6.14183L51.9978 5.94796C51.6092 5.62484 51.156 5.36635 50.7674 5.10785C47.465 2.97528 43.7739 1.48893 39.9534 0.648827C36.1329 -0.126656 32.1829 -0.255903 28.4271 0.390333C25.6427 0.842698 22.9877 1.61818 20.4623 2.71678C23.3115 1.55356 26.355 0.778075 29.3984 0.454957C33.5427 0.00259164 37.8165 0.454957 41.8313 1.61818C45.8461 2.84603 49.6666 4.78474 52.9043 7.4343C56.2068 10.0839 58.9265 13.3797 60.9339 17.1278C62.9413 20.876 64.2364 25.0119 64.6897 29.2125C65.0782 33.4776 64.6897 37.8074 63.3946 41.8787C62.1642 45.95 60.0921 49.8274 57.3076 53.1232C54.588 56.419 51.156 59.1332 47.3354 61.1365C43.5149 63.1398 39.3059 64.3677 35.0321 64.6908C30.7583 65.0139 26.4197 64.5616 22.3402 63.2045C18.2606 61.912 14.4401 59.7794 11.2024 57.0006C7.96466 54.2218 5.30972 50.7967 3.43184 47.0486C2.00724 44.2697 1.03592 41.2324 0.453125 38.1951C1.03592 42.9773 2.65478 47.6302 5.24496 51.7015C9.38926 58.1638 15.9942 63.1398 23.5705 65.337C25.1246 65.7894 26.6787 66.1125 28.2328 66.3064C28.5566 66.4356 28.8804 66.5649 29.2042 66.6941C31.7943 67.7927 34.4493 68.956 37.0395 70.1192C42.2198 72.5102 47.4002 74.9659 52.4511 77.6155C57.5019 80.2651 62.488 83.1085 67.3446 86.0812C72.2012 89.1185 76.993 92.3497 81.4611 95.904C77.3816 91.8973 72.9783 88.0845 68.3807 84.5302C63.8479 80.9759 59.1208 77.5509 54.3289 74.3197C49.7961 71.2824 45.1985 68.3743 40.5362 65.5955C41.119 65.4663 41.7018 65.2724 42.2846 65.1432C46.4289 67.5989 50.5732 70.1192 54.6527 72.7687C63.0708 78.1325 71.2946 83.8194 79.1947 89.9586C72.1365 82.9146 64.6249 76.1938 56.9191 69.7314C54.0699 67.3404 51.156 65.0139 48.242 62.7521C49.9256 61.8474 51.5445 60.8134 53.0338 59.6502C58.02 62.946 63.0708 66.2418 68.0569 69.6022C73.9496 73.5442 79.8422 77.4863 85.6702 81.5575C91.4981 85.5642 97.326 89.6355 103.024 93.836C97.7145 89.1185 92.2751 84.5949 86.8357 80.0066C81.3964 75.4829 75.8275 70.9593 70.3233 66.5003C65.92 62.946 61.5167 59.4563 57.1134 55.902C57.4372 55.5789 57.6962 55.2558 58.0199 54.9326L77.1873 69.3437C89.4259 78.5849 101.729 87.7614 114.033 96.938C102.506 86.7921 91.0448 76.5815 79.5832 66.371L61.4519 50.2151C62.0995 49.1165 62.6823 48.0179 63.2003 46.8547C63.4593 46.2731 63.7184 45.6915 63.9126 45.1099C68.9635 49.3104 74.0791 53.5109 79.2595 57.6468C84.6988 61.9766 90.1382 66.2418 95.7071 70.3777C101.276 74.5136 106.91 78.5849 112.738 82.2684C107.298 78.0033 102.053 73.4796 96.9375 68.8913C91.8218 64.3031 86.771 59.5209 81.7849 54.8034C76.7988 50.0212 71.8774 45.1745 67.0208 40.3277C66.5676 39.8753 66.1143 39.423 65.661 38.9706C65.8553 37.9366 65.9848 36.9027 66.0495 35.8687C66.1143 35.9333 66.179 36.0626 66.2438 36.1272C70.0643 40.5862 74.0143 44.916 78.0939 49.0519C82.1734 53.2524 86.3825 57.3237 90.7858 61.1365C95.1891 65.0139 99.7219 68.6328 104.514 71.9286C100.11 68.1158 96.0309 64.0446 92.0809 59.7794C91.9513 59.5855 91.7571 59.4563 91.6276 59.2624H140.453L141.1 55.5789H213.107L218.611 29.3417C219.842 24.3657 216.021 19.6482 210.841 19.6482ZM94.412 42.0725L94.0235 43.4943C93.2464 46.5316 90.8505 48.1472 87.3538 48.1472C82.9505 48.1472 81.5259 45.2391 82.1734 42.5895C82.3029 41.9433 82.4324 41.4263 82.6267 40.8447L86.512 40.7801C86.3825 41.4909 86.1882 42.0079 85.9939 42.6542C85.6054 44.2697 86.3825 45.0452 87.6775 45.0452C89.0374 45.0452 90.0087 44.2697 90.2677 43.2358L90.6563 41.8787C91.1743 39.94 90.6563 39.0999 88.1308 37.9366C85.2169 36.5149 84.6341 34.447 85.2816 31.9266L85.6054 30.6988C86.3825 27.9846 88.4546 25.9813 92.2104 25.9813C95.5776 25.9813 98.0383 27.6615 97.3907 31.1512C97.1965 31.7974 97.067 32.2498 96.9375 32.896L93.0522 32.9606C93.2464 32.3144 93.3759 31.7974 93.5055 31.1512C93.8292 29.7941 93.1169 29.0832 91.8866 29.0832C90.6563 29.0832 89.6202 29.8587 89.3612 30.8927L89.0374 32.1205C88.6489 33.6069 88.7784 34.447 91.239 35.6748C94.153 37.2904 95.1891 39.2291 94.412 42.0725ZM101.017 48.2118C97.067 48.2118 94.8006 45.8853 95.9661 41.4909L98.2973 32.7021C99.4629 28.3723 102.053 26.1105 106.003 26.1105C109.953 26.1105 112.22 28.3723 111.119 32.7021L108.788 41.4909C107.622 45.8853 105.032 48.2118 101.017 48.2118ZM122.645 42.4603C121.803 45.7561 119.278 48.2118 115.328 48.2118C111.378 48.2118 109.047 45.95 110.147 41.6202L112.543 32.6375C113.709 28.3077 116.364 26.1105 120.314 26.1105C124.264 26.1105 126.336 28.5016 125.429 31.9266L124.588 35.1578L120.702 35.2224C120.961 34.1885 121.35 32.896 121.609 31.862C122.062 30.1172 121.156 29.2771 119.925 29.2771C118.306 29.2771 117.141 30.3757 116.558 32.5083L113.968 41.814C113.45 43.882 114.097 45.0452 115.652 45.0452C116.947 45.0452 118.242 44.2697 118.695 42.5249L119.602 38.9706L123.487 39.0352C123.293 40.1338 122.969 41.4263 122.645 42.4603ZM129.509 48.2118C125.559 48.2118 123.228 45.95 124.329 41.6202L126.725 32.6375C127.89 28.3077 130.545 26.1105 134.495 26.1105C138.445 26.1105 140.517 28.5016 139.611 31.9266L138.769 35.1578L134.884 35.2224C135.143 34.1885 135.531 32.896 135.79 31.862C136.243 30.1172 135.337 29.2771 134.107 29.2771C132.488 29.2771 131.322 30.3757 130.739 32.5083L128.214 41.814C127.696 43.882 128.343 45.0452 129.898 45.0452C131.193 45.0452 132.488 44.2697 132.941 42.5249L133.848 38.9706L137.733 39.0352C137.474 40.0692 137.085 41.3617 136.826 42.3957C135.92 45.7561 133.459 48.2118 129.509 48.2118ZM149.065 44.916L148.288 48.0179H137.215L143.043 26.3044H153.921L153.144 29.4063H146.086L144.597 35.0932H150.489L149.712 38.0013H143.755L141.942 44.916H149.065ZM166.419 31.9913L166.16 32.896C165.577 35.0286 164.412 36.321 162.987 36.9027V37.0319C163.894 37.6135 164.412 38.5829 163.958 40.1985L162.275 46.5316C162.081 47.1778 162.275 47.5009 162.728 47.5655L162.663 47.9533H158.908C158.454 47.6948 158.26 47.1132 158.519 46.1438L160.073 40.3923C160.397 39.0352 160.203 38.1951 158.908 38.1951H156.447L153.792 48.0179H149.907L155.735 26.3044H162.404C165.448 26.3044 167.455 28.0492 166.419 31.9913ZM171.535 48.0179H167.649L169.722 40.5862L168.686 26.3044H172.7L172.506 36.3857L177.751 26.3044H182.154L173.413 40.7801L171.535 48.0179ZM183.644 48.2118C179.694 48.2118 177.427 45.8853 178.593 41.4909L180.924 32.7021C182.09 28.3723 184.68 26.1105 188.63 26.1105C192.58 26.1105 194.846 28.3723 193.746 32.7021L191.414 41.4909C190.184 45.8853 187.594 48.2118 183.644 48.2118ZM205.078 41.814C203.977 46.0792 201.71 48.2118 197.825 48.2118C193.94 48.2118 191.673 46.0792 192.839 41.814L196.983 26.3044H200.869L196.595 42.2664C196.077 44.1405 196.659 45.0452 198.084 45.0452C199.509 45.0452 200.545 44.1405 201.128 42.2664L205.401 26.3044H209.287L205.078 41.814Z" fill="#E05263"/>
<path d="M5.82831 43.6908C5.95782 43.82 6.15208 43.9493 6.28159 44.0785C8.02996 45.5002 9.90785 46.7927 11.8505 48.0206C12.239 48.2144 12.5628 48.4729 12.9513 48.6668L13.0161 48.6022L20.5923 40.7827C20.4628 40.0072 20.3333 39.2317 20.2038 38.4563C19.9448 36.6468 19.7505 34.7727 19.5563 32.8986C19.4268 31.0892 19.2973 29.2151 19.2325 27.341L19.1678 27.2764L9.64883 21.7188C8.93653 22.2357 8.28898 22.8174 7.70619 23.399C7.05864 24.0452 6.4111 24.6914 5.82831 25.3377C5.05125 26.1778 4.33895 27.0825 3.69141 27.9872L5.82831 43.6908ZM8.48325 43.4323C9.06604 43.6908 9.58407 43.9493 10.1669 44.2078C10.6849 44.5309 11.2677 44.7894 11.7857 45.1125L12.1743 45.371C12.3038 45.4356 12.3685 45.5002 12.4333 45.5649C12.498 45.6295 12.5628 45.6295 12.6275 45.6295L14.1816 44.4016C14.7644 43.9493 15.2825 43.4969 15.8653 43.1092C16.4481 42.6568 17.0308 42.2691 17.6136 41.8813C18.1964 41.4936 18.7792 41.1058 19.4268 40.7181L12.9513 46.2757C12.8218 46.405 12.6923 46.405 12.498 46.405C12.3685 46.405 12.1743 46.3403 12.0447 46.2757C11.7857 46.1465 11.5267 45.9526 11.2677 45.7587C10.7497 45.4356 10.2316 45.1125 9.71358 44.7247C8.67751 44.0785 7.64144 43.4323 6.60536 42.786C7.31766 42.9799 7.90045 43.1738 8.48325 43.4323Z" fill="#E05263"/>
<path d="M56.596 39.9384C56.6608 40.4554 56.7255 41.037 56.7903 41.554C57.0493 43.8158 57.0493 46.1422 56.7255 48.4041C56.6608 48.7272 56.596 49.0503 56.5312 49.3088L57.0493 49.3734C58.7977 46.8531 60.2223 44.1389 61.1288 41.2308C62.3592 37.4181 62.8772 33.4114 62.5534 29.4694C62.5534 29.1462 62.4887 28.8231 62.4887 28.5L61.1936 28.9524L56.596 39.9384Z" fill="#E05263"/>
<path d="M0.711972 29.9842L0.776727 29.855C1.23001 24.7497 2.97838 19.7091 6.02185 15.1854C6.66939 14.0868 7.44645 13.0528 8.2235 12.0835C9.38909 10.6618 10.7489 9.30467 12.1735 8.07682C14.5695 5.87962 17.4187 4.00553 20.4621 2.64844C19.4908 3.03618 18.5195 3.48854 17.5482 4.00553C16.6416 4.52252 15.735 4.97489 14.8285 5.5565C13.9219 6.13811 13.0801 6.71972 12.303 7.36596C10.6842 8.65843 9.13007 10.0801 7.77022 11.6311C5.05053 14.9269 2.91363 18.6105 1.61854 22.6171C0.323445 26.6238 -0.259346 30.8243 0.0644266 35.0249C0.129181 36.1235 0.25869 37.2221 0.452954 38.256C0.193936 35.4772 0.25869 32.6984 0.711972 29.9842Z" fill="#E05263"/>
</svg>
