<svg width="29" height="18" viewBox="0 0 29 18" fill="none" xmlns="http://www.w3.org/2000/svg">
<path d="M0.748047 0H28.748V18H0.748047V0ZM2.74805 2V16H26.748V2H2.74805ZM4.74805 4H14.748V6H4.74805V4ZM20.748 4H22.748V5.0625C23.3105 5.16667 23.7793 5.4375 24.1543 5.875C24.5501 6.29167 24.748 6.79167 24.748 7.375V8H22.748V7.375C22.748 7.27083 22.7064 7.1875 22.623 7.125C22.5605 7.04167 22.4772 7 22.373 7H21.123C21.0189 7 20.9251 7.04167 20.8418 7.125C20.7793 7.1875 20.748 7.27083 20.748 7.375L23.6543 8.84375C23.9876 9.01042 24.248 9.26042 24.4355 9.59375C24.6439 9.90625 24.748 10.25 24.748 10.625C24.748 11.2083 24.5501 11.7188 24.1543 12.1562C23.7793 12.5729 23.3105 12.8333 22.748 12.9375V14H20.748V12.9375C20.1855 12.8333 19.7064 12.5729 19.3105 12.1562C18.9355 11.7188 18.748 11.2083 18.748 10.625V10H20.748V10.625C20.748 10.7292 20.7793 10.8229 20.8418 10.9062C20.9251 10.9688 21.0189 11 21.123 11H22.373C22.4772 11 22.5605 10.9688 22.623 10.9062C22.7064 10.8229 22.748 10.7292 22.748 10.625L19.8418 9.15625C19.5085 8.98958 19.2376 8.75 19.0293 8.4375C18.8418 8.10417 18.748 7.75 18.748 7.375C18.748 6.79167 18.9355 6.29167 19.3105 5.875C19.7064 5.4375 20.1855 5.16667 20.748 5.0625V4ZM4.74805 7H11.748V9H4.74805V7ZM7.24805 10C7.72721 10 8.17513 10.2083 8.5918 10.625C8.80013 10.8333 9.01888 11.125 9.24805 11.5L9.4043 11.75L9.5293 11.625C9.6543 11.5208 9.74805 11.4375 9.81055 11.375L9.9043 11.3125C10.0085 11.2083 10.1022 11.1354 10.1855 11.0938C10.3314 11.0312 10.5293 11 10.7793 11C11.0293 11 11.2689 11.0417 11.498 11.125C11.623 11.1667 11.8001 11.2604 12.0293 11.4062C12.196 11.4896 12.321 11.5521 12.4043 11.5938C13.0293 11.8646 13.8105 12 14.748 12V14C13.5397 14 12.4876 13.8021 11.5918 13.4062C11.1543 13.2188 10.9251 13.1042 10.9043 13.0625L10.5605 13.3438C10.4147 13.4896 10.2897 13.6042 10.1855 13.6875L10.123 13.75C9.99805 13.8333 9.88346 13.8958 9.7793 13.9375C9.63346 14 9.44596 14.0312 9.2168 14.0312C8.92513 14.0312 8.67513 13.9583 8.4668 13.8125C8.3418 13.7292 8.2168 13.5833 8.0918 13.375L8.0293 13.3125C7.92513 13.1667 7.78971 12.9583 7.62305 12.6875L7.31055 12.2188L7.24805 12.3125C7.18555 12.375 7.14388 12.4375 7.12305 12.5C7.01888 12.7292 6.92513 13 6.8418 13.3125C6.7793 13.6042 6.74805 13.8333 6.74805 14H4.74805C4.74805 13.25 4.92513 12.4792 5.2793 11.6875C5.4668 11.2917 5.68555 10.9479 5.93555 10.6562C6.33138 10.2188 6.76888 10 7.24805 10Z" fill="#4F7A9D"/>
</svg>
