<svg width="62" height="72" viewBox="0 0 62 72" fill="none" xmlns="http://www.w3.org/2000/svg">
<g clip-path="url(#clip0_577_17311)">
<path d="M1.45312 10.3938V5.89375C1.45312 3.49375 3.35313 1.59375 5.75313 1.59375H56.4531C58.8531 1.59375 60.7531 3.49375 60.7531 5.89375V66.7937C60.7531 69.1937 58.8531 71.0938 56.4531 71.0938H5.75313C3.35313 71.0938 1.45312 69.1937 1.45312 66.7937V26.6938V10.3938Z" stroke="white" stroke-width="2" stroke-miterlimit="10"/>
<path fill-rule="evenodd" clip-rule="evenodd" d="M51.6547 63.2937H10.5547C9.15469 63.2937 8.05469 62.1937 8.05469 60.7937V49.4937C8.05469 48.0937 9.15469 46.9937 10.5547 46.9937H51.6547C53.0547 46.9937 54.1547 48.0937 54.1547 49.4937V60.8937C54.1547 62.1937 52.9547 63.2937 51.6547 63.2937Z" stroke="white" stroke-width="2" stroke-miterlimit="10"/>
<path d="M15.8578 51.1938H20.2578C21.2578 51.1938 21.9578 51.3938 22.4578 51.8938C22.9578 52.3938 23.1578 52.9938 23.1578 53.8938C23.1578 54.7938 22.8578 55.3938 22.3578 55.8938C21.8578 56.3938 20.9578 56.5938 19.9578 56.5938H18.4578V59.7938H15.7578V51.1938H15.8578ZM18.4578 54.7938H19.1578C19.6578 54.7938 20.0578 54.6939 20.2578 54.4939C20.4578 54.2939 20.5578 54.0938 20.5578 53.7938C20.5578 53.4938 20.4578 53.2938 20.2578 53.0938C20.0578 52.8938 19.7578 52.7938 19.2578 52.7938H18.4578V54.7938Z" fill="#E05263"/>
<path d="M25.7578 51.1938H28.2578L31.4578 55.9939V51.1938H33.9578V59.7938H31.4578L28.2578 55.0938V59.7938H25.7578V51.1938Z" fill="#E05263"/>
<path d="M41.1547 56.6937V54.8937H45.2547V58.5938C44.4547 59.0938 43.7547 59.4937 43.1547 59.6937C42.5547 59.8937 41.8547 59.9938 41.0547 59.9938C40.0547 59.9938 39.1547 59.7938 38.5547 59.4938C37.9547 59.1938 37.4547 58.5937 37.0547 57.8937C36.6547 57.1937 36.5547 56.3938 36.5547 55.4938C36.5547 54.5938 36.7547 53.6937 37.1547 53.0938C37.5547 52.4937 38.1547 51.8938 38.8547 51.4938C39.4547 51.1938 40.2547 51.0938 41.1547 51.0938C42.0547 51.0938 42.8547 51.1937 43.2547 51.3937C43.6547 51.5937 44.1547 51.7937 44.4547 52.1937C44.7547 52.5937 44.9547 52.9937 45.1547 53.5938L42.5547 54.0938C42.4547 53.7938 42.2547 53.4937 42.0547 53.3937C41.8547 53.2937 41.4547 53.0938 41.0547 53.0938C40.4547 53.0938 40.0547 53.2937 39.6547 53.6937C39.2547 54.0937 39.1547 54.6937 39.1547 55.5938C39.1547 56.4938 39.3547 57.1937 39.6547 57.5938C39.9547 57.9938 40.4547 58.1937 41.1547 58.1937C41.4547 58.1937 41.7547 58.1937 41.9547 58.0938C42.1547 57.9938 42.5547 57.8937 42.8547 57.6937V56.8937H41.1547V56.6937Z" fill="#E05263"/>
<path d="M10.8551 33.6937L22.7551 21.7937C23.1551 21.3937 23.9551 21.3937 24.3551 21.7937L36.2551 33.6937C36.9551 34.3937 36.4551 35.6937 35.4551 35.6937H11.6551C10.6551 35.6937 10.0551 34.3937 10.8551 33.6937Z" stroke="white" stroke-width="2" stroke-miterlimit="10"/>
<path d="M39.756 24.1937L45.156 18.7937C45.556 18.3937 46.356 18.3937 46.756 18.7937L52.156 24.1937C52.856 24.8937 52.356 26.1937 51.356 26.1937H40.556C39.556 26.1937 39.056 24.8937 39.756 24.1937Z" stroke="white" stroke-width="2" stroke-miterlimit="10"/>
<path d="M33.1578 17.0937C35.0356 17.0937 36.5578 15.5715 36.5578 13.6937C36.5578 11.8159 35.0356 10.2937 33.1578 10.2937C31.28 10.2937 29.7578 11.8159 29.7578 13.6937C29.7578 15.5715 31.28 17.0937 33.1578 17.0937Z" stroke="white" stroke-width="2" stroke-miterlimit="10"/>
</g>
<defs>
<clipPath id="clip0_577_17311">
<rect width="61.2" height="71.4" fill="white" transform="translate(0.453125 0.59375)"/>
</clipPath>
</defs>
</svg>
