<svg width="80" height="65" viewBox="0 0 80 65" fill="none" xmlns="http://www.w3.org/2000/svg">
<g clip-path="url(#clip0_13391_24566)">
<path d="M28.5744 31.2422C29.529 27.7713 30.4837 24.2373 31.3747 20.7034C31.502 20.1354 31.6929 19.5043 31.8202 18.9364C31.2474 18.6839 30.7382 18.4946 30.1654 18.2422L19.2188 26.6985C19.346 28.4655 19.537 30.2325 19.7915 31.9995C20.1098 34.4606 20.5553 36.9218 21.0644 39.3199L25.774 41.2131C26.6651 37.9315 27.6197 34.5868 28.5744 31.2422Z" fill="white"/>
<path d="M41.1137 1.64276C45.0596 2.84179 48.8146 4.73499 51.9968 7.32237C52.8241 8.01654 53.6515 8.71072 54.4152 9.468L54.6698 9.72043H55.8154L55.5608 9.468C55.179 9.08936 54.8607 8.77383 54.4789 8.39519C53.7788 7.76412 53.0151 7.13305 52.2513 6.56509C52.0604 6.43887 51.8695 6.24955 51.6785 6.12334L51.3603 5.93402L51.1058 5.7447C50.7239 5.42917 50.2784 5.17674 49.8965 4.92431C46.6507 2.90489 43.023 1.45344 39.268 0.633049C35.5131 -0.124233 31.6308 -0.250446 27.9395 0.380622C25.2028 0.822369 22.5934 1.57965 20.1113 2.65247C22.9116 1.51654 25.9029 0.759262 28.8941 0.443728C32.9673 0.0650875 37.1042 0.443728 41.1137 1.64276Z" fill="white"/>
<path d="M32.0763 18.1161C32.3946 17.2326 32.7764 16.4122 33.2856 15.5919C34.3039 14.0142 35.6404 12.6258 37.2315 11.6792C38.8226 10.6695 40.6682 10.0385 42.5775 9.84914C43.5322 9.78603 44.4232 9.78603 45.3779 9.72292L48.1145 9.65981C48.4964 9.65981 48.8782 9.65981 49.2601 9.65981C49.2601 9.59671 49.1965 9.5336 49.1965 9.47049L34.813 3.60156C33.6674 4.04331 32.5855 4.48506 31.5035 4.98991C30.6762 5.36855 29.9125 5.74719 29.1487 6.25205C28.4487 6.63069 27.8122 7.07244 27.1758 7.57729L30.167 18.1161C30.7398 18.3054 31.3126 18.4948 31.8854 18.7472C31.949 18.4317 32.0127 18.3054 32.0763 18.1161Z" fill="white"/>
<path d="M49.3867 9.40693C49.4504 9.47004 49.4504 9.53315 49.514 9.59625C50.4687 9.59625 53.4599 9.72247 54.4146 9.72247C53.6508 9.40693 51.7415 8.83897 51.3597 8.52344L49.3867 9.40693Z" fill="white"/>
<path d="M39.8403 56.7973C41.0495 56.8604 42.1951 56.7973 43.3407 56.6079L48.3049 52.8215C48.3049 52.8215 37.0399 52.6953 33.7305 52.6953V55.7875C33.985 55.8507 34.3033 55.9138 34.5578 56.04C36.3399 56.4186 38.1219 56.7341 39.8403 56.7973Z" fill="white"/>
<path d="M42.64 10.4768C41.2399 10.5399 39.2669 11.2972 37.6758 12.3069C37.294 12.4962 36.9121 12.8118 36.5303 13.0011C36.212 13.2535 35.8302 13.569 35.512 13.8846C34.8755 14.4525 34.3027 15.2098 33.7936 15.904C33.2844 16.6613 32.9026 17.4817 32.5844 18.3021C32.3298 19.1224 32.0752 20.0059 31.8843 20.8894C30.9933 24.4234 30.1659 27.9574 29.3385 31.4914C27.8111 38.2438 26.3473 44.9331 24.6289 51.6856C25.8381 51.6856 27.0474 51.6856 28.1929 51.6856C29.7204 51.6856 31.3115 51.6856 32.8389 51.7487C35.9575 51.8118 39.076 51.938 42.1945 52.0011L51.5501 52.3166L56.1961 52.3797H60.8421C62.9424 52.3166 64.9789 51.8118 66.761 50.739C68.543 49.6661 70.0068 48.0885 70.9614 46.3215C71.407 45.438 71.7888 44.4914 71.9797 43.4817L72.6798 40.4525L74.0163 34.3312C74.9074 30.2923 75.862 26.1904 76.8803 22.1516L78.3441 16.0933L79.5533 11.2972L79.8079 10.3506C79.9988 10.2875 52.3139 9.97196 42.64 10.4768ZM53.1412 26.0642C52.9503 26.6953 52.823 27.0739 52.6957 27.705L49.068 27.7681C49.259 27.137 49.3863 26.6953 49.5136 26.0642C49.8318 24.8021 49.1317 24.1079 47.9861 24.1079C46.8405 24.1079 45.8859 24.8021 45.5676 25.8118L45.2494 26.9477C44.8676 28.336 44.9949 29.0933 47.3497 30.2292C50.15 31.6176 51.1046 33.4477 50.3409 36.1613L49.9591 37.4865C49.1953 40.2632 46.9678 41.8409 43.6583 41.8409C39.5215 41.8409 38.185 39.1273 38.8214 36.6661C38.9487 36.0351 39.076 35.5933 39.2669 35.0254L42.8946 34.9623C42.7673 35.5933 42.5764 36.0982 42.4491 36.7292C42.0672 38.2438 42.831 38.938 44.0402 38.938C45.3131 38.938 46.2041 38.2438 46.4587 37.2341L46.7769 35.972C47.286 34.1419 46.7769 33.3846 44.4221 32.3118C41.6854 30.9865 41.1126 29.0302 41.749 26.7584L42.0673 25.6224C42.7673 23.0982 44.7403 21.205 48.2407 21.205C51.4865 21.205 53.7777 22.7826 53.1412 26.0642ZM59.3783 34.8991L57.6599 41.6516H54.0322L55.9416 34.7098L54.9869 21.3943H58.7419L58.5509 30.7972L63.4515 21.3943H67.5883L59.3783 34.8991Z" fill="white"/>
<path d="M55.8141 52.5681C53.2047 55.471 50.0862 57.9953 46.5858 59.7623C42.8308 61.7186 38.694 62.9176 34.4935 63.2332C30.293 63.5487 26.0289 63.1069 22.0193 61.7817C18.0098 60.5196 14.2548 58.437 11.0727 55.7235C7.89047 53.0099 5.28108 49.6652 3.43542 46.005C2.03526 43.2914 1.0806 40.3254 0.507812 37.3594C1.01696 41.9662 2.60805 46.5099 5.1538 50.4856C9.22699 56.7963 15.7186 61.6555 23.1649 63.8011C24.6924 64.2429 26.2198 64.5584 27.7473 64.7477C32.0114 65.6312 39.9032 64.1167 39.9032 64.1167C40.476 63.9904 41.0488 63.8011 41.6216 63.6749C44.1673 62.7914 47.5404 61.2768 47.5404 61.2768C49.1952 60.3934 50.7863 59.3836 52.2501 58.2477C53.2047 57.5536 56.196 54.6506 56.196 54.6506C56.5142 54.3351 56.7687 54.0196 57.087 53.704C57.3415 53.3885 57.6598 53.0099 57.9143 52.6312H56.3232L55.8141 52.5681Z" fill="white"/>
<path d="M21.4479 57.9989L21.1934 59.198C21.7025 59.3873 22.148 59.5135 22.6572 59.7028C28.9579 61.6591 35.8314 61.4067 41.9412 59.1349L42.0048 58.4407C41.2411 58.4407 40.4774 58.3776 39.7136 58.3145C37.868 58.062 36.0223 57.6203 34.3039 56.9892C33.8584 56.7999 33.4129 56.6737 32.9038 56.4844L21.4479 57.9989Z" fill="white"/>
<path d="M12.3461 54.2733C14.5736 56.1034 17.1193 57.6179 19.7924 58.6908L20.2379 57.6811L13.1734 48.4044C12.6006 48.0257 11.9642 47.6471 11.3914 47.2684C9.54576 46.0063 7.70009 44.6811 6.04536 43.2296C5.91807 43.1034 5.79078 43.0403 5.6635 42.9141L4.39062 44.4286C4.51791 44.6811 4.6452 44.9966 4.83613 45.249C6.74544 48.7199 9.29118 51.8121 12.3461 54.2733Z" fill="white"/>
<path d="M28.894 5.6795C29.7214 5.30086 30.5487 4.92222 31.3761 4.60668C32.458 4.16493 33.54 3.8494 34.6219 3.53387L33.7309 1.13581C32.1398 1.0096 30.4851 1.0096 28.894 1.0727C24.8844 1.38824 20.9385 2.46105 17.3109 4.29115C16.4198 4.7329 15.5288 5.23775 14.7015 5.80571C14.0014 6.24746 13.365 6.75231 12.7285 7.25717L14.1923 8.64552L26.6028 7.06785C27.3665 6.49989 28.1303 6.05814 28.894 5.6795Z" fill="white"/>
<path d="M7.57286 22.8439C6.93642 23.475 6.29998 24.106 5.72719 24.7371C4.96347 25.5575 4.26339 26.441 3.62695 27.3245L5.72719 42.6594C5.85448 42.7856 6.04541 42.9119 6.1727 43.0381C7.89107 44.4264 9.73674 45.6886 11.646 46.8876C12.0279 47.0769 12.3461 47.3293 12.728 47.5187L12.7916 47.4555L20.2379 39.8196C20.1106 39.0623 19.9834 38.3051 19.8561 37.5478C19.6015 35.7808 19.4106 33.9507 19.2196 32.1206C19.0923 30.3536 18.9651 28.5235 18.9014 26.6934L18.8378 26.6303L9.48216 21.2031C8.84573 21.708 8.20929 22.2759 7.57286 22.8439ZM11.5824 44.0478L11.9643 44.3002C12.0916 44.3633 12.1552 44.4264 12.2188 44.4895C12.2825 44.5526 12.3461 44.5526 12.4098 44.5526L13.9372 43.3536C14.51 42.9119 15.0192 42.4701 15.5919 42.0915C16.1647 41.6497 16.7375 41.2711 17.3103 40.8924C17.8831 40.5138 18.4559 40.1352 19.0923 39.7565L12.728 45.1837C12.6007 45.3099 12.4734 45.3099 12.2825 45.3099C12.1552 45.3099 11.9643 45.2468 11.837 45.1837C11.5824 45.0575 11.3278 44.8682 11.0733 44.6789C10.5641 44.3633 10.055 44.0478 9.54581 43.6691C8.52751 43.0381 7.50921 42.407 6.49091 41.7759C7.12735 41.9022 7.70014 42.1546 8.20929 42.407C8.78208 42.6594 9.29123 42.9119 9.86403 43.1643C10.5005 43.4798 11.0733 43.7323 11.5824 44.0478Z" fill="white"/>
<path d="M0.699355 29.2801L0.762999 29.1539C1.2085 24.1685 2.92688 19.2461 5.91813 14.8287C4.45433 17.2267 3.2451 19.6879 2.48138 22.3384C2.09951 23.5374 1.84494 24.7364 1.65401 25.9355L3.56332 27.2607C4.13611 26.3141 4.83619 25.4306 5.47262 24.5471C6.04542 23.8529 6.61821 23.1588 7.191 22.4646C7.76379 21.8335 8.33659 21.2655 8.97302 20.6976L13.6826 8.95972L12.728 7.25584C12.6007 7.38205 12.4734 7.44516 12.2825 7.57137C12.1552 7.69759 12.0279 7.8238 11.9006 7.88691C11.0096 8.7073 10.1186 9.59079 9.35488 10.5374C8.27294 11.6102 7.25465 12.8092 6.36364 14.1345C6.87278 13.3141 7.44558 12.5568 8.08201 11.7995C9.2276 10.4112 10.5641 9.08594 11.9643 7.88691C14.3191 5.74128 17.1194 3.91118 20.1107 2.58594C19.156 2.96458 18.2013 3.40633 17.2467 3.91118C16.3557 4.41603 15.4647 4.85778 14.5737 5.42574C13.6826 5.9937 12.8553 6.56167 12.0916 7.19273C10.5005 8.45487 8.97302 9.84322 7.63651 11.3578C4.96348 14.5762 2.86324 18.1733 1.59037 22.0859C0.317494 25.9986 -0.255299 30.1005 0.0629191 34.2024C0.126563 35.2753 0.25385 36.3481 0.444781 37.3578C0.190206 34.6442 0.25385 31.9306 0.699355 29.2801Z" fill="white"/>
</g>
<defs>
<clipPath id="clip0_13391_24566">
<rect width="80" height="65" fill="white"/>
</clipPath>
</defs>
</svg>
