<svg width="31" height="35" viewBox="0 0 31 35" fill="none" xmlns="http://www.w3.org/2000/svg">
<g clip-path="url(#clip0_577_13183)">
<path d="M15.4521 13.7547C18.6173 13.7547 21.3696 14.7143 23.8466 16.3595C24.9475 14.7143 25.498 12.795 25.498 10.7385C25.498 5.25466 20.9567 0.730469 15.4521 0.730469C9.94753 0.730469 5.40625 5.11757 5.40625 10.6014C5.40625 12.6579 6.09432 14.5772 7.05763 16.2224C9.39708 14.5772 12.287 13.7547 15.4521 13.7547Z" fill="#E05263"/>
<path d="M23.8476 16.2227C22.0586 18.9646 19.0311 20.6098 15.4531 20.6098C11.8751 20.6098 8.84762 18.8275 7.05863 16.2227C3.0678 18.9646 0.453125 23.4888 0.453125 28.5614V32.5372C0.453125 33.6339 1.41643 34.5936 2.51735 34.5936H28.2513C29.3522 34.5936 30.3155 33.6339 30.3155 32.5372V28.5614C30.4531 23.4888 27.8384 18.9646 23.8476 16.2227Z" fill="#BDE34F"/>
<path d="M15.4531 20.7458C18.8935 20.7458 22.0586 18.9636 23.8476 16.3587C21.5081 14.7136 18.6182 13.7539 15.4531 13.7539C12.288 13.7539 9.53566 14.7136 7.05859 16.3587C8.84758 18.9636 12.0127 20.7458 15.4531 20.7458Z" fill="#E48670"/>
</g>
<defs>
<clipPath id="clip0_577_13183">
<rect width="30" height="34" fill="white" transform="translate(0.453125 0.59375)"/>
</clipPath>
</defs>
</svg>
