<svg width="36" height="38" viewBox="0 0 36 38" fill="none" xmlns="http://www.w3.org/2000/svg">
<path d="M28.1503 16.8054L22.5007 15.0039L24.2921 24.0114C24.5677 25.2586 23.3275 26.3672 22.0874 25.9515L13.4062 23.1799L14.5086 29.0002C16.0244 37.0376 25.8078 40.3635 31.8708 34.959C38.0716 29.5545 35.8669 19.4384 28.1503 16.8054Z" fill="#E05263"/>
<path d="M13.8207 12.2328L22.5018 15.0044L21.3994 9.18415C19.8836 1.1467 10.238 -2.17914 4.03719 3.22535C-2.1636 8.76842 0.0411258 18.8845 7.75766 21.3789L13.4073 23.1804L11.6159 14.1729C11.3403 12.9257 12.5805 11.8171 13.8207 12.2328Z" fill="#BDE34F"/>
<path d="M24.2941 24.0125L22.5028 15.005L13.8217 12.2335C12.5815 11.8177 11.3413 12.9263 11.6169 14.1735L13.4083 23.181L22.0894 25.9526C23.3295 26.3683 24.5697 25.3982 24.2941 24.0125Z" fill="#E48670"/>
</svg>
