<svg width="40" height="29" viewBox="0 0 40 29" fill="none" xmlns="http://www.w3.org/2000/svg">
<g clip-path="url(#clip0_577_13198)">
<path d="M23.1933 13.2118C23.1933 8.64525 26.8459 4.91993 31.3232 4.91993C31.7945 4.91993 32.2658 4.91993 32.7371 5.0401V3.71821C32.7371 1.91564 31.3232 0.59375 29.6737 0.59375H3.51657C1.86702 0.59375 0.453125 2.03581 0.453125 3.71821V22.2247C0.453125 24.0272 1.86702 25.3491 3.51657 25.3491H3.63439L13.0604 13.6925C13.4139 13.2118 14.2386 13.2118 14.5921 13.6925L23.9003 25.3491H29.5558C31.3232 25.3491 32.6193 23.9071 32.6193 22.2247V21.3834C32.148 21.5036 31.6767 21.5036 31.2054 21.5036C26.8459 21.5036 23.1933 17.7783 23.1933 13.2118Z" fill="#BDE34F"/>
<path d="M2.45515 26.9099C1.86602 27.6309 2.33732 28.5923 3.27992 28.5923H24.6062C25.431 28.5923 25.9023 27.6309 25.431 26.9099L24.0171 25.3477H3.75122L2.45515 26.9099Z" fill="#E05263"/>
<path d="M13.1799 13.6925L3.75391 25.3492H24.0198L14.7116 13.6925C14.3581 13.2119 13.6512 13.2119 13.1799 13.6925Z" fill="#E48670"/>
<path d="M39.4543 13.2107C39.4543 9.1249 36.6265 5.76009 32.7383 5.03906V21.3824C36.6265 20.6614 39.4543 17.2966 39.4543 13.2107Z" fill="#E05263"/>
<path d="M31.3213 4.92188C26.844 4.92188 23.1914 8.6472 23.1914 13.2137C23.1914 17.7802 26.844 21.5056 31.3213 21.5056C31.7926 21.5056 32.2639 21.5056 32.7352 21.3854V5.04205C32.2639 5.04205 31.7926 4.92188 31.3213 4.92188Z" fill="#E48670"/>
</g>
<defs>
<clipPath id="clip0_577_13198">
<rect width="39" height="28" fill="white" transform="translate(0.453125 0.59375)"/>
</clipPath>
</defs>
</svg>
