<svg width="38" height="33" viewBox="0 0 38 33" fill="none" xmlns="http://www.w3.org/2000/svg">
<path d="M33.6037 7.63586L29.8789 8.74783C28.7615 9.11849 27.5199 8.74783 26.7749 7.88296L21.1876 1.58181C19.946 0.222732 17.9594 0.222732 16.7178 1.58181L11.1306 8.00652C10.3856 8.87138 9.14401 9.11849 8.02656 8.87138L4.30173 7.75941C2.06683 7.14165 0.0802533 8.99493 0.576898 11.2189L3.30844 21.9679C3.55676 23.327 4.79837 24.3154 6.16415 24.3154H9.26817C9.26817 23.9447 9.14401 23.4505 9.14401 23.0799C9.14401 17.7671 13.4896 13.4428 18.8286 13.4428C24.1675 13.4428 28.5131 17.7671 28.5131 23.0799C28.5131 23.5741 28.5131 23.9447 28.389 24.3154H31.1205C32.4863 24.3154 33.7279 23.327 33.9762 21.9679L37.2044 11.2189C37.9494 8.87138 35.8386 7.0181 33.6037 7.63586Z" fill="#BDE34F"/>
<path d="M18.7027 24.1914H9.39062C10.0114 28.8864 14.1087 32.5929 18.951 32.5929C23.7933 32.5929 27.8906 29.0099 28.5114 24.1914H18.7027Z" fill="#E05263"/>
<path d="M18.9541 13.1953C13.6152 13.1953 9.26953 17.5196 9.26953 22.8324C9.26953 23.3266 9.26953 23.6972 9.39369 24.0679H18.7058H28.5145C28.5145 23.6972 28.6387 23.203 28.6387 22.8324C28.6387 17.5196 24.293 13.1953 18.9541 13.1953Z" fill="#E48670"/>
</svg>
