<svg width="64" height="51" viewBox="0 0 64 51" fill="none" xmlns="http://www.w3.org/2000/svg">
<g clip-path="url(#clip0_450_1004)">
<path d="M37.8984 44.1969C37.7984 44.8969 37.4984 45.5969 37.1984 46.1969C36.7984 46.7969 36.3984 47.3969 35.7984 47.8969C35.1984 48.3969 34.5984 48.7969 33.8984 48.9969C33.1984 49.1969 32.4984 49.3969 31.6984 49.3969C30.8984 49.3969 30.1984 49.2969 29.4984 48.9969C28.7984 48.7969 28.1984 48.3969 27.5984 47.8969C26.9984 47.3969 26.5984 46.8969 26.1984 46.1969C25.7984 45.4969 25.5984 44.8969 25.4984 44.1969C25.3984 43.7969 25.6984 43.4969 25.9984 43.3969H26.0984H37.1984C37.5984 43.3969 37.8984 43.6969 37.8984 44.0969C37.8984 44.0969 37.8984 44.0969 37.8984 44.1969ZM35.1984 7.79688C35.6984 7.89688 36.2984 8.09687 36.7984 8.29688C37.5984 8.69688 38.2984 8.99687 38.9984 9.39687C38.9984 9.39687 39.0984 9.39687 39.0984 9.49687C39.7984 9.89687 40.3984 10.3969 40.9984 10.7969C41.5984 11.2969 42.1984 11.8969 42.6984 12.4969C43.1984 13.0969 43.6984 13.7969 44.0984 14.4969C44.4984 15.1969 44.7984 15.8969 45.0984 16.6969C45.3984 17.4969 45.5984 18.2969 45.7984 19.0969C45.8984 19.8969 45.9984 20.6969 45.9984 21.5969C45.9984 23.2969 45.9984 24.1969 45.9984 24.2969C45.9984 25.1969 45.9984 25.9969 45.9984 26.7969C45.9984 27.4969 46.0984 28.2969 46.0984 28.9969C46.1984 29.6969 46.2984 30.4969 46.4984 31.0969C46.6984 31.7969 46.8984 32.3969 47.1984 33.0969C47.4984 33.6969 47.8984 34.3969 48.2984 34.9969C48.6984 35.5969 49.2984 36.1969 49.8984 36.7969C50.5984 37.3969 51.2984 37.9969 52.1984 38.5969C52.6984 38.8969 52.7984 39.5969 52.4984 40.0969C52.2984 40.3969 51.8984 40.5969 51.5984 40.5969H41.6984H31.7984H21.8984H11.9984C11.3984 40.5969 10.8984 40.0969 10.8984 39.4969C10.8984 39.0969 11.0984 38.7969 11.3984 38.5969C12.2984 37.9969 13.0984 37.3969 13.6984 36.7969C14.2984 36.1969 14.8984 35.5969 15.2984 34.9969C15.2984 34.9969 15.2984 34.9969 15.2984 34.8969C15.6984 34.2969 16.0984 33.6969 16.3984 33.0969C16.6984 32.4969 16.8984 31.7969 17.0984 31.0969C17.2984 30.3969 17.3984 29.6969 17.4984 28.9969C17.5984 28.2969 17.5984 27.4969 17.5984 26.6969V21.4969C17.5984 20.6969 17.6984 19.7969 17.7984 18.9969C17.9984 18.1969 18.1984 17.3969 18.4984 16.5969C18.7984 15.7969 19.0984 15.0969 19.4984 14.3969C19.8984 13.6969 20.3984 13.0969 20.8984 12.3969C21.3984 11.7969 21.9984 11.1969 22.5984 10.6969C23.1984 10.1969 23.8984 9.69688 24.4984 9.29688C25.1984 8.89687 25.8984 8.49687 26.6984 8.19687C27.1984 7.99687 27.7984 7.79687 28.2984 7.69687C28.4984 6.99687 28.7984 6.49687 29.2984 6.09687C29.8984 5.49687 30.7984 5.29688 31.7984 5.29688C32.7984 5.29688 33.6984 5.59687 34.2984 6.19687C34.6984 6.69687 34.9984 7.19687 35.1984 7.79688Z" stroke="#468432" stroke-width="2" stroke-miterlimit="10"/>
<path d="M1 16.4C1 16.4 1 5 14.3 1" stroke="#E05263" stroke-width="2" stroke-miterlimit="10"/>
<path d="M62.4016 16.3984C62.4016 16.3984 62.4016 4.99844 49.1016 0.898438" stroke="#E05263" stroke-width="2" stroke-miterlimit="10"/>
</g>
<defs>
<clipPath id="clip0_450_1004">
<rect width="63.4" height="50.3" fill="white"/>
</clipPath>
</defs>
</svg>
