<svg width="15" height="15" viewBox="0 0 15 15" fill="none" xmlns="http://www.w3.org/2000/svg">
<path d="M13.0884 2.16744L1.06499 14.1908C0.895527 14.3603 0.581824 14.3202 0.362665 14.101C0.143507 13.8819 0.103387 13.5682 0.272846 13.3987L12.2963 1.3753C12.4657 1.20584 12.7794 1.24596 12.9986 1.46511C13.2177 1.68427 13.2578 1.99798 13.0884 2.16744Z" fill="white"/>
<path d="M13.9404 10.3495C13.848 10.4419 13.7213 10.5053 13.576 10.5132C13.2671 10.5317 13.0031 10.294 12.9846 9.9851L12.5251 2.0637L4.48227 1.48808C4.17334 1.46431 3.94361 1.19763 3.9621 0.888693C3.98586 0.579759 4.24991 0.347397 4.56148 0.368521L13.0955 0.975828C13.3754 0.996952 13.5998 1.22139 13.6156 1.50128L14.1015 9.9138C14.1094 10.0802 14.046 10.2333 13.9378 10.3416L13.9404 10.3495Z" fill="white"/>
</svg>
