<svg width="51" height="56" viewBox="0 0 51 56" fill="none" xmlns="http://www.w3.org/2000/svg">
<path d="M40.613 26.9605C41.4475 26.312 42.5602 25.9414 43.673 25.9414C46.5475 25.9414 48.8657 28.2576 48.8657 31.1296C48.8657 34.0017 46.5475 36.3179 43.673 36.3179C40.7984 36.3179 38.4802 34.0017 38.4802 31.1296C38.4802 29.462 39.222 27.9796 40.4275 27.0532L40.613 26.9605Z" stroke="#468432" stroke-width="2" stroke-miterlimit="10"/>
<path d="M42.5589 54.1034H50.0698V47.5255C50.0698 44.0049 47.1953 41.1328 43.6716 41.1328C40.148 41.1328 37.2734 44.0049 37.2734 47.5255V54.1034H41.9098C41.9098 54.1034 42.4662 54.1034 42.5589 54.1034Z" stroke="#468432" stroke-width="2" stroke-miterlimit="10"/>
<path d="M22.4374 26.9605C23.272 26.312 24.3847 25.9414 25.4974 25.9414C28.372 25.9414 30.6901 28.2576 30.6901 31.1296C30.6901 34.0017 28.372 36.3179 25.4974 36.3179C22.6229 36.3179 20.3047 34.0017 20.3047 31.1296C20.3047 29.462 21.0465 27.9796 22.252 27.0532L22.4374 26.9605Z" stroke="#468432" stroke-width="2" stroke-miterlimit="10"/>
<path d="M24.387 54.1034H31.8979V47.5255C31.8979 44.0049 29.0234 41.1328 25.4997 41.1328C21.9761 41.1328 19.1016 44.0049 19.1016 47.5255V54.1034H23.7379H24.387Z" stroke="#468432" stroke-width="2" stroke-miterlimit="10"/>
<path d="M4.26554 26.9605C5.10009 26.312 6.21281 25.9414 7.32554 25.9414C10.2001 25.9414 12.5183 28.2576 12.5183 31.1296C12.5183 34.0017 10.2001 36.3179 7.32554 36.3179C4.45099 36.3179 2.13281 34.0017 2.13281 31.1296C2.13281 29.462 2.87463 27.9796 4.08009 27.0532L4.26554 26.9605Z" stroke="#468432" stroke-width="2" stroke-miterlimit="10"/>
<path d="M6.21124 54.1034H13.7221V47.5255C13.7221 44.0049 10.8476 41.1328 7.32396 41.1328C3.80033 41.1328 0.925781 44.0049 0.925781 47.5255V54.1034H5.56214H6.21124Z" stroke="#468432" stroke-width="2" stroke-miterlimit="10"/>
<path d="M29.0241 11.7666L25.4078 15.3798L21.7914 11.7666H18.1751C15.2078 11.7666 12.7969 9.35777 12.7969 6.39306C12.7969 3.42835 15.2078 1.01953 18.1751 1.01953H32.7332C35.7005 1.01953 38.1114 3.42835 38.1114 6.39306C38.1114 9.35777 35.7005 11.7666 32.7332 11.7666H29.0241Z" stroke="#E05263" stroke-width="2" stroke-miterlimit="10"/>
<path d="M0.183594 20.3828H50.72" stroke="#E05263" stroke-width="2" stroke-miterlimit="10"/>
</svg>
