<svg width="60" height="43" viewBox="0 0 60 43" fill="none" xmlns="http://www.w3.org/2000/svg">
<path d="M4.60078 11.6C5.50078 10.9 6.70078 10.5 7.90078 10.5C11.0008 10.5 13.5008 13 13.5008 16.1C13.5008 19.2 11.0008 21.7 7.90078 21.7C4.80078 21.7 2.30078 19.2 2.30078 16.1C2.30078 14.3 3.10078 12.7 4.40078 11.7L4.60078 11.6Z" stroke="#468432" stroke-width="2" stroke-miterlimit="10"/>
<path d="M6.7 40.8984H14.8V33.7984C14.8 29.9984 11.7 26.8984 7.9 26.8984C4.1 26.8984 1 29.9984 1 33.7984V40.8984H6C6 40.8984 6.7 40.7984 6.7 40.8984Z" stroke="#468432" stroke-width="2" stroke-miterlimit="10"/>
<path d="M47.9992 11.6C48.8992 10.9 50.0992 10.5 51.2992 10.5C54.3992 10.5 56.8992 13 56.8992 16.1C56.8992 19.2 54.3992 21.7 51.2992 21.7C48.1992 21.7 45.6992 19.2 45.6992 16.1C45.6992 14.3 46.4992 12.7 47.7992 11.7L47.9992 11.6Z" stroke="#468432" stroke-width="2" stroke-miterlimit="10"/>
<path d="M50.0984 40.8984H58.1984V33.7984C58.1984 29.9984 55.0984 26.8984 51.2984 26.8984C47.4984 26.8984 44.3984 29.9984 44.3984 33.7984V40.8984H49.3984C49.3984 40.8984 50.0984 40.7984 50.0984 40.8984Z" stroke="#468432" stroke-width="2" stroke-miterlimit="10"/>
<path d="M25.0031 2.5C26.2031 1.5 27.8031 1 29.5031 1C33.8031 1 37.3031 4.5 37.3031 8.8C37.3031 13.1 33.8031 16.6 29.5031 16.6C25.2031 16.6 21.7031 13.1 21.7031 8.8C21.7031 6.3 22.8031 4.1 24.6031 2.7L25.0031 2.5Z" stroke="#468432" stroke-width="2" stroke-miterlimit="10"/>
<path d="M27.9023 41.0992H39.1023V31.2992C39.1023 25.9992 34.8023 21.6992 29.5023 21.6992C24.2023 21.6992 19.9023 25.9992 19.9023 31.2992V41.0992H26.9023H27.9023Z" stroke="#468432" stroke-width="2" stroke-miterlimit="10"/>
<path d="M54.4016 9.5L29.2016 36.9L17.1016 28.3" stroke="#E05263" stroke-width="2" stroke-miterlimit="10"/>
</svg>
