<svg width="283" height="66" viewBox="0 0 283 66" fill="none" xmlns="http://www.w3.org/2000/svg">
<rect x="2.5" y="2.5" width="278" height="58" rx="29" fill="url(#paint0_linear_201_301)"/>
<rect x="2.5" y="2.5" width="278" height="58" rx="29" stroke="url(#paint1_linear_201_301)" stroke-width="5"/>
<g filter="url(#filter0_di_201_301)">
<rect x="5" y="5" width="273" height="53" rx="26.5" fill="url(#paint2_linear_201_301)"/>
<g filter="url(#filter1_d_201_301)">
<path d="M204.999 22.0006L204.999 40.0006C205 40.1828 205.05 40.3614 205.145 40.5172C205.239 40.673 205.375 40.8001 205.536 40.8848C205.697 40.9694 205.879 41.0085 206.061 40.9977C206.243 40.9869 206.418 40.9267 206.568 40.8236L219.568 31.8236C220.107 31.4506 220.107 30.5526 219.568 30.1786L206.568 21.1786C206.418 21.0744 206.243 21.0133 206.061 21.0019C205.878 20.9906 205.697 21.0294 205.535 21.1141C205.373 21.1988 205.238 21.3262 205.143 21.4825C205.049 21.6388 204.999 21.818 204.999 22.0006Z" fill="#072944"/>
</g>
<g filter="url(#filter2_d_201_301)">
<path d="M74.89 34.54C74.89 36.54 74.42 38 73.48 38.92C72.54 39.84 71.1 40.3 69.16 40.3C68.44 40.3 67.78 40.23 67.18 40.09C66.58 39.97 66.07 39.86 65.65 39.76C65.45 39.72 65.3 39.64 65.2 39.52C65.1 39.38 65.06 39.18 65.08 38.92L65.35 36.58C65.37 36.24 65.54 36.1 65.86 36.16C66.14 36.22 66.44 36.31 66.76 36.43C67.08 36.55 67.49 36.61 67.99 36.61C68.83 36.61 69.45 36.38 69.85 35.92C70.25 35.46 70.45 34.64 70.45 33.46V18.25C70.45 17.91 70.6 17.74 70.9 17.74H74.47C74.75 17.74 74.89 17.9 74.89 18.22V34.54ZM86.0657 40.3C84.5057 40.3 83.1357 39.95 81.9557 39.25C80.7757 38.55 79.8457 37.59 79.1657 36.37C78.5057 35.13 78.1757 33.72 78.1757 32.14C78.1757 30.48 78.5157 29.03 79.1957 27.79C79.8957 26.53 80.8357 25.55 82.0157 24.85C83.2157 24.15 84.5757 23.8 86.0957 23.8C87.6757 23.8 89.0557 24.16 90.2357 24.88C91.4157 25.58 92.3357 26.56 92.9957 27.82C93.6557 29.06 93.9857 30.49 93.9857 32.11C93.9857 33.71 93.6457 35.13 92.9657 36.37C92.3057 37.59 91.3857 38.55 90.2057 39.25C89.0257 39.95 87.6457 40.3 86.0657 40.3ZM86.0957 37.63C86.9557 37.63 87.6757 37.42 88.2557 37C88.8357 36.56 89.2757 35.93 89.5757 35.11C89.8757 34.27 90.0257 33.25 90.0257 32.05C90.0257 30.83 89.8657 29.8 89.5457 28.96C89.2457 28.12 88.8057 27.48 88.2257 27.04C87.6457 26.6 86.9357 26.38 86.0957 26.38C85.2757 26.38 84.5657 26.6 83.9657 27.04C83.3657 27.48 82.9057 28.12 82.5857 28.96C82.2857 29.8 82.1357 30.83 82.1357 32.05C82.1357 33.25 82.2857 34.27 82.5857 35.11C82.9057 35.93 83.3657 36.56 83.9657 37C84.5657 37.42 85.2757 37.63 86.0957 37.63ZM100.845 39.34C100.845 39.58 100.785 39.75 100.665 39.85C100.565 39.95 100.385 40 100.125 40H97.5147C97.2947 40 97.1447 39.96 97.0647 39.88C96.9847 39.78 96.9447 39.64 96.9447 39.46V24.61C96.9447 24.27 97.0947 24.1 97.3947 24.1H100.425C100.705 24.1 100.845 24.26 100.845 24.58V39.34ZM100.905 21.16C100.905 21.62 100.665 21.85 100.185 21.85H97.4547C97.2347 21.85 97.0847 21.8 97.0047 21.7C96.9247 21.6 96.8847 21.45 96.8847 21.25V18.31C96.8847 17.93 97.0447 17.74 97.3647 17.74H100.455C100.755 17.74 100.905 17.91 100.905 18.25V21.16ZM105.16 40C104.8 40 104.62 39.82 104.62 39.46V24.61C104.62 24.27 104.76 24.1 105.04 24.1H108.04C108.3 24.1 108.43 24.25 108.43 24.55V26.11C108.43 26.23 108.46 26.31 108.52 26.35C108.58 26.37 108.66 26.33 108.76 26.23C109.34 25.73 109.9 25.3 110.44 24.94C110.98 24.58 111.54 24.3 112.12 24.1C112.7 23.9 113.33 23.8 114.01 23.8C115.49 23.8 116.65 24.23 117.49 25.09C118.35 25.93 118.78 27.05 118.78 28.45V39.37C118.78 39.79 118.57 40 118.15 40H115.39C115.21 40 115.08 39.96 115 39.88C114.92 39.8 114.88 39.66 114.88 39.46V29.14C114.88 28.36 114.67 27.76 114.25 27.34C113.83 26.9 113.2 26.68 112.36 26.68C111.88 26.68 111.43 26.76 111.01 26.92C110.61 27.06 110.21 27.28 109.81 27.58C109.41 27.88 108.98 28.26 108.52 28.72V39.4C108.52 39.8 108.29 40 107.83 40H105.16ZM146.764 17.74C147.004 17.74 147.124 17.88 147.124 18.16V39.55C147.124 39.69 147.074 39.8 146.974 39.88C146.894 39.96 146.774 40 146.614 40H144.124C143.984 40 143.864 39.99 143.764 39.97C143.664 39.93 143.544 39.83 143.404 39.67L133.144 25.09C133.064 24.97 132.984 24.92 132.904 24.94C132.844 24.96 132.814 25.02 132.814 25.12V39.52C132.834 39.84 132.664 40 132.304 40H129.664C129.304 40 129.124 39.84 129.124 39.52V18.25C129.124 17.91 129.284 17.74 129.604 17.74H132.604C132.804 17.74 132.954 17.77 133.054 17.83C133.154 17.87 133.264 17.97 133.384 18.13L143.044 32.05C143.164 32.21 143.264 32.28 143.344 32.26C143.444 32.22 143.494 32.12 143.494 31.96V18.22C143.494 17.9 143.654 17.74 143.974 17.74H146.764ZM158.458 40.3C156.898 40.3 155.528 39.95 154.348 39.25C153.168 38.55 152.238 37.59 151.558 36.37C150.898 35.13 150.568 33.72 150.568 32.14C150.568 30.48 150.908 29.03 151.588 27.79C152.288 26.53 153.228 25.55 154.408 24.85C155.608 24.15 156.968 23.8 158.488 23.8C160.068 23.8 161.448 24.16 162.628 24.88C163.808 25.58 164.728 26.56 165.388 27.82C166.048 29.06 166.378 30.49 166.378 32.11C166.378 33.71 166.038 35.13 165.358 36.37C164.698 37.59 163.778 38.55 162.598 39.25C161.418 39.95 160.038 40.3 158.458 40.3ZM158.488 37.63C159.348 37.63 160.068 37.42 160.648 37C161.228 36.56 161.668 35.93 161.968 35.11C162.268 34.27 162.418 33.25 162.418 32.05C162.418 30.83 162.258 29.8 161.938 28.96C161.638 28.12 161.198 27.48 160.618 27.04C160.038 26.6 159.328 26.38 158.488 26.38C157.668 26.38 156.958 26.6 156.358 27.04C155.758 27.48 155.298 28.12 154.978 28.96C154.678 29.8 154.528 30.83 154.528 32.05C154.528 33.25 154.678 34.27 154.978 35.11C155.298 35.93 155.758 36.56 156.358 37C156.958 37.42 157.668 37.63 158.488 37.63ZM189.816 24.1C189.996 24.1 190.116 24.16 190.176 24.28C190.256 24.4 190.266 24.54 190.206 24.7L185.406 39.55C185.366 39.71 185.296 39.83 185.196 39.91C185.116 39.97 184.986 40 184.806 40H182.676C182.296 40 182.056 39.83 181.956 39.49L179.046 30.22C178.966 30.04 178.886 29.95 178.806 29.95C178.746 29.95 178.686 30.04 178.626 30.22L175.746 39.55C175.706 39.71 175.636 39.83 175.536 39.91C175.456 39.97 175.326 40 175.146 40H172.926C172.566 40 172.336 39.83 172.236 39.49L167.436 24.73C167.376 24.55 167.386 24.4 167.466 24.28C167.546 24.16 167.676 24.1 167.856 24.1H170.766C170.906 24.1 171.036 24.14 171.156 24.22C171.276 24.3 171.346 24.41 171.366 24.55L174.366 34.12C174.406 34.32 174.466 34.42 174.546 34.42C174.646 34.4 174.726 34.29 174.786 34.09L177.696 24.52C177.736 24.4 177.806 24.3 177.906 24.22C178.006 24.14 178.126 24.1 178.266 24.1H180.426C180.546 24.1 180.656 24.14 180.756 24.22C180.876 24.3 180.956 24.41 180.996 24.55L183.966 34.12C184.026 34.32 184.096 34.42 184.176 34.42C184.256 34.4 184.326 34.29 184.386 34.09L187.296 24.52C187.356 24.4 187.436 24.3 187.536 24.22C187.636 24.14 187.756 24.1 187.896 24.1H189.816Z" fill="#072944"/>
</g>
</g>
<defs>
<filter id="filter0_di_201_301" x="1" y="2" width="281" height="64" filterUnits="userSpaceOnUse" color-interpolation-filters="sRGB">
<feFlood flood-opacity="0" result="BackgroundImageFix"/>
<feColorMatrix in="SourceAlpha" type="matrix" values="0 0 0 0 0 0 0 0 0 0 0 0 0 0 0 0 0 0 127 0" result="hardAlpha"/>
<feOffset dy="4"/>
<feGaussianBlur stdDeviation="2"/>
<feComposite in2="hardAlpha" operator="out"/>
<feColorMatrix type="matrix" values="0 0 0 0 0 0 0 0 0 0 0 0 0 0 0 0 0 0 0.25 0"/>
<feBlend mode="normal" in2="BackgroundImageFix" result="effect1_dropShadow_201_301"/>
<feBlend mode="normal" in="SourceGraphic" in2="effect1_dropShadow_201_301" result="shape"/>
<feColorMatrix in="SourceAlpha" type="matrix" values="0 0 0 0 0 0 0 0 0 0 0 0 0 0 0 0 0 0 127 0" result="hardAlpha"/>
<feOffset dy="-3"/>
<feGaussianBlur stdDeviation="1.5"/>
<feComposite in2="hardAlpha" operator="arithmetic" k2="-1" k3="1"/>
<feColorMatrix type="matrix" values="0 0 0 0 0.022963 0 0 0 0 0.129167 0 0 0 0 0 0 0 0 0.3 0"/>
<feBlend mode="normal" in2="shape" result="effect2_innerShadow_201_301"/>
</filter>
<filter id="filter1_d_201_301" x="204" y="21" width="16.9731" height="21.9994" filterUnits="userSpaceOnUse" color-interpolation-filters="sRGB">
<feFlood flood-opacity="0" result="BackgroundImageFix"/>
<feColorMatrix in="SourceAlpha" type="matrix" values="0 0 0 0 0 0 0 0 0 0 0 0 0 0 0 0 0 0 127 0" result="hardAlpha"/>
<feOffset dy="1"/>
<feGaussianBlur stdDeviation="0.5"/>
<feComposite in2="hardAlpha" operator="out"/>
<feColorMatrix type="matrix" values="0 0 0 0 0 0 0 0 0 0 0 0 0 0 0 0 0 0 0.25 0"/>
<feBlend mode="normal" in2="BackgroundImageFix" result="effect1_dropShadow_201_301"/>
<feBlend mode="normal" in="SourceGraphic" in2="effect1_dropShadow_201_301" result="shape"/>
</filter>
<filter id="filter2_d_201_301" x="64.0498" y="17.74" width="127.247" height="24.5601" filterUnits="userSpaceOnUse" color-interpolation-filters="sRGB">
<feFlood flood-opacity="0" result="BackgroundImageFix"/>
<feColorMatrix in="SourceAlpha" type="matrix" values="0 0 0 0 0 0 0 0 0 0 0 0 0 0 0 0 0 0 127 0" result="hardAlpha"/>
<feOffset dy="1"/>
<feGaussianBlur stdDeviation="0.5"/>
<feComposite in2="hardAlpha" operator="out"/>
<feColorMatrix type="matrix" values="0 0 0 0 0 0 0 0 0 0 0 0 0 0 0 0 0 0 0.25 0"/>
<feBlend mode="normal" in2="BackgroundImageFix" result="effect1_dropShadow_201_301"/>
<feBlend mode="normal" in="SourceGraphic" in2="effect1_dropShadow_201_301" result="shape"/>
</filter>
<linearGradient id="paint0_linear_201_301" x1="141.5" y1="9.20975" x2="141.5" y2="59.5" gradientUnits="userSpaceOnUse">
<stop stop-color="#6FB95D"/>
<stop offset="0.53" stop-color="#236115"/>
<stop offset="0.88" stop-color="#236115"/>
<stop offset="1" stop-color="#103C06"/>
</linearGradient>
<linearGradient id="paint1_linear_201_301" x1="2.37815" y1="16.0714" x2="26.0857" y2="113.61" gradientUnits="userSpaceOnUse">
<stop stop-color="#C2A64A"/>
<stop offset="1" stop-color="#A77A2E"/>
</linearGradient>
<linearGradient id="paint2_linear_201_301" x1="141.5" y1="5" x2="141.5" y2="55.0556" gradientUnits="userSpaceOnUse">
<stop stop-color="#EFFFC1"/>
<stop offset="1" stop-color="#BDE34F"/>
</linearGradient>
</defs>
</svg>
