<svg width="40" height="36" viewBox="0 0 40 36" fill="none" xmlns="http://www.w3.org/2000/svg">
<g clip-path="url(#clip0_187_1632)">
<path d="M7.65677 28.6691C7.92079 28.6691 8.18482 28.6691 8.44884 28.8L12.5413 17.8036C11.4851 17.1491 10.6931 15.9709 10.6931 14.6618C10.6931 12.5673 12.4092 10.9964 14.3894 10.9964C16.5016 10.9964 18.0858 12.6982 18.0858 14.6618C18.0858 15.1855 17.9538 15.5782 17.8218 15.9709L24.4224 21.0764C24.9505 20.5527 25.6106 20.2909 26.4026 20.16V1.83273C26.4026 0.785454 25.6106 0 24.5545 0H1.84818C0.792079 0 0 0.785454 0 1.83273V30.3709C0 31.4182 0.792079 32.2036 1.84818 32.2036H3.9604C4.09241 30.24 5.67657 28.6691 7.65677 28.6691Z" fill="#468432"/>
<path d="M23.3653 23.6959C23.3653 23.0414 23.4973 22.5177 23.7613 21.9941L17.1607 17.0195C16.5006 17.805 15.5765 18.1977 14.3884 18.1977C14.1244 18.1977 13.9924 18.1977 13.7283 18.1977L9.50391 29.325C10.56 29.9795 11.2201 31.0268 11.2201 32.3359H24.5534C25.6095 32.3359 26.4016 31.5504 26.4016 30.5032V27.3613C24.8174 27.0995 23.3653 25.5286 23.3653 23.6959Z" fill="#468432"/>
<path d="M3.96094 32.334C3.96094 34.4286 5.67711 35.9995 7.65731 35.9995C9.63751 35.9995 11.3537 34.2977 11.3537 32.334C11.3537 32.334 11.3537 32.334 11.3537 32.2031L3.96094 32.334Z" fill="#E05263"/>
<path d="M36.1713 6.80859C34.0591 6.80859 32.475 8.51041 32.475 10.474C32.475 11.5213 33.003 12.4377 33.6631 13.2231L28.7786 20.554C28.2505 20.2922 27.5905 20.0304 26.9304 20.0304C26.7984 20.0304 26.5344 20.0304 26.4023 20.0304V27.2304C26.5344 27.2304 26.6664 27.2304 26.9304 27.2304C29.0426 27.2304 30.6268 25.5286 30.6268 23.565C30.6268 22.6486 30.2307 21.8631 29.7027 21.2086L34.5872 13.7468C34.9832 13.8777 35.5113 14.0086 36.0393 14.0086C38.1515 14.0086 39.7357 12.3068 39.7357 10.3431C39.9997 8.51041 38.2835 6.80859 36.1713 6.80859Z" fill="#E05263"/>
<path d="M24.555 20.9472L17.9543 15.8417C18.0864 15.449 18.2184 14.9254 18.2184 14.5326C18.2184 12.4381 16.5022 10.8672 14.522 10.8672C12.4098 10.8672 10.8256 12.569 10.8256 14.5326C10.8256 15.8417 11.6177 17.0199 12.6738 17.6745L8.44939 28.8017C8.18536 28.8017 7.92133 28.6708 7.65731 28.6708C5.67711 28.6708 3.96094 30.2417 3.96094 32.3363H11.3537C11.3537 31.0272 10.6936 29.9799 9.63751 29.3254L13.8619 18.1981C14.126 18.1981 14.258 18.1981 14.522 18.1981C15.5781 18.1981 16.6342 17.6745 17.2943 17.0199L23.8949 21.9945C23.6309 22.5181 23.4989 23.0417 23.4989 23.6963C23.4989 25.529 24.951 27.0999 26.6672 27.3617V20.1617C25.8751 20.1617 25.083 20.5545 24.555 20.9472Z" fill="#E48670"/>
</g>
<defs>
<clipPath id="clip0_187_1632">
<rect width="40" height="36" fill="white"/>
</clipPath>
</defs>
</svg>
