<svg width="30" height="36" viewBox="0 0 30 36" fill="none" xmlns="http://www.w3.org/2000/svg">
<g clip-path="url(#clip0_187_1617)">
<path d="M14.625 22.0337V5.37891C6.5 5.63513 0 12.2971 0 20.7526C0 29.2081 6.75 36.1262 15 36.1262C23.25 36.1262 30 29.2081 30 20.7526C30 16.9092 28.625 13.4501 26.375 10.7597L14.625 22.0337Z" fill="#468432"/>
<path d="M26.375 10.7616L30.125 7.17438C26.25 2.81851 20.75 0 14.625 0V5.38078C14.75 5.38078 14.875 5.38078 15 5.38078C19.5 5.38078 23.625 7.4306 26.375 10.7616Z" fill="#E05263"/>
<path d="M26.375 10.7597C23.625 7.42873 19.5 5.37891 15 5.37891C14.875 5.37891 14.75 5.37891 14.625 5.37891V22.0337L26.375 10.7597Z" fill="#E48670"/>
</g>
<defs>
<clipPath id="clip0_187_1617">
<rect width="30" height="36" fill="white"/>
</clipPath>
</defs>
</svg>
