<svg width="42" height="42" viewBox="0 0 42 42" fill="none" xmlns="http://www.w3.org/2000/svg">
<path d="M34.3972 36.1345C38.6617 36.1345 42.1187 32.6678 42.1187 28.3915C42.1187 24.1151 38.6617 20.6484 34.3972 20.6484C30.1328 20.6484 26.6758 24.1151 26.6758 28.3915C26.6758 32.6678 30.1328 36.1345 34.3972 36.1345Z" fill="#E05263"/>
<path d="M23.9833 32.4991L19.5376 18.7728C18.1337 21.4712 14.624 22.527 11.9331 20.7672C9.94429 19.5941 9.00836 17.2477 9.59331 15.0186L10.1783 12.3203H10.0613L3.97772 16.4265L0 20.298L20.1226 39.8901C20.1226 39.8901 24.5682 42.4711 26.5571 41.7672C28.546 41.0633 28.546 38.5996 28.546 38.5996C28.546 38.5996 28.312 36.4879 23.9833 32.4991Z" fill="#468432"/>
<path d="M19.539 18.771C19.656 18.6536 19.656 18.5363 19.773 18.3017L27.2605 1.64246L13.2215 0L10.1797 12.3184L19.539 18.771Z" fill="#E05263"/>
<path d="M11.9338 20.7672C14.6246 22.4097 18.0173 21.4712 19.5382 18.7728L10.2959 12.3203L9.71093 15.0186C9.00898 17.2477 10.0619 19.5941 11.9338 20.7672Z" fill="#E48670"/>
</svg>
