<svg width="18" height="18" viewBox="0 0 18 18" fill="none" xmlns="http://www.w3.org/2000/svg">
<g clip-path="url(#clip0_23_1519)">
<path d="M8.87404 1.50495C9.92134 1.50495 10.937 1.70992 11.8927 2.11417C12.8161 2.50477 13.6456 3.06405 14.3581 3.77653C15.0705 4.48901 15.6299 5.3185 16.0204 6.24196C16.4247 7.19768 16.6297 8.21332 16.6297 9.2606C16.6297 10.3079 16.4247 11.3235 16.0205 12.2792C15.6299 13.2027 15.0706 14.0322 14.3581 14.7446C13.6457 15.4571 12.8162 16.0164 11.8927 16.407C10.937 16.8113 9.92134 17.0163 8.87404 17.0163C7.82674 17.0163 6.81112 16.8113 5.85537 16.407C4.93191 16.0164 4.10243 15.4572 3.38996 14.7447C2.6775 14.0322 2.11819 13.2027 1.72762 12.2793C1.32335 11.3235 1.11838 10.3079 1.11838 9.2606C1.11838 8.21332 1.32335 7.19768 1.7276 6.24194C2.1182 5.31848 2.67748 4.48899 3.38995 3.77651C4.10241 3.06405 4.93191 2.50475 5.85536 2.11415C6.81112 1.70992 7.82675 1.50495 8.87404 1.50495ZM8.87404 0.867035C4.23839 0.867035 0.480469 4.62495 0.480469 9.2606C0.480469 13.8962 4.23837 17.6542 8.87404 17.6542C13.5097 17.6542 17.2676 13.8962 17.2676 9.2606C17.2676 4.62495 13.5097 0.867035 8.87404 0.867035Z" fill="#AF9258"/>
<path d="M8.87401 17.0291C13.1666 17.0291 16.6465 13.5493 16.6465 9.25667C16.6465 4.96406 13.1666 1.48422 8.87401 1.48422C4.5814 1.48422 1.10156 4.96406 1.10156 9.25667C1.10156 13.5493 4.5814 17.0291 8.87401 17.0291Z" fill="white"/>
<path d="M16.6499 8.8496C16.4376 4.73749 13.0362 1.4686 8.87126 1.4686C4.70631 1.4686 1.30491 4.73749 1.09259 8.8496C1.08561 8.98479 1.08203 9.12089 1.08203 9.25783C1.08203 9.39605 1.08569 9.53342 1.09281 9.66988C1.22006 12.1111 2.47125 14.2547 4.33874 15.5931C5.18934 16.2027 6.16776 16.6454 7.22612 16.8729C7.75646 16.9869 8.30683 17.0471 8.87126 17.0471C9.43566 17.0471 9.98603 16.9869 10.5164 16.8729C11.5747 16.6453 12.5532 16.2027 13.4038 15.5931C15.2712 14.2547 16.5225 12.1111 16.6497 9.66988C16.6568 9.53342 16.6605 9.39605 16.6605 9.25783C16.6605 9.12089 16.6569 8.98479 16.6499 8.8496ZM2.43627 6.53981C2.78796 5.70831 3.2916 4.9614 3.93321 4.31979C4.57481 3.67819 5.32174 3.17454 6.15322 2.82285C7.01366 2.4589 7.92814 2.27438 8.87126 2.27438C9.81438 2.27438 10.7288 2.4589 11.5893 2.82285C12.4207 3.17454 13.1677 3.67819 13.8093 4.31979C14.4509 4.9614 14.9545 5.70832 15.3062 6.53981C15.6174 7.2755 15.7973 8.05075 15.843 8.8496H1.89955C1.94521 8.05075 2.1251 7.2755 2.43627 6.53981ZM6.15322 15.6928C5.49121 15.4128 4.88304 15.0362 4.33874 14.5706V9.66988H7.22612V16.047C6.86072 15.9587 6.50253 15.8405 6.15322 15.6928ZM11.5893 15.6928C11.24 15.8405 10.8818 15.9587 10.5164 16.047V9.66988H13.4038V14.5706C12.8594 15.0362 12.2513 15.4128 11.5893 15.6928Z" fill="#182B53"/>
<path d="M6.82849 4.86602H5.96763V5.72365H6.75102V6.39365H5.96763V8.02706H5.15234V4.19516H6.82852L6.82849 4.86602Z" fill="#182B53"/>
<path d="M9.94837 5.8287L9.15124 5.8175L9.1482 5.21316C9.1482 5.15083 9.17059 4.8216 8.90074 4.8216C8.65019 4.8216 8.64458 5.12285 8.64458 5.18518V7.1269C8.64458 7.18928 8.71014 7.39887 8.90074 7.39887C9.08666 7.39887 9.1482 7.21725 9.1482 7.15486L9.15124 6.31551L9.94837 6.3267V7.15486C9.94837 7.33657 9.92041 8.08438 8.91002 8.08438C8.02344 8.08438 7.81641 7.48579 7.81641 7.02617V5.18518C7.81641 4.97254 7.90034 4.13266 8.89323 4.13266C9.88122 4.13266 9.94837 4.83265 9.94837 5.04529V5.8287Z" fill="#182B53"/>
<path d="M12.8956 8.02706H10.9141V7.39527L11.9132 4.86601H10.9309V4.19516H12.8315V4.81566L11.8597 7.33937L12.8956 7.33932V8.02706Z" fill="#182B53"/>
</g>
<defs>
<clipPath id="clip0_23_1519">
<rect width="16.7871" height="16.7871" fill="white" transform="translate(0.480469 0.867035)"/>
</clipPath>
</defs>
</svg>
