<svg width="35" height="37" viewBox="0 0 35 37" fill="none" xmlns="http://www.w3.org/2000/svg">
<g clip-path="url(#clip0_450_1064)">
<path d="M27.6972 16.2117L22.0476 14.4102L23.839 23.4176C24.1145 24.6648 22.8744 25.7735 21.6342 25.3577L12.9531 22.5862L14.0555 28.4064C15.5712 36.4439 25.3547 39.7697 31.4177 34.3652C37.6185 28.9607 35.4138 18.8446 27.6972 16.2117Z" fill="#E05263"/>
<path d="M13.3675 11.6391L22.0486 14.4106L20.9463 8.5904C19.4305 0.552949 9.78485 -2.77289 3.58406 2.6316C-2.61672 8.17467 -0.411999 18.2908 7.30454 20.7852L12.9541 22.5867L11.1628 13.5792C10.8872 12.332 12.1274 11.2234 13.3675 11.6391Z" fill="#468432"/>
<path d="M23.841 23.4187L22.0496 14.4112L13.3685 11.6397C12.1284 11.224 10.8882 12.3326 11.1638 13.5798L12.9551 22.5873L21.6362 25.3588C22.8764 25.7745 24.1166 24.8045 23.841 23.4187Z" fill="#E48670"/>
</g>
<defs>
<clipPath id="clip0_450_1064">
<rect width="35" height="37" fill="white"/>
</clipPath>
</defs>
</svg>
