<?xml version="1.0" encoding="utf-8"?>
<!-- Generator: Adobe Illustrator 25.0.1, SVG Export Plug-In . SVG Version: 6.00 Build 0)  -->
<svg version="1.1" id="Layer_1" xmlns="http://www.w3.org/2000/svg" xmlns:xlink="http://www.w3.org/1999/xlink" x="0px" y="0px"
	 viewBox="0 0 338.2 150.1" style="enable-background:new 0 0 338.2 150.1;" xml:space="preserve">
<style type="text/css">
	.st0{fill:#E05263;}
	.st1{fill:#FFFFFF;}
</style>
<g>
	<g>
		<path class="st0" d="M97.9,21.4c-0.4,0-0.7-0.2-1-0.5c-2.5-3.7-5.4-7-8.7-10c-0.5-0.4-0.5-1.1-0.1-1.6c0.4-0.5,1.1-0.5,1.6-0.1
			c3.5,3.1,6.5,6.6,9.1,10.4c0.4,0.5,0.2,1.2-0.3,1.6C98.4,21.3,98.2,21.4,97.9,21.4z"/>
		<path class="st0" d="M85,7.9c-0.2,0-0.5-0.1-0.7-0.2c-1.6-1.1-3.2-2.2-4.9-3.2c-0.6-0.3-0.7-1-0.4-1.6c0.3-0.6,1-0.7,1.6-0.4
			c1.8,1,3.5,2.1,5.1,3.3c0.5,0.4,0.6,1.1,0.3,1.6C85.7,7.8,85.3,7.9,85,7.9z"/>
		<polygon class="st0" points="217.2,91.7 220.6,72 128.6,72 139.8,91.7 		"/>
		<path class="st0" d="M149.4,26.6h-43.9c-0.6,0-1.2-0.5-1.2-1.2c0-0.6,0.5-1.2,1.2-1.2h43.9c0.6,0,1.2,0.5,1.2,1.2
			C150.6,26.1,150.1,26.6,149.4,26.6z"/>
		<path class="st0" d="M198.7,99.1h-33.1c-0.6,0-1.2-0.5-1.2-1.2c0-0.6,0.5-1.2,1.2-1.2h33.1c0.6,0,1.2,0.5,1.2,1.2
			C199.8,98.6,199.3,99.1,198.7,99.1z"/>
		<path class="st0" d="M210.3,99.1h-5.7c-0.6,0-1.2-0.5-1.2-1.2c0-0.6,0.5-1.2,1.2-1.2h5.7c0.6,0,1.2,0.5,1.2,1.2
			C211.5,98.6,211,99.1,210.3,99.1z"/>
		<g>
			<path class="st0" d="M325.6,30.4H96.3c-0.5-0.8-0.9-1.5-1.4-2.3c-0.1-0.2-0.2-0.4-0.4-0.5c-1.9-2.6-5.6-3.2-8.2-1.2
				c-2.6,1.9-3.2,5.6-1.2,8.2c1.4,1.9,2.8,3.7,4.2,5.5c1.4,1.8,2.8,3.6,4.3,5.3c2.9,3.5,5.8,7,8.7,10.4c5.9,6.9,12,13.6,18.3,20
				c6.3,6.5,12.8,12.8,19.6,18.7c6.8,6,13.8,11.6,21.2,16.7c-6.8-5.9-13.1-12.2-19.2-18.8c-1.9-2.1-3.8-4.3-5.7-6.4h192.6l8.5-40.6
				C339.5,37.7,333.6,30.4,325.6,30.4z"/>
			<path class="st0" d="M97.6,68.8c8.2,6.9,16.5,13.7,24.9,20.4c8.4,6.7,16.8,13.3,25.4,19.7c8.6,6.4,17.3,12.7,26.3,18.4
				c-8.4-6.6-16.5-13.6-24.4-20.7c-7.9-7.1-15.7-14.5-23.4-21.8c-7.7-7.4-15.3-14.9-22.8-22.4c-7.5-7.6-15-15.2-22.3-22.9l0,0
				c-0.1-0.1-0.2-0.2-0.4-0.4c-2.5-2.1-6.2-1.9-8.3,0.6c-2.1,2.4-1.9,6.2,0.6,8.3C81.2,55,89.3,61.9,97.6,68.8z"/>
			<path class="st0" d="M69.9,55.4L69.9,55.4c-0.1-0.1-0.3-0.2-0.4-0.3c-2.6-2-6.3-1.4-8.2,1.1c-2,2.6-1.4,6.3,1.1,8.2l56.8,42.9
				c18.9,14.3,37.9,28.5,56.9,42.7c-17.8-15.7-35.5-31.5-53.2-47.3L69.9,55.4z"/>
			<path class="st0" d="M108.7,102.9C100.2,96,91.6,89.2,83,82.4C74.4,75.5,65.8,68.8,57.1,62c-0.1-0.1-0.3-0.2-0.4-0.3
				c-2.7-1.8-6.4-1-8.1,1.8c-1.8,2.7-1,6.4,1.8,8.1l0,0c9.2,5.9,18.4,11.9,27.5,17.9c9.2,6,18.3,12.1,27.4,18.2
				c9.1,6.1,18.2,12.2,27.2,18.5c9,6.2,18,12.5,26.8,19c-8.2-7.3-16.6-14.3-25-21.4C125.8,116.8,117.2,109.8,108.7,102.9z"/>
			<path class="st0" d="M84,115.1c-7.4-5-15-9.8-22.7-14.4c-3.9-2.3-7.7-4.6-11.7-6.8c-2-1.1-3.9-2.2-5.9-3.3c-2-1.1-4-2.1-6-3.2
				c-0.2-0.1-0.4-0.2-0.6-0.3c-3-1.2-6.4,0.4-7.6,3.4c-1.2,3,0.4,6.4,3.4,7.6c2,0.8,4,1.6,6.1,2.4c2,0.8,4.1,1.7,6.1,2.5
				c4,1.7,8.1,3.5,12.1,5.3c8,3.7,16,7.5,23.8,11.6c7.8,4.1,15.5,8.5,23,13.1c7.5,4.7,14.9,9.7,21.8,15.2
				c-6.3-6.2-13.1-12.1-20.2-17.6C98.6,125.4,91.4,120.1,84,115.1z"/>
			<path class="st0" d="M44.9,89.3c1.6,0.9,3.3,1.8,5,2.7c1.7,0.9,3.3,1.9,5,2.8c3.3,1.9,6.7,3.8,10,5.8c6.6,3.9,13.2,7.9,19.7,12.1
				c13,8.3,25.7,17.1,37.9,26.6c-10.9-10.9-22.5-21.3-34.4-31.3c-6-5-12-9.9-18.2-14.6c-3.1-2.4-6.2-4.7-9.3-7.1
				c-1.6-1.2-3.1-2.3-4.7-3.5c-1.6-1.2-3.2-2.3-4.8-3.4l0,0c-0.2-0.1-0.4-0.3-0.6-0.4c-2.9-1.5-6.4-0.4-8,2.5
				C40.9,84.2,42,87.8,44.9,89.3z"/>
		</g>
	</g>
	<path class="st1" d="M1.1,46.4l0.1-0.2C1.9,38,4.8,29.8,10,22.5c1.5-2.1,3.1-4,4.8-5.7C21.9,8.2,32.5,2.4,43.9,0.6
		C49.7-0.3,55.8-0.2,61.7,1c5.9,1.2,11.6,3.5,16.7,6.8c0.6,0.4,1.3,0.8,1.9,1.3l0.4,0.3l0.5,0.3c0.3,0.2,0.6,0.5,0.9,0.7
		c1.2,0.9,2.4,1.9,3.5,2.9c2.2,2.1,4.3,4.3,6.2,6.8c3.7,4.9,6.5,10.4,8.3,16.3c1.8,5.9,2.4,12.1,2.1,18.2
		c-0.4,6.1-1.9,12.2-4.5,17.9c-2.6,5.6-6.1,10.8-10.4,15.2c-4.3,4.4-9.4,8-15,10.6c-11.2,5.2-24.1,6.2-35.8,2.8
		C24.7,97.7,14.5,90,8.1,80C1.7,70-0.8,57.7,1.1,46.4z"/>
	<g>
		<g>
			<path class="st1" d="M27.2,6.6C7.9,16.6-1.8,37.7,1.6,58c0.8,4.9,2.4,9.7,4.8,14.3c2.4,4.6,5.5,8.7,9,12.2
				C30.1,99,53,103.1,72.2,93c23.9-12.4,33.1-41.9,20.7-65.8C80.5,3.4,51-5.9,27.2,6.6z"/>
			<path class="st0" d="M27.3,6.8c-1.4,0.7-2.8,1.5-4.1,2.4c-1.3,0.9-2.6,1.8-3.8,2.8c-2.4,2-4.7,4.3-6.7,6.7
				c-4,4.9-7,10.6-8.8,16.6c-1.8,6-2.4,12.4-1.7,18.6c0.6,6.2,2.5,12.3,5.5,17.7c3,5.5,7,10.3,11.8,14.2c4.8,3.9,10.3,6.9,16.2,8.6
				c11.8,3.6,24.9,2.4,35.7-3.3c5.4-2.8,10.3-6.7,14.3-11.4c3.9-4.7,7-10.1,8.9-16c1.9-5.9,2.7-12.1,2.2-18.2
				c-0.5-6.1-2.1-12.2-4.9-17.8c-2.8-5.5-6.7-10.6-11.4-14.6C75.6,9.2,70.1,6,64.1,4c-6-2-12.3-2.8-18.6-2.3
				C39.2,2.2,32.9,3.9,27.3,6.8z M27,6.4c5.6-3,11.9-5,18.3-5.6c6.4-0.7,13,0,19.2,1.8c6.2,1.9,12.1,4.9,17.1,9
				c5.1,4.1,9.3,9.2,12.4,15c3.1,5.8,5.1,12.2,5.8,18.7c0.6,6.6,0,13.3-2,19.6c-1.9,6.3-5.1,12.3-9.4,17.4
				c-4.2,5.1-9.5,9.3-15.4,12.4c-5.9,3.1-12.4,5-19,5.5c-6.6,0.5-13.3-0.2-19.6-2.3c-6.3-2-12.2-5.3-17.2-9.6
				c-5-4.3-9.1-9.6-12-15.4c-3-5.9-4.7-12.3-5.2-18.8C-0.3,47.7,0.5,41.1,2.5,35c2-6.2,5.3-11.9,9.5-16.8c2.1-2.4,4.4-4.7,7-6.6
				c1.3-1,2.6-1.9,3.9-2.8C24.2,7.9,25.6,7.1,27,6.4z"/>
		</g>
		<g>
			<g>
				<g>
					<path class="st0" d="M1.7,41.3c-0.9,4.9-1,10-0.3,15.1c0.7,5.2,2.2,10,4.3,14.5l2.7-3.2l-3.3-24L1.7,41.3z"/>
					<path class="st0" d="M5.6,72l-0.4-0.8C3,66.5,1.6,61.6,0.9,56.5c-0.7-5.1-0.6-10.3,0.3-15.3l0.2-0.9l4.4,3.1l3.3,24.5L5.6,72z
						 M2.2,42.3c-0.7,4.6-0.8,9.3-0.1,14C2.7,61,4,65.5,5.9,69.8l1.9-2.3L4.6,44L2.2,42.3z"/>
				</g>
				<g>
					<path class="st0" d="M81.2,12.5C77.4,9.4,73,6.7,68.2,4.7c-4.8-2-9.8-3.1-14.7-3.5L55,5.2l22.4,9.2L81.2,12.5z"/>
					<path class="st0" d="M77.4,15L54.5,5.6l-1.9-5l0.9,0.1C58.7,1,63.7,2.2,68.4,4.2c4.8,2,9.2,4.6,13.1,7.9l0.7,0.6L77.4,15z
						 M55.4,4.7l21.9,9l2.7-1.3C76.4,9.5,72.4,7.1,68,5.3c-4.4-1.8-8.9-2.9-13.6-3.4L55.4,4.7z"/>
				</g>
				<g>
					<path class="st0" d="M66.3,95.7c4.7-1.7,9.1-4.1,13.2-7.3c4.1-3.2,7.6-6.9,10.4-11l-4.1-0.7L66.7,91.5L66.3,95.7z"/>
					<path class="st0" d="M65.7,96.6l0.5-5.4l19.5-15.1L91,77l-0.5,0.8C87.6,82,84,85.7,80,88.9c-4.1,3.2-8.6,5.6-13.4,7.4
						L65.7,96.6z M67.3,91.8l-0.3,3c4.4-1.7,8.5-4,12.2-6.9c3.7-2.9,7-6.3,9.7-10.1l-3-0.5L67.3,91.8z"/>
				</g>
				<g>
					<polygon class="st0" points="69.5,57.9 86.6,62.3 94.3,43.8 82,28 66.6,36.8 					"/>
					<path class="st0" d="M87,62.9l-18-4.5l-3-21.9l16.1-9.2L95,43.7L87,62.9z M70,57.5l16.2,4.1l7.4-17.7L81.8,28.8l-14.6,8.3
						L70,57.5z"/>
				</g>
				<g>
					<polygon class="st0" points="32.9,62.9 20.6,75.6 32.7,91.5 52.5,88.6 52.6,71 					"/>
					<path class="st0" d="M32.4,92.1L19.8,75.5l12.9-13.3l20.5,8.4l-0.1,18.6L32.4,92.1z M21.3,75.6L33,90.8l19-2.7L52,71.4l-19-7.8
						L21.3,75.6z"/>
				</g>
				<path class="st0" d="M20.6,76.2c-0.1,0-0.3-0.1-0.4-0.2c-0.2-0.2-0.2-0.6,0-0.8l12.3-12.7c0.2-0.2,0.6-0.2,0.8,0
					c0.2,0.2,0.2,0.6,0,0.8L21,76C20.9,76.1,20.7,76.2,20.6,76.2z"/>
				<g>
					<polygon class="st0" points="46.9,28.7 42,11.7 22.2,14.3 14.7,32.8 30,41.8 					"/>
					<path class="st0" d="M30,42.5l-16-9.4l7.8-19.4L42.5,11l5.1,17.9L30,42.5z M15.5,32.6L29.9,41l16.2-12.6l-4.6-16.1l-19,2.5
						L15.5,32.6z"/>
				</g>
				<path class="st0" d="M30,42.3c-0.1,0-0.2,0-0.3-0.1l-15.2-8.9c-0.3-0.2-0.4-0.5-0.2-0.8c0.2-0.3,0.5-0.4,0.8-0.2l15.2,8.9
					c0.3,0.2,0.4,0.5,0.2,0.8C30.4,42.2,30.2,42.3,30,42.3z"/>
				<path class="st0" d="M35.1,84.5L33.3,94c-0.1,0.6-0.7,1.1-1.4,0.9c-0.6-0.1-1.1-0.7-0.9-1.4c0-0.1,0-0.2,0.1-0.3L35.1,84.5z"/>
				<path class="st0" d="M19.9,11.3l2.8,2.6c0.2,0.2,0.2,0.6,0,0.8c-0.2,0.2-0.6,0.2-0.8,0c0,0-0.1-0.1-0.1-0.1L19.9,11.3z"/>
				<path class="st0" d="M32.8,67.9c-0.6-2.8-1.1-5.6-1.6-8.5c-0.4-2.8-0.7-5.7-1-8.6c-0.5-5.7-0.6-11.4-0.8-17.2
					c0.4,5.7,0.8,11.4,1.6,17.1c0.7,5.7,1.8,11.3,3.3,16.8c0.1,0.4-0.1,0.8-0.6,1C33.4,68.6,32.9,68.4,32.8,67.9
					C32.8,68,32.8,67.9,32.8,67.9L32.8,67.9z"/>
				<path class="st0" d="M69.5,39.6c-4.7-2.8-9.6-5.3-14.7-7.5c-5-2.2-10.2-4.2-15.3-6.2c5.2,1.7,10.5,3.5,15.6,5.5
					c2.6,1,5.1,2.1,7.7,3.2c2.5,1.1,5,2.4,7.5,3.7l0,0c0.4,0.2,0.5,0.7,0.3,1.1C70.4,39.7,69.9,39.8,69.5,39.6
					C69.5,39.6,69.5,39.6,69.5,39.6z"/>
				<path class="st0" d="M57.5,4.7c-2.7,0.9-5.3,1.9-7.9,3.1c-1.3,0.6-2.5,1.2-3.7,2c-1.2,0.7-2.4,1.5-3.4,2.4
					c-0.2,0.2-0.6,0.2-0.8-0.1c-0.2-0.2-0.2-0.6,0.1-0.8c0,0,0,0,0,0c1.2-0.9,2.4-1.6,3.7-2.2c1.3-0.6,2.6-1.2,3.9-1.7
					C52,6.3,54.7,5.4,57.5,4.7z"/>
				<path class="st0" d="M15.1,33.5c-1.1,0.8-2.2,1.7-3.2,2.7c-1,1-2,2-2.9,3c-1.9,2.1-3.6,4.3-5.1,6.7c1.3-2.5,2.9-4.9,4.7-7.1
					c0.9-1.1,1.8-2.2,2.7-3.3c1-1.1,2-2.1,3.1-3l0,0c0.2-0.2,0.6-0.2,0.8,0.1C15.4,32.9,15.4,33.3,15.1,33.5
					C15.1,33.5,15.1,33.5,15.1,33.5z"/>
				<path class="st0" d="M83.7,43.8c0.7,3.4,1.5,6.8,2.3,10.2c0.7,3.4,1.4,6.8,1.8,10.3c0.4,3.5,0.4,7.1-0.1,10.6
					c-0.5,3.6-1.6,7-3.2,10.3l0,0c-0.4,0.8-1.3,1.1-2.1,0.7c-0.8-0.4-1.1-1.3-0.7-2.1c0,0,0-0.1,0.1-0.1c1.7-2.9,2.9-6,3.6-9.3
					c0.7-3.3,1-6.7,0.9-10.1c-0.1-3.4-0.5-6.9-1-10.3C84.7,50.7,84.1,47.3,83.7,43.8z"/>
				<path class="st0" d="M73.7,8.1c0.9,1.2,1.7,2.5,2.4,3.9c0.7,1.3,1.4,2.7,2,4.1c1.2,2.8,2.3,5.6,3.3,8.5c2,5.7,3.6,11.6,4.7,17.6
					c0.1,0.4-0.2,0.8-0.6,0.9c-0.4,0.1-0.8-0.2-0.9-0.6c0,0,0,0,0,0c-0.9-5.9-2.2-11.8-3.9-17.6c-0.9-2.9-1.8-5.7-2.9-8.5
					c-0.6-1.4-1.2-2.8-1.8-4.1C75.3,10.7,74.6,9.4,73.7,8.1z"/>
				<path class="st0" d="M38.2,83c5.4,1.9,10.7,4.2,16.1,5.7c2.7,0.7,5.5,1.2,8.3,1.3c2.8,0.1,5.5-0.2,8.2-0.8
					c0.8-0.2,1.7,0.3,1.9,1.2c0.2,0.8-0.3,1.7-1.2,1.9c0,0-0.1,0-0.1,0l0,0c-3,0.4-6,0.4-8.9,0.1c-2.9-0.4-5.8-1.1-8.5-2.1
					c-2.7-1-5.4-2.2-7.9-3.4C43.4,85.5,40.8,84.2,38.2,83z"/>
				<path class="st0" d="M2.3,60.8c1.1,1.4,2.3,2.7,3.5,3.9c1.3,1.2,2.6,2.4,4,3.5c2.7,2.2,5.6,4.2,8.6,6.1c6,3.7,12.3,6.8,18.8,9.4
					c0.4,0.2,0.6,0.6,0.4,1c-0.2,0.4-0.6,0.6-1,0.4c0,0,0,0,0,0c-6.5-2.8-12.8-6.2-18.6-10.1c-2.9-2-5.8-4.1-8.4-6.4
					c-1.3-1.2-2.6-2.4-3.8-3.6C4.4,63.6,3.3,62.3,2.3,60.8z"/>
				<path class="st0" d="M94.3,42.6l3.8,1l-3.7,1.4c-0.6,0.2-1.3-0.1-1.6-0.7c-0.2-0.6,0.1-1.3,0.7-1.6C93.8,42.5,94,42.5,94.3,42.6
					z"/>
				<path class="st0" d="M51.9,72.6c-0.3,0-0.5-0.1-0.7-0.4c-0.2-0.4-0.1-0.9,0.3-1.1c7.5-4.5,13.2-9,17.5-13.7
					c0.3-0.3,0.8-0.4,1.1-0.1c0.3,0.3,0.4,0.8,0.1,1.1c-4.3,4.9-10.2,9.4-17.8,14C52.1,72.5,52,72.6,51.9,72.6z"/>
			</g>
			<path class="st0" d="M75.6,16.3l2.2,8.9l0,0c0.1,0.3,0,0.6-0.1,0.9c-0.1,0.3-0.4,0.5-0.6,0.6c-0.2,0.2-0.5,0.3-0.8,0.5
				c-0.3,0.1-0.5,0.3-0.8,0.5c-1,0.6-2,1.3-3,2c-2,1.4-3.9,2.8-5.9,4.2c0.8-0.9,1.7-1.8,2.6-2.6c0.5-0.4,0.9-0.8,1.4-1.2l1.4-1.2
				c0.5-0.4,1-0.7,1.5-1.1l0.7-0.5l0.8-0.5c0.3-0.2,0.5-0.3,0.8-0.5l0.4-0.2c0.1-0.1,0.2-0.1,0.3-0.2c0.2-0.1,0.3-0.2,0.3-0.3
				c0,0,0,0,0,0l0,0c0,0,0,0,0,0l0.1,0.1l-0.1-0.1l0-0.1l-0.4-2.2c-0.1-0.8-0.2-1.5-0.3-2.3c-0.1-0.8-0.2-1.5-0.2-2.3
				C75.6,17.9,75.6,17.1,75.6,16.3z"/>
			<path class="st0" d="M29.9,62.9L20,71.6l0,0c-0.2,0.2-0.4,0.2-0.7,0.2c-0.2,0-0.5-0.1-0.7-0.2c-0.4-0.2-0.8-0.5-1.2-0.8
				c-0.8-0.5-1.6-1-2.4-1.6c-1.6-1-3.2-2-4.8-3c1,0.2,1.9,0.6,2.7,1c0.9,0.4,1.7,0.8,2.6,1.2c0.8,0.5,1.7,0.9,2.5,1.4l0.6,0.4
				c0.2,0.1,0.3,0.2,0.4,0.3c0.1,0.1,0.2,0.1,0.3,0.1c0,0,0,0,0,0c0,0,0,0-0.1,0c0,0,0,0,0,0l0,0l0,0l-0.1,0.1l0.1-0.1l0,0l2.5-2.1
				c0.9-0.7,1.7-1.4,2.6-2c0.9-0.7,1.8-1.3,2.7-1.9C28,64.1,28.9,63.5,29.9,62.9z"/>
			<path class="st0" d="M64.8,40.1l1,15.6c0,0.2,0,0.3,0,0.5c0,0.2,0,0.3-0.1,0.5c-0.1,0.3-0.3,0.6-0.5,0.8
				c-0.2,0.2-0.5,0.4-0.8,0.6l-0.8,0.6c-1,0.8-2,1.6-3,2.5c-2,1.7-4,3.4-5.9,5.1c0.8-1.1,1.7-2.1,2.6-3c0.5-0.5,0.9-1,1.4-1.4
				l1.4-1.4c0.5-0.4,1-0.9,1.5-1.3l0.7-0.7l0.8-0.6l0.8-0.6l0.4-0.3c0.1-0.1,0.1-0.1,0.2-0.2c0.1-0.1,0.2-0.2,0.3-0.4
				c0.1-0.2,0.1-0.1,0.1-0.5c0-1.3-0.1-2.6-0.1-3.9c0-1.3,0-2.6,0-3.9C64.6,45.4,64.6,42.8,64.8,40.1z"/>
		</g>
	</g>
	<g>
		<path class="st1" d="M126.9,66c0.2-1,0.4-1.8,0.7-2.7l6-0.1c-0.2,1.1-0.5,1.9-0.8,2.9c-0.6,2.5,0.6,3.7,2.6,3.7
			c2.1,0,3.6-1.2,4-2.8l0.6-2.1c0.8-3,0-4.3-3.9-6.1c-4.5-2.2-5.4-5.4-4.4-9.3l0.5-1.9c1.2-4.2,4.4-7.3,10.2-7.3c5.2,0,9,2.6,8,8
			c-0.3,1-0.5,1.7-0.7,2.7l-6,0.1c0.3-1,0.5-1.8,0.7-2.8c0.5-2.1-0.6-3.2-2.5-3.2c-1.9,0-3.5,1.2-3.9,2.8l-0.5,1.9
			c-0.6,2.3-0.4,3.6,3.4,5.5c4.6,2.4,6.1,5.4,4.9,9.8l-0.6,2.2c-1.2,4.7-4.9,7.2-10.3,7.2C128.1,74.6,125.9,70.1,126.9,66z"/>
		<path class="st1" d="M148.2,64.2l3.6-13.6c1.8-6.7,5.8-10.2,11.9-10.2s9.6,3.5,7.9,10.2l-3.6,13.6c-1.8,6.7-5.8,10.3-11.9,10.3
			S146.4,71,148.2,64.2z M161.8,64.6l3.8-14.2c0.9-3.3,0-5.1-2.5-5.1c-2.4,0-4.3,1.8-5.2,5.1l-3.8,14.2c-0.9,3.3,0,5.1,2.4,5.1
			C159.1,69.7,160.9,67.9,161.8,64.6z"/>
		<path class="st1" d="M170.1,64.4l3.7-13.9c1.8-6.7,5.9-10.1,12-10.1c6.1,0,9.3,3.7,7.9,9l-1.3,5l-6,0.1c0.4-1.6,1-3.6,1.4-5.2
			c0.7-2.7-0.7-4-2.6-4c-2.5,0-4.3,1.7-5.2,5L176,64.7c-0.8,3.2,0.2,5,2.6,5c2,0,4-1.2,4.7-3.9l1.4-5.5l6,0.1
			c-0.4,1.6-1,3.6-1.4,5.2c-1.3,5.1-5.2,8.9-11.3,8.9C172,74.6,168.4,71.1,170.1,64.4z"/>
		<path class="st1" d="M192,64.4l3.7-13.9c1.8-6.7,5.9-10.1,12-10.1c6.1,0,9.3,3.7,7.9,9l-1.3,5l-6,0.1c0.4-1.6,1-3.6,1.4-5.2
			c0.7-2.7-0.7-4-2.6-4c-2.5,0-4.3,1.7-5.2,5l-3.9,14.4c-0.8,3.2,0.2,5,2.6,5c2,0,4-1.2,4.7-3.9l1.4-5.5l6,0.1
			c-0.4,1.6-1,3.6-1.4,5.2c-1.3,5.1-5.2,8.9-11.3,8.9C193.8,74.6,190.2,71.1,192,64.4z"/>
		<path class="st1" d="M211.8,74.3l9-33.6h16.8l-1.2,4.8h-10.9l-2.3,8.8h9.1l-1.2,4.5h-9.2l-2.8,10.7h11.1l-1.2,4.8H211.8z"/>
		<path class="st1" d="M250.7,40.7c4.8,0,7.9,2.7,6.3,8.8l-0.4,1.4c-0.9,3.3-2.7,5.3-4.9,6.2l0,0.2c1.4,0.9,2.2,2.4,1.5,4.9
			l-2.6,9.8c-0.3,1,0,1.5,0.7,1.6l-0.1,0.6h-5.8c-0.7-0.4-1-1.3-0.6-2.8l2.4-8.9c0.5-2.1,0.2-3.4-1.8-3.4h-3.8l-4.1,15.2h-6l9-33.6
			H250.7z M242.7,54.5h3.9c2,0,3.3-1,4-3.7l0.5-1.8c0.7-2.7-0.1-3.7-2.1-3.7h-3.9L242.7,54.5z"/>
		<path class="st1" d="M281.3,40.7l-13.5,22.4l-2.9,11.2h-6l3.2-11.5l-1.6-22.1h6.2l-0.3,15.6l8.1-15.6H281.3z"/>
		<path class="st1" d="M275.7,64.2l3.6-13.6c1.8-6.7,5.8-10.2,11.9-10.2s9.6,3.5,7.9,10.2l-3.6,13.6c-1.8,6.7-5.8,10.3-11.9,10.3
			S274,71,275.7,64.2z M289.4,64.6l3.8-14.2c0.9-3.3,0-5.1-2.5-5.1c-2.4,0-4.3,1.8-5.2,5.1l-3.8,14.2c-0.9,3.3,0,5.1,2.4,5.1
			C286.6,69.7,288.5,67.9,289.4,64.6z"/>
		<path class="st1" d="M297.8,64.6l6.4-24h6l-6.6,24.7c-0.8,2.9,0.1,4.3,2.3,4.3s3.8-1.4,4.7-4.3l6.6-24.7h6l-6.4,24
			c-1.7,6.6-5.2,9.9-11.2,9.9C299.5,74.6,296.1,71.3,297.8,64.6z"/>
	</g>
</g>
</svg>
