<svg width="27" height="26" viewBox="0 0 27 26" fill="none" xmlns="http://www.w3.org/2000/svg">
<path d="M13.748 0C16.1022 0 18.2897 0.59375 20.3105 1.78125C22.2689 2.92708 23.821 4.47917 24.9668 6.4375C26.1543 8.45833 26.748 10.6458 26.748 13C26.748 15.3542 26.1543 17.5417 24.9668 19.5625C23.821 21.5208 22.2689 23.0729 20.3105 24.2188C18.2897 25.4062 16.1022 26 13.748 26C11.3939 26 9.20638 25.4062 7.18555 24.2188C5.22721 23.0729 3.67513 21.5208 2.5293 19.5625C1.3418 17.5417 0.748047 15.3542 0.748047 13C0.748047 10.6458 1.3418 8.45833 2.5293 6.4375C3.67513 4.47917 5.22721 2.92708 7.18555 1.78125C9.20638 0.59375 11.3939 0 13.748 0ZM13.748 2C12.373 2 11.0397 2.25 9.74805 2.75V4L10.748 3H11.748V4L9.74805 6H7.74805L8.6543 3.25C7.92513 3.64583 7.23763 4.11458 6.5918 4.65625L6.1543 6H5.2793C5.13346 6.16667 4.95638 6.39583 4.74805 6.6875V10H3.6543L3.0918 10.3125C2.86263 11.2292 2.74805 12.125 2.74805 13C2.74805 14.9792 3.24805 16.8333 4.24805 18.5625C5.22721 20.2083 6.53971 21.5208 8.18555 22.5C9.91471 23.5 11.7689 24 13.748 24C14.0397 24 14.373 23.9792 14.748 23.9375V21L13.748 20L12.748 21H10.748L9.74805 19L10.748 16L13.748 15L16.748 16L19.248 15L21.6543 19H22.748V19.3125C23.9147 17.6458 24.571 15.8021 24.7168 13.7812L23.748 14H22.748V15H23.748V16L22.748 17L20.748 14H18.748V13H20.748V11L18.5605 11.8125L17.748 13V14H15.748L14.748 13L12.748 14H11.748V12H12.748L16.748 10L17.8418 8.90625L16.748 8H15.748V9L14.748 9.6875L13.748 7.5L15.748 5H17.748L19.3105 6.46875L20.4355 5.375L19.248 4.1875L19.498 3.625C17.7272 2.54167 15.8105 2 13.748 2ZM11.748 8H12.748V10H11.748V8Z" fill="#4F7A9D"/>
</svg>
