<svg width="27" height="22" viewBox="0 0 27 22" fill="none" xmlns="http://www.w3.org/2000/svg">
<path d="M4.74805 0.375L7.74805 1.875L9.74805 0.875L11.748 1.875L13.748 0.875L15.748 1.875L17.748 0.875L19.748 1.875L22.748 0.375V8H26.748V22H0.748047V8H4.74805V0.375ZM9.74805 3.125L7.74805 4.125L6.74805 3.625V12H20.748V3.625L19.748 4.125L17.748 3.125L15.748 4.125L13.748 3.125L11.748 4.125L9.74805 3.125ZM2.74805 10V20H24.748V10H22.748V14H4.74805V10H2.74805ZM6.74805 16H8.74805V18H6.74805V16ZM10.748 16H12.748V18H10.748V16ZM14.748 16H16.748V18H14.748V16ZM18.748 16H20.748V18H18.748V16Z" fill="#4F7A9D"/>
</svg>
