<?xml version="1.0" encoding="utf-8"?>
<!-- Generator: Adobe Illustrator 25.0.1, SVG Export Plug-In . SVG Version: 6.00 Build 0)  -->
<svg version="1.1" id="Layer_1" xmlns="http://www.w3.org/2000/svg" xmlns:xlink="http://www.w3.org/1999/xlink" x="0px" y="0px"
	 viewBox="0 0 130.4 100" style="enable-background:new 0 0 130.4 100;" xml:space="preserve">
<style type="text/css">
	.st0{fill:#FFFFFF;}
	.st1{fill:#BDE34F;}
</style>
<g>
	<g>
		<g>
			<path class="st0" d="M27.2,6.1c-19.2,10-29,31.1-25.5,51.4c0.8,4.9,2.4,9.7,4.8,14.3c2.4,4.6,5.5,8.7,9,12.2
				c14.7,14.5,37.5,18.5,56.8,8.5c23.9-12.4,33.1-41.9,20.7-65.8C80.5,2.9,51-6.3,27.2,6.1z"/>
			<path class="st1" d="M27.3,6.3c-1.4,0.7-2.8,1.5-4.1,2.4c-1.3,0.9-2.6,1.8-3.8,2.8c-2.4,2-4.7,4.3-6.7,6.7
				c-4,4.9-7,10.6-8.8,16.6c-1.8,6-2.4,12.4-1.7,18.6c0.6,6.2,2.5,12.3,5.5,17.7c3,5.5,7,10.3,11.8,14.2c4.8,3.9,10.3,6.9,16.2,8.6
				c11.8,3.6,24.9,2.4,35.7-3.3c5.4-2.8,10.3-6.7,14.3-11.4c3.9-4.7,7-10.1,8.9-16c1.9-5.9,2.7-12.1,2.2-18.2
				C96.2,39,94.5,33,91.7,27.4c-2.8-5.5-6.7-10.6-11.4-14.6c-4.7-4.1-10.3-7.2-16.2-9.2c-6-2-12.3-2.8-18.6-2.3
				C39.2,1.7,32.9,3.5,27.3,6.3z M27,5.9c5.6-3,11.9-5,18.3-5.6c6.4-0.7,13,0,19.2,1.8c6.2,1.9,12.1,4.9,17.1,9
				c5.1,4.1,9.3,9.2,12.4,15c3.1,5.8,5.1,12.2,5.8,18.7c0.6,6.6,0,13.3-2,19.6c-1.9,6.3-5.1,12.3-9.4,17.4
				C84.3,87,79,91.2,73.1,94.3c-5.9,3.1-12.4,5-19,5.5c-6.6,0.5-13.3-0.2-19.6-2.3c-6.3-2-12.2-5.3-17.2-9.6c-5-4.3-9.1-9.6-12-15.4
				c-3-5.9-4.7-12.3-5.2-18.8c-0.5-6.5,0.4-13.1,2.4-19.2c2-6.2,5.3-11.9,9.5-16.8c2.1-2.4,4.4-4.7,7-6.6c1.3-1,2.6-1.9,3.9-2.8
				C24.2,7.4,25.6,6.7,27,5.9z"/>
		</g>
		<g>
			<g>
				<g>
					<path class="st1" d="M1.7,40.8c-0.9,4.9-1,10-0.3,15.1c0.7,5.2,2.2,10,4.3,14.5l2.7-3.2l-3.3-24L1.7,40.8z"/>
					<path class="st1" d="M5.6,71.5l-0.4-0.8C3,66.1,1.6,61.1,0.9,56c-0.7-5.1-0.6-10.3,0.3-15.3l0.2-0.9l4.4,3.1l3.3,24.5L5.6,71.5
						z M2.2,41.8c-0.7,4.6-0.8,9.3-0.1,14c0.6,4.7,1.9,9.2,3.9,13.5L7.8,67L4.6,43.5L2.2,41.8z"/>
				</g>
				<g>
					<path class="st1" d="M81.2,12.1C77.4,8.9,73,6.2,68.2,4.2c-4.8-2-9.8-3.1-14.7-3.5L55,4.7l22.4,9.2L81.2,12.1z"/>
					<path class="st1" d="M77.4,14.5L54.5,5.1l-1.9-5l0.9,0.1c5.1,0.4,10.1,1.6,14.9,3.5c4.8,2,9.2,4.6,13.1,7.9l0.7,0.6L77.4,14.5z
						 M55.4,4.2l21.9,9l2.7-1.3C76.4,9,72.4,6.6,68,4.8C63.6,3,59.1,1.9,54.4,1.4L55.4,4.2z"/>
				</g>
				<g>
					<path class="st1" d="M66.3,95.2c4.7-1.7,9.1-4.1,13.2-7.3c4.1-3.2,7.6-6.9,10.4-11l-4.1-0.7L66.7,91L66.3,95.2z"/>
					<path class="st1" d="M65.7,96.1l0.5-5.4l19.5-15.1l5.3,0.9l-0.5,0.8c-2.9,4.2-6.4,8-10.5,11.1c-4.1,3.2-8.6,5.6-13.4,7.4
						L65.7,96.1z M67.3,91.4l-0.3,3c4.4-1.7,8.5-4,12.2-6.9c3.7-2.9,7-6.3,9.7-10.1l-3-0.5L67.3,91.4z"/>
				</g>
				<g>
					<polygon class="st1" points="69.5,57.4 86.6,61.8 94.3,43.3 82,27.5 66.6,36.3 					"/>
					<path class="st1" d="M87,62.5l-18-4.5L66,36l16.1-9.2L95,43.2L87,62.5z M70,57l16.2,4.1l7.4-17.7L81.8,28.3l-14.6,8.3L70,57z"
						/>
				</g>
				<g>
					<polygon class="st1" points="32.9,62.4 20.6,75.1 32.7,91 52.5,88.2 52.6,70.5 					"/>
					<path class="st1" d="M32.4,91.6L19.8,75l12.9-13.3l20.5,8.4l-0.1,18.6L32.4,91.6z M21.3,75.1L33,90.4l19-2.7L52,70.9l-19-7.8
						L21.3,75.1z"/>
				</g>
				<path class="st1" d="M20.6,75.7c-0.1,0-0.3-0.1-0.4-0.2c-0.2-0.2-0.2-0.6,0-0.8L32.4,62c0.2-0.2,0.6-0.2,0.8,0
					c0.2,0.2,0.2,0.6,0,0.8L21,75.5C20.9,75.6,20.7,75.7,20.6,75.7z"/>
				<g>
					<polygon class="st1" points="46.9,28.2 42,11.2 22.2,13.8 14.7,32.4 30,41.3 					"/>
					<path class="st1" d="M30,42l-16-9.4l7.8-19.4l20.7-2.7l5.1,17.9L30,42z M15.5,32.1l14.5,8.5L46.2,28l-4.6-16.1l-19,2.5
						L15.5,32.1z"/>
				</g>
				<path class="st1" d="M30,41.9c-0.1,0-0.2,0-0.3-0.1l-15.2-8.9c-0.3-0.2-0.4-0.5-0.2-0.8c0.2-0.3,0.5-0.4,0.8-0.2l15.2,8.9
					c0.3,0.2,0.4,0.5,0.2,0.8C30.4,41.8,30.2,41.9,30,41.9z"/>
				<path class="st1" d="M35.1,84l-1.8,9.5c-0.1,0.6-0.7,1.1-1.4,0.9c-0.6-0.1-1.1-0.7-0.9-1.4c0-0.1,0-0.2,0.1-0.3L35.1,84z"/>
				<path class="st1" d="M19.9,10.8l2.8,2.6c0.2,0.2,0.2,0.6,0,0.8c-0.2,0.2-0.6,0.2-0.8,0c0,0-0.1-0.1-0.1-0.1L19.9,10.8z"/>
				<path class="st1" d="M32.8,67.4c-0.6-2.8-1.1-5.6-1.6-8.5c-0.4-2.8-0.7-5.7-1-8.6c-0.5-5.7-0.6-11.4-0.8-17.2
					c0.4,5.7,0.8,11.4,1.6,17.1c0.7,5.7,1.8,11.3,3.3,16.8c0.1,0.4-0.1,0.8-0.6,1C33.4,68.1,32.9,67.9,32.8,67.4
					C32.8,67.5,32.8,67.5,32.8,67.4L32.8,67.4z"/>
				<path class="st1" d="M69.5,39.1c-4.7-2.8-9.6-5.3-14.7-7.5c-5-2.2-10.2-4.2-15.3-6.2c5.2,1.7,10.5,3.5,15.6,5.5
					c2.6,1,5.1,2.1,7.7,3.2c2.5,1.1,5,2.4,7.5,3.7l0,0c0.4,0.2,0.5,0.7,0.3,1.1C70.4,39.2,69.9,39.4,69.5,39.1
					C69.5,39.1,69.5,39.1,69.5,39.1z"/>
				<path class="st1" d="M57.5,4.2c-2.7,0.9-5.3,1.9-7.9,3.1c-1.3,0.6-2.5,1.2-3.7,2c-1.2,0.7-2.4,1.5-3.4,2.4
					c-0.2,0.2-0.6,0.2-0.8-0.1c-0.2-0.2-0.2-0.6,0.1-0.8c0,0,0,0,0,0c1.2-0.9,2.4-1.6,3.7-2.2c1.3-0.6,2.6-1.2,3.9-1.7
					C52,5.8,54.7,4.9,57.5,4.2z"/>
				<path class="st1" d="M15.1,33c-1.1,0.8-2.2,1.7-3.2,2.7c-1,1-2,2-2.9,3c-1.9,2.1-3.6,4.3-5.1,6.7c1.3-2.5,2.9-4.9,4.7-7.1
					c0.9-1.1,1.8-2.2,2.7-3.3c1-1.1,2-2.1,3.1-3l0,0c0.2-0.2,0.6-0.2,0.8,0.1C15.4,32.4,15.4,32.8,15.1,33C15.1,33,15.1,33,15.1,33z
					"/>
				<path class="st1" d="M83.7,43.3c0.7,3.4,1.5,6.8,2.3,10.2c0.7,3.4,1.4,6.8,1.8,10.3c0.4,3.5,0.4,7.1-0.1,10.6
					c-0.5,3.6-1.6,7-3.2,10.3l0,0c-0.4,0.8-1.3,1.1-2.1,0.7c-0.8-0.4-1.1-1.3-0.7-2.1c0,0,0-0.1,0.1-0.1c1.7-2.9,2.9-6,3.6-9.3
					c0.7-3.3,1-6.7,0.9-10.1c-0.1-3.4-0.5-6.9-1-10.3C84.7,50.2,84.1,46.8,83.7,43.3z"/>
				<path class="st1" d="M73.7,7.6c0.9,1.2,1.7,2.5,2.4,3.9c0.7,1.3,1.4,2.7,2,4.1c1.2,2.8,2.3,5.6,3.3,8.5c2,5.7,3.6,11.6,4.7,17.6
					c0.1,0.4-0.2,0.8-0.6,0.9c-0.4,0.1-0.8-0.2-0.9-0.6c0,0,0,0,0,0c-0.9-5.9-2.2-11.8-3.9-17.6c-0.9-2.9-1.8-5.7-2.9-8.5
					c-0.6-1.4-1.2-2.8-1.8-4.1C75.3,10.2,74.6,8.9,73.7,7.6z"/>
				<path class="st1" d="M38.2,82.5c5.4,1.9,10.7,4.2,16.1,5.7c2.7,0.7,5.5,1.2,8.3,1.3c2.8,0.1,5.5-0.2,8.2-0.8
					c0.8-0.2,1.7,0.3,1.9,1.2c0.2,0.8-0.3,1.7-1.2,1.9c0,0-0.1,0-0.1,0l0,0c-3,0.4-6,0.4-8.9,0.1c-2.9-0.4-5.8-1.1-8.5-2.1
					c-2.7-1-5.4-2.2-7.9-3.4C43.4,85,40.8,83.7,38.2,82.5z"/>
				<path class="st1" d="M2.3,60.3c1.1,1.4,2.3,2.7,3.5,3.9c1.3,1.2,2.6,2.4,4,3.5c2.7,2.2,5.6,4.2,8.6,6.1c6,3.7,12.3,6.8,18.8,9.4
					c0.4,0.2,0.6,0.6,0.4,1c-0.2,0.4-0.6,0.6-1,0.4c0,0,0,0,0,0c-6.5-2.8-12.8-6.2-18.6-10.1c-2.9-2-5.8-4.1-8.4-6.4
					c-1.3-1.2-2.6-2.4-3.8-3.6C4.4,63.1,3.3,61.8,2.3,60.3z"/>
				<path class="st1" d="M94.3,42.1l3.8,1l-3.7,1.4c-0.6,0.2-1.3-0.1-1.6-0.7c-0.2-0.6,0.1-1.3,0.7-1.6C93.8,42.1,94,42.1,94.3,42.1
					z"/>
				<path class="st1" d="M51.9,72.1c-0.3,0-0.5-0.1-0.7-0.4c-0.2-0.4-0.1-0.9,0.3-1.1c7.5-4.5,13.2-9,17.5-13.7
					c0.3-0.3,0.8-0.4,1.1-0.1c0.3,0.3,0.4,0.8,0.1,1.1c-4.3,4.9-10.2,9.4-17.8,14C52.1,72.1,52,72.1,51.9,72.1z"/>
			</g>
			<path class="st1" d="M75.6,15.8l2.2,8.9l0,0c0.1,0.3,0,0.6-0.1,0.9c-0.1,0.3-0.4,0.5-0.6,0.6c-0.2,0.2-0.5,0.3-0.8,0.5
				c-0.3,0.1-0.5,0.3-0.8,0.5c-1,0.6-2,1.3-3,2c-2,1.4-3.9,2.8-5.9,4.2c0.8-0.9,1.7-1.8,2.6-2.6c0.5-0.4,0.9-0.8,1.4-1.2l1.4-1.2
				c0.5-0.4,1-0.7,1.5-1.1l0.7-0.5l0.8-0.5c0.3-0.2,0.5-0.3,0.8-0.5l0.4-0.2c0.1-0.1,0.2-0.1,0.3-0.2c0.2-0.1,0.3-0.2,0.3-0.3
				c0,0,0,0,0,0l0,0c0,0,0,0,0,0l0.1,0.1L76.7,25l0-0.1l-0.4-2.2c-0.1-0.8-0.2-1.5-0.3-2.3c-0.1-0.8-0.2-1.5-0.2-2.3
				C75.6,17.4,75.6,16.6,75.6,15.8z"/>
			<path class="st1" d="M29.9,62.4L20,71.1l0,0c-0.2,0.2-0.4,0.2-0.7,0.2c-0.2,0-0.5-0.1-0.7-0.2c-0.4-0.2-0.8-0.5-1.2-0.8
				c-0.8-0.5-1.6-1-2.4-1.6c-1.6-1-3.2-2-4.8-3c1,0.2,1.9,0.6,2.7,1c0.9,0.4,1.7,0.8,2.6,1.2c0.8,0.5,1.7,0.9,2.5,1.4l0.6,0.4
				c0.2,0.1,0.3,0.2,0.4,0.3c0.1,0.1,0.2,0.1,0.3,0.1c0,0,0,0,0,0c0,0,0,0-0.1,0c0,0,0,0,0,0l0,0l0,0l-0.1,0.1l0.1-0.1l0,0l2.5-2.1
				c0.9-0.7,1.7-1.4,2.6-2c0.9-0.7,1.8-1.3,2.7-1.9C28,63.6,28.9,63,29.9,62.4z"/>
			<path class="st1" d="M64.8,39.7l1,15.6c0,0.2,0,0.3,0,0.5c0,0.2,0,0.3-0.1,0.5c-0.1,0.3-0.3,0.6-0.5,0.8
				c-0.2,0.2-0.5,0.4-0.8,0.6l-0.8,0.6c-1,0.8-2,1.6-3,2.5c-2,1.7-4,3.4-5.9,5.1c0.8-1.1,1.7-2.1,2.6-3c0.5-0.5,0.9-1,1.4-1.4
				l1.4-1.4c0.5-0.4,1-0.9,1.5-1.3l0.7-0.7l0.8-0.6l0.8-0.6l0.4-0.3c0.1-0.1,0.1-0.1,0.2-0.2c0.1-0.1,0.2-0.2,0.3-0.4
				c0.1-0.2,0.1-0.1,0.1-0.5c0-1.3-0.1-2.6-0.1-3.9c0-1.3,0-2.6,0-3.9C64.6,44.9,64.6,42.3,64.8,39.7z"/>
		</g>
	</g>
	<g>
		<g>
			<path class="st1" d="M97,81.7H38.2l13.3-52.8c2.1-8.3,9.6-14.1,18.2-14.1h58.8l-13.3,52.8C113,75.9,105.5,81.7,97,81.7z"/>
			<path class="st0" d="M97,81.8l-7.3,0L82.3,82l-14.7,0.5c-4.9,0.1-9.8,0.4-14.7,0.4C50.4,83,48,83,45.5,83c-2.4,0-4.9,0-7.3,0
				l-1.7,0l0.4-1.7c2.8-11.1,6-22.2,9.1-33.3c1.5-5.5,3-11.1,4.4-16.7c0.3-1.4,0.7-2.8,1.1-4.2c0.5-1.4,1.1-2.7,1.9-4
				c1.6-2.5,3.7-4.7,6.2-6.2c2.5-1.6,5.4-2.6,8.4-2.9c1.5-0.1,2.9-0.1,4.4-0.2l4.3-0.1c5.7-0.2,11.5-0.2,17.2-0.3
				c11.5-0.1,23-0.2,34.5-0.3l2.1,0l-0.5,2l-2.4,9.6l-2.5,9.6c-1.6,6.4-3.4,12.8-5.2,19.1l-2.8,9.5l-1.4,4.8c-0.5,1.6-1.2,3.2-2,4.7
				c-0.9,1.5-2,2.8-3.2,3.9c-1.2,1.2-2.5,2.2-4,3c-1.5,0.8-3,1.5-4.6,1.9C100.3,81.6,98.6,81.8,97,81.8z M97,81.5
				c3.3-0.1,6.5-0.9,9.3-2.6c2.8-1.7,5.1-4.2,6.6-7c0.7-1.4,1.3-2.9,1.6-4.5l1.1-4.8l2.1-9.7c1.4-6.4,2.9-12.9,4.5-19.3l2.3-9.6
				l2.4-9.6l1.5,2c-11.5-0.1-23-0.2-34.5-0.3c-5.7-0.1-11.5-0.2-17.2-0.3l-4.3-0.1c-1.4,0-2.9-0.1-4.2,0c-2.7,0.2-5.5,1-7.9,2.4
				c-0.6,0.3-1.2,0.8-1.8,1.1c-0.5,0.4-1.1,0.9-1.6,1.4c-1,0.9-1.9,2.1-2.7,3.2c-0.8,1.2-1.4,2.5-1.9,3.8c-0.4,1.3-0.8,2.7-1.1,4.1
				c-1.4,5.6-2.7,11.2-4,16.8c-2.6,11.2-5,22.5-7.8,33.6l-1.3-1.7c2.4,0,4.9,0,7.3,0c2.4,0,4.9,0,7.3,0.1c4.9,0.1,9.8,0.3,14.7,0.4
				l14.7,0.5l7.3,0.1L97,81.5z"/>
		</g>
		<g>
			<path class="st0" d="M63.1,56.4c0.2-1,0.4-1.7,0.7-2.6l5.7-0.1c-0.2,1-0.5,1.8-0.7,2.8c-0.6,2.4,0.6,3.5,2.5,3.5
				c2,0,3.4-1.1,3.8-2.7l0.6-2c0.8-2.9,0-4.1-3.7-5.8c-4.3-2.1-5.2-5.2-4.2-8.8l0.5-1.8c1.1-4,4.2-7,9.7-7c5,0,8.6,2.5,7.6,7.7
				c-0.3,1-0.5,1.6-0.7,2.6l-5.7,0.1c0.3-1,0.5-1.7,0.7-2.7c0.5-2-0.6-3.1-2.4-3.1c-1.8,0-3.3,1.1-3.8,2.7l-0.5,1.8
				c-0.6,2.2-0.4,3.4,3.3,5.2c4.4,2.2,5.9,5.1,4.7,9.4l-0.6,2.1c-1.2,4.4-4.7,6.9-9.9,6.9C64.3,64.6,62.1,60.3,63.1,56.4z"/>
			<path class="st0" d="M108.2,32.2L95.3,53.6l-2.8,10.7h-5.7l3-11l-1.5-21.1h5.9L94,47.1l7.7-14.9H108.2z"/>
		</g>
	</g>
</g>
</svg>
