<svg width="37" height="32" viewBox="0 0 37 32" fill="none" xmlns="http://www.w3.org/2000/svg">
<g clip-path="url(#clip0_450_1082)">
<path d="M33.1506 7.04211L29.4258 8.15408C28.3083 8.52474 27.0667 8.15408 26.3218 7.28921L20.7345 0.988055C19.4929 -0.371018 17.5063 -0.371018 16.2647 0.988055L10.6775 7.41277C9.9325 8.27763 8.69089 8.52474 7.57344 8.27763L3.8486 7.16566C1.61371 6.5479 -0.372872 8.40118 0.123773 10.6251L2.85532 21.3742C3.10364 22.7332 4.34525 23.7216 5.71102 23.7216H8.81505C8.81505 23.351 8.69089 22.8568 8.69089 22.4861C8.69089 17.1734 13.0365 12.8491 18.3755 12.8491C23.7144 12.8491 28.06 17.1734 28.06 22.4861C28.06 22.9803 28.06 23.351 27.9359 23.7216H30.6674C32.0332 23.7216 33.2748 22.7332 33.5231 21.3742L36.7513 10.6251C37.4963 8.27763 35.3855 6.42435 33.1506 7.04211Z" fill="#468432"/>
<path d="M18.2496 23.5977H8.9375C9.55831 28.2926 13.6556 31.9992 18.4979 31.9992C23.3402 31.9992 27.4375 28.4162 28.0583 23.5977H18.2496Z" fill="#E05263"/>
<path d="M18.501 12.6016C13.162 12.6016 8.81641 16.9259 8.81641 22.2386C8.81641 22.7328 8.81641 23.1035 8.94057 23.4741H18.2526H28.0614C28.0614 23.1035 28.1855 22.6093 28.1855 22.2386C28.1855 16.9259 23.8399 12.6016 18.501 12.6016Z" fill="#E48670"/>
</g>
<defs>
<clipPath id="clip0_450_1082">
<rect width="37" height="32" fill="white"/>
</clipPath>
</defs>
</svg>
