<svg width="78" height="52" viewBox="0 0 78 52" fill="none" xmlns="http://www.w3.org/2000/svg">
<path d="M33.4 22.1C34.3 21.4 35.5 21 36.7 21C39.8 21 42.3 23.5 42.3 26.6C42.3 29.7 39.8 32.2 36.7 32.2C33.6 32.2 31 29.8 31 26.7C31 24.9 31.8 23.3 33.1 22.3L33.4 22.1Z" stroke="#468432" stroke-width="2" stroke-miterlimit="10"/>
<path d="M35.3992 49.4023H43.4992V42.3023C43.4992 38.5023 40.3992 35.4023 36.5992 35.4023C32.7992 35.4023 29.6992 38.5023 29.6992 42.3023V49.4023H34.6992C34.7992 49.4023 35.3992 49.4023 35.3992 49.4023Z" stroke="#468432" stroke-width="2" stroke-miterlimit="10"/>
<path d="M17.9984 24.2031C21.0984 24.2031 23.5984 26.7031 23.5984 29.8031C23.5984 32.9031 21.0984 35.4031 17.9984 35.4031C15.6984 35.4031 13.7984 34.0031 12.8984 32.1031" stroke="#468432" stroke-width="2" stroke-miterlimit="10"/>
<path d="M17.7016 49.4H24.9016V45.4C24.9016 41.6 21.8016 38.5 18.0016 38.5C14.2016 38.5 11.1016 41.6 11.1016 45.4V49.4H17.0016C17.1016 49.4 17.7016 49.4 17.7016 49.4Z" stroke="#468432" stroke-width="2" stroke-miterlimit="10"/>
<path d="M59.2992 33.2031C58.2992 34.5031 56.6992 35.4031 54.7992 35.4031C51.6992 35.4031 49.1992 32.9031 49.1992 29.8031C49.1992 26.7031 51.6992 24.2031 54.7992 24.2031" stroke="#468432" stroke-width="2" stroke-miterlimit="10"/>
<path d="M54.5 49.4H61.8V45.4C61.8 41.6 58.7 38.5 54.9 38.5C51.1 38.5 48 41.6 48 45.4V49.4H54H54.5Z" stroke="#468432" stroke-width="2" stroke-miterlimit="10"/>
<path d="M68.6984 31.3031H56.3984V24.0031C56.3984 20.0031 59.6984 16.7031 63.6984 16.7031H68.5984C72.5984 16.7031 75.8984 20.0031 75.8984 24.0031C75.9984 28.0031 72.6984 31.3031 68.6984 31.3031Z" stroke="#E05263" stroke-width="2" stroke-miterlimit="10"/>
<path d="M7.4 30.2023H15.7V25.3023C15.7 22.6023 13.5 20.4023 10.8 20.4023H7.4C4.7 20.4023 2.5 22.6023 2.5 25.3023C2.5 28.0023 4.7 30.2023 7.4 30.2023Z" stroke="#E05263" stroke-width="2" stroke-miterlimit="10"/>
<path d="M40.5 14.2016L36.6 18.1016L32.7 14.2016H28.8C25.6 14.2016 23 11.6016 23 8.40156C23 5.20156 25.6 2.60156 28.8 2.60156H44.5C47.7 2.60156 50.3 5.20156 50.3 8.40156C50.3 11.6016 47.7 14.2016 44.5 14.2016H40.5Z" stroke="#E05263" stroke-width="2" stroke-miterlimit="10"/>
</svg>
