<svg width="75" height="45" viewBox="0 0 75 45" fill="none" xmlns="http://www.w3.org/2000/svg">
<path d="M15.5977 9.19766L22.5977 9.29766C22.5977 9.29766 28.8977 5.09766 32.1977 6.89766" stroke="#E05263" stroke-width="2" stroke-miterlimit="10"/>
<path d="M53.8992 31.9977L54.7992 33.5977C54.7992 33.5977 55.6992 36.4977 53.7992 38.0977C51.8992 39.6977 48.6992 38.7977 48.6992 38.7977C46.5992 42.1977 41.7992 40.5977 41.7992 40.5977C39.3992 44.5977 33.8992 42.4977 33.8992 42.4977C28.3992 44.9977 25.8992 41.0977 25.8992 41.0977L19.9992 31.0977H15.6992" stroke="#E05263" stroke-width="2" stroke-miterlimit="10"/>
<path d="M59 32.5982H56.2C54.1 32.6982 53.7 31.3982 53.7 31.3982C53.7 31.3982 47.9 20.7982 45.2 16.1982C42.5 11.5982 41 11.8982 41 11.8982C41 11.8982 39.9 11.6982 37.6 13.9982C35.2 16.2982 32.1 17.7982 32.1 17.7982C26.6 19.3982 26.5 14.2982 26.5 14.2982L32.7 6.79824C32.7 6.79824 36 2.19824 38.5 1.69824C41 1.09824 43.1 0.698245 46.6 1.39824C50 2.19824 59.2 8.59825 59.2 8.59825" stroke="#468432" stroke-width="2" stroke-miterlimit="10"/>
<path d="M67.9992 35.1969H62.0992C60.4992 35.1969 59.1992 33.8969 59.1992 32.2969V9.69687C59.1992 8.09687 60.4992 6.79688 62.0992 6.79688H70.9992C72.7992 6.79688 74.0992 8.29688 73.8992 10.0969L70.9992 32.6969C70.6992 34.0969 69.4992 35.1969 67.9992 35.1969Z" stroke="#468432" stroke-width="2" stroke-miterlimit="10"/>
<path d="M6.79955 35.1969H12.6995C14.2995 35.1969 15.5995 33.8969 15.5995 32.2969V9.69687C15.5995 8.09687 14.2995 6.79688 12.6995 6.79688H3.89955C2.19955 6.79688 0.799549 8.29687 0.999549 9.99687L3.99955 32.5969C4.19955 34.0969 5.39955 35.1969 6.79955 35.1969Z" stroke="#E05263" stroke-width="2" stroke-miterlimit="10"/>
<path d="M34.0984 42.1984L30.3984 34.8984" stroke="#E05263" stroke-width="2" stroke-miterlimit="10" stroke-linecap="round"/>
<path d="M41.7 40.2984L37 32.3984" stroke="#E05263" stroke-width="2" stroke-miterlimit="10" stroke-linecap="round"/>
<path d="M48.6977 38.3984L44.0977 29.8984" stroke="#E05263" stroke-width="2" stroke-miterlimit="10" stroke-linecap="round"/>
</svg>
